<svg width="12" height="13" viewBox="0 0 12 13" fill="none" xmlns="http://www.w3.org/2000/svg">
<path d="M5.33333 4.02474H6.66667V6.69141H8.66667V8.02474H5.33333V4.02474Z" fill="#0061A3"/>
<path fill-rule="evenodd" clip-rule="evenodd" d="M0 6.69141C0 3.3777 2.68629 0.691406 6 0.691406C9.31371 0.691406 12 3.3777 12 6.69141C12 10.0051 9.31371 12.6914 6 12.6914C2.68629 12.6914 0 10.0051 0 6.69141ZM1.33333 6.69141C1.33333 4.11408 3.42267 2.02474 6 2.02474C8.57733 2.02474 10.6667 4.11408 10.6667 6.69141C10.6667 9.26874 8.57733 11.3581 6 11.3581C3.42267 11.3581 1.33333 9.26874 1.33333 6.69141Z" fill="#0061A3"/>
</svg>
