<svg width="44" height="27" viewBox="0 0 44 27" fill="none" xmlns="http://www.w3.org/2000/svg">
<g clip-path="url(#clip0_1_7222)">
<rect y="0.348022" width="44" height="26.4" rx="4" fill="#F7931A"/>
<g clip-path="url(#clip1_1_7222)">
<path fill-rule="evenodd" clip-rule="evenodd" d="M15.3359 10.8849C15.6176 10.8849 15.8607 10.935 16.0652 11.0337C16.2705 11.1333 16.4402 11.2674 16.5761 11.436C16.7102 11.6055 16.8101 11.8038 16.8745 12.0307C16.9386 12.2585 16.9707 12.5032 16.9707 12.7653C16.9707 13.1676 16.8967 13.5481 16.7469 13.9066C16.5974 14.2655 16.3942 14.5768 16.1359 14.8424C15.8779 15.1078 15.5731 15.3169 15.2217 15.4713C14.8708 15.6261 14.4894 15.7032 14.0798 15.7032C14.0269 15.7032 13.9338 15.7019 13.8022 15.6989C13.6707 15.6963 13.5194 15.6829 13.3501 15.66C13.1797 15.6365 12.9996 15.6015 12.8093 15.5546C12.6191 15.5086 12.4385 15.4441 12.2684 15.3622L13.789 9.0054L15.151 8.79529L14.6066 11.051C14.7232 10.9987 14.8406 10.9581 14.9578 10.9288C15.0757 10.9003 15.2013 10.8849 15.3359 10.8849ZM14.1935 14.6285C14.3986 14.6285 14.5918 14.5784 14.7734 14.4797C14.9555 14.3812 15.1127 14.248 15.2442 14.0819C15.3757 13.9154 15.4801 13.7276 15.5561 13.5177C15.6321 13.308 15.6705 13.0893 15.6705 12.8614C15.6705 12.5818 15.6236 12.3635 15.5298 12.2059C15.4361 12.0486 15.2629 11.9698 15.0111 11.9698C14.9286 11.9698 14.8223 11.9854 14.6905 12.0132C14.5583 12.0433 14.4401 12.1048 14.3339 12.1974L13.7542 14.5933C13.7891 14.5991 13.8202 14.6052 13.8464 14.6106C13.8723 14.6164 13.9007 14.6207 13.9291 14.6237C13.9593 14.6272 13.9936 14.6287 14.035 14.6287C14.0765 14.6287 14.129 14.6285 14.1935 14.6285Z" fill="white"/>
<path fill-rule="evenodd" clip-rule="evenodd" d="M18.384 15.5811H17.083L18.1817 10.9818H19.4916L18.384 15.5811ZM19.0169 10.422C18.8352 10.422 18.6707 10.368 18.5246 10.2604C18.3773 10.1533 18.3043 9.98836 18.3043 9.76615C18.3043 9.64393 18.3293 9.52905 18.3788 9.42108C18.4289 9.31311 18.4947 9.21983 18.5769 9.14101C18.6592 9.06262 18.7543 9 18.8624 8.95271C18.9711 8.90628 19.0868 8.88318 19.2101 8.88318C19.3915 8.88318 19.5554 8.93695 19.7019 9.0447C19.848 9.15289 19.9215 9.31786 19.9215 9.53877C19.9215 9.66142 19.8968 9.77674 19.8467 9.8847C19.797 9.99267 19.7314 10.0855 19.6492 10.1648C19.5678 10.2432 19.4716 10.3056 19.3637 10.3524C19.255 10.3995 19.14 10.422 19.0169 10.422Z" fill="white"/>
<path fill-rule="evenodd" clip-rule="evenodd" d="M20.631 9.83645L21.9936 9.62634L21.6589 10.9818H23.1181L22.8546 12.0483H21.4041L21.0178 13.6573C20.9822 13.7914 20.962 13.9166 20.9564 14.0328C20.9501 14.1498 20.9648 14.2502 21 14.3347C21.0349 14.4193 21.0979 14.4845 21.189 14.531C21.2798 14.5778 21.4098 14.6014 21.5799 14.6014C21.7201 14.6014 21.8569 14.5882 21.9891 14.5616C22.1204 14.5359 22.2536 14.4997 22.3884 14.4524L22.4854 15.4498C22.3096 15.5139 22.1193 15.5692 21.9142 15.6156C21.7089 15.6625 21.4655 15.6852 21.1845 15.6852C20.7803 15.6852 20.4669 15.6258 20.2438 15.5068C20.0209 15.387 19.8633 15.2235 19.7689 15.0164C19.6758 14.8102 19.6343 14.5722 19.646 14.3042C19.6582 14.0356 19.6988 13.7532 19.7689 13.4558L20.631 9.83645Z" fill="white"/>
<path fill-rule="evenodd" clip-rule="evenodd" d="M23.0607 13.7452C23.0607 13.349 23.1251 12.9756 23.2541 12.6256C23.3825 12.2755 23.5679 11.9696 23.8084 11.7068C24.048 11.4453 24.3397 11.2382 24.6831 11.0864C25.0249 10.935 25.4076 10.8588 25.8295 10.8588C26.0935 10.8588 26.3294 10.8834 26.5369 10.9333C26.7452 10.9834 26.9339 11.0484 27.1042 11.1298L26.6556 12.1449C26.5384 12.0976 26.4166 12.0559 26.291 12.0179C26.1651 11.9795 26.0114 11.9609 25.8297 11.9609C25.3957 11.9609 25.0523 12.1097 24.7968 12.4064C24.5424 12.7035 24.4142 13.1032 24.4142 13.6049C24.4142 13.9022 24.4786 14.1423 24.608 14.3263C24.7367 14.5101 24.9744 14.6014 25.3197 14.6014C25.4901 14.6014 25.6544 14.5837 25.8119 14.5492C25.9706 14.5142 26.1106 14.4703 26.2341 14.4181L26.3311 15.4585C26.1666 15.5222 25.9852 15.5796 25.7861 15.6297C25.5867 15.6783 25.3492 15.7031 25.0738 15.7031C24.7104 15.7031 24.4027 15.6505 24.1511 15.5462C23.8993 15.4403 23.6912 15.2998 23.5273 15.1218C23.3626 14.9435 23.2443 14.7351 23.1711 14.496C23.0978 14.2579 23.0607 14.0069 23.0607 13.7452H23.0607Z" fill="white"/>
<path fill-rule="evenodd" clip-rule="evenodd" d="M28.8394 15.7037C28.5288 15.7037 28.2592 15.6568 28.0305 15.5637C27.8024 15.4704 27.6135 15.3398 27.464 15.1703C27.3144 15.0016 27.2022 14.8017 27.1256 14.5715C27.0488 14.3415 27.0121 14.0865 27.0121 13.8073C27.0121 13.4568 27.0687 13.1066 27.1829 12.7572C27.2966 12.4073 27.4653 12.0929 27.6888 11.8133C27.9104 11.5332 28.1837 11.3043 28.5058 11.1258C28.8272 10.9487 29.1973 10.8595 29.6127 10.8595C29.9175 10.8595 30.186 10.9066 30.4178 10.9996C30.6485 11.0929 30.8386 11.2244 30.989 11.3931C31.1377 11.5626 31.2508 11.7617 31.3268 11.9923C31.4034 12.2219 31.4409 12.4775 31.4409 12.757C31.4409 13.1063 31.3851 13.4566 31.2744 13.8071C31.1635 14.1556 30.9992 14.4709 30.7822 14.7509C30.5656 15.0306 30.2947 15.2593 29.9693 15.4372C29.644 15.6147 29.267 15.7037 28.8394 15.7037ZM29.4895 11.9615C29.2965 11.9615 29.1261 12.0172 28.9801 12.1273C28.8336 12.2385 28.7105 12.3785 28.6113 12.5471C28.511 12.7164 28.4366 12.9017 28.3864 13.1023C28.3367 13.3038 28.3122 13.494 28.3122 13.675C28.3122 13.9667 28.3595 14.1939 28.4524 14.3575C28.5468 14.5201 28.7161 14.602 28.9625 14.602C29.1561 14.602 29.3256 14.5467 29.4725 14.4355C29.6182 14.3252 29.7412 14.1852 29.8413 14.0161C29.9409 13.8477 30.016 13.662 30.0662 13.461C30.1154 13.2601 30.1404 13.0688 30.1404 12.8883C30.1404 12.5972 30.0933 12.3696 29.9995 12.2061C29.9058 12.0431 29.7356 11.9615 29.4895 11.9615Z" fill="white"/>
<path fill-rule="evenodd" clip-rule="evenodd" d="M32.8584 15.5811H31.5565L32.6552 10.9818H33.9657L32.8584 15.5811ZM33.4903 10.422C33.3089 10.422 33.1444 10.368 32.9985 10.2604C32.8518 10.1533 32.7782 9.98836 32.7782 9.76615C32.7782 9.64393 32.8034 9.52905 32.8531 9.42108C32.9028 9.31311 32.9688 9.21983 33.051 9.14101C33.1329 9.06262 33.2288 9 33.3367 8.95271C33.4448 8.90628 33.5604 8.88318 33.6835 8.88318C33.8654 8.88318 34.0297 8.93695 34.176 9.0447C34.3225 9.15289 34.3963 9.31786 34.3963 9.53877C34.3963 9.66142 34.37 9.77674 34.3208 9.8847C34.2715 9.99267 34.2057 10.0855 34.1237 10.1648C34.0412 10.2432 33.9466 10.3056 33.8385 10.3524C33.7295 10.3995 33.6141 10.422 33.4903 10.422Z" fill="white"/>
<path fill-rule="evenodd" clip-rule="evenodd" d="M34.9026 11.1916C35.0014 11.1629 35.1116 11.1284 35.2317 11.0908C35.3521 11.0532 35.4865 11.0182 35.6367 10.9867C35.7853 10.9543 35.9529 10.9282 36.1374 10.9075C36.3219 10.8867 36.5318 10.8766 36.7655 10.8766C37.4514 10.8766 37.9246 11.0753 38.1857 11.4717C38.4463 11.8682 38.4917 12.4106 38.3222 13.098L37.724 15.5813H36.4146L36.9945 13.1502C37.0297 12.9984 37.0577 12.8516 37.0781 12.7082C37.0989 12.5663 37.0976 12.4411 37.0735 12.3327C37.0507 12.2256 36.996 12.1381 36.9116 12.0701C36.8256 12.0029 36.6959 11.9697 36.5198 11.9697C36.3503 11.9697 36.1778 11.9878 36.0015 12.0228L35.1487 15.5813H33.8389L34.9026 11.1916Z" fill="white"/>
</g>
<g clip-path="url(#clip2_1_7222)">
<path fill-rule="evenodd" clip-rule="evenodd" d="M19.5465 18.6684L19.2798 19.1502H18.9915C19.1946 18.7857 19.3928 18.4501 19.5859 18.1433C19.7791 17.8365 19.97 17.5469 20.1586 17.2744H20.4171C20.4443 17.4098 20.4692 17.5467 20.4919 17.6845C20.5146 17.8225 20.5368 17.9673 20.5586 18.1189C20.5803 18.2705 20.6012 18.4313 20.6211 18.601C20.6411 18.7706 20.6619 18.9535 20.6837 19.1504H20.4171C20.408 19.0692 20.3998 18.9876 20.3926 18.9055C20.3853 18.8234 20.3772 18.7444 20.3681 18.6686H19.5465V18.6684ZM20.3435 18.457C20.329 18.3111 20.3122 18.1656 20.2932 18.0212C20.2742 17.8769 20.2519 17.728 20.2265 17.5746C20.1631 17.6666 20.0842 17.7855 19.9898 17.9306C19.8955 18.076 19.7885 18.2513 19.6688 18.457H20.3435Z" fill="white"/>
<path fill-rule="evenodd" clip-rule="evenodd" d="M21.6478 19.1905C21.5299 19.1905 21.4261 19.1734 21.3363 19.1391C21.2465 19.1048 21.1717 19.0561 21.1119 18.9929C21.052 18.93 21.0071 18.8535 20.9772 18.7642C20.9473 18.6749 20.9323 18.5743 20.9323 18.4624C20.9323 18.3 20.9582 18.1448 21.0099 17.9969C21.0615 17.8491 21.135 17.7183 21.2302 17.6046C21.3254 17.4909 21.4402 17.4002 21.5744 17.3323C21.7086 17.2647 21.858 17.2308 22.0233 17.2308C22.1648 17.2308 22.2777 17.2453 22.362 17.2741C22.4464 17.303 22.5067 17.3301 22.5429 17.3553L22.4341 17.5719C22.3922 17.5448 22.3357 17.5191 22.2641 17.4947C22.1924 17.4706 22.1076 17.4582 22.0097 17.4582C21.8845 17.4582 21.7721 17.4875 21.6723 17.5464C21.5726 17.605 21.4882 17.6808 21.4193 17.7738C21.3504 17.8667 21.2978 17.9714 21.2615 18.0878C21.2252 18.2041 21.2071 18.3192 21.2071 18.4329C21.2071 18.7847 21.3604 18.9607 21.6669 18.9607C21.7322 18.9607 21.7907 18.956 21.8424 18.9469C21.8941 18.9381 21.9399 18.9275 21.9798 18.9158C22.0197 18.9041 22.055 18.8912 22.0859 18.8766C22.1167 18.8621 22.1439 18.8495 22.1675 18.8387L22.2001 19.066C22.1784 19.0787 22.1498 19.0922 22.1144 19.1066C22.0791 19.1211 22.0378 19.1346 21.9906 19.1475C21.9435 19.1601 21.8909 19.1705 21.8328 19.1786C21.7748 19.1867 21.7131 19.1905 21.6478 19.1905Z" fill="white"/>
<path fill-rule="evenodd" clip-rule="evenodd" d="M23.1764 19.1905C23.0585 19.1905 22.9547 19.1734 22.8649 19.1391C22.7751 19.1048 22.7003 19.0561 22.6404 18.9929C22.5806 18.93 22.5357 18.8535 22.5058 18.7642C22.4758 18.6749 22.4609 18.5743 22.4609 18.4624C22.4609 18.3 22.4867 18.1448 22.5384 17.9969C22.5901 17.8491 22.6636 17.7183 22.7588 17.6046C22.854 17.4909 22.9687 17.4002 23.103 17.3323C23.2372 17.2647 23.3866 17.2308 23.5519 17.2308C23.6933 17.2308 23.8062 17.2453 23.8906 17.2741C23.9749 17.303 24.0352 17.3301 24.0715 17.3553L23.9627 17.5719C23.9207 17.5448 23.8643 17.5191 23.7926 17.4947C23.721 17.4706 23.6362 17.4582 23.5383 17.4582C23.4131 17.4582 23.3007 17.4875 23.2009 17.5464C23.1011 17.605 23.0168 17.6808 22.9479 17.7738C22.879 17.8667 22.8264 17.9714 22.7901 18.0878C22.7538 18.2041 22.7357 18.3192 22.7357 18.4329C22.7357 18.7847 22.8889 18.9607 23.1955 18.9607C23.2607 18.9607 23.3192 18.956 23.3709 18.9469C23.4226 18.9381 23.4684 18.9275 23.5083 18.9158C23.5482 18.9041 23.5836 18.8912 23.6144 18.8766C23.6453 18.8621 23.6725 18.8495 23.6961 18.8387L23.7287 19.066C23.7069 19.0787 23.6784 19.0922 23.643 19.1066C23.6076 19.1211 23.5664 19.1346 23.5192 19.1475C23.4721 19.1601 23.4195 19.1705 23.3614 19.1786C23.3034 19.1867 23.2417 19.1905 23.1764 19.1905Z" fill="white"/>
<path fill-rule="evenodd" clip-rule="evenodd" d="M23.907 19.15L24.3586 17.2742H25.4714L25.4197 17.4934H24.5681L24.4321 18.0591H25.1884L25.1367 18.273H24.3831L24.2226 18.9307H25.1367L25.085 19.15H23.907H23.907Z" fill="white"/>
<path fill-rule="evenodd" clip-rule="evenodd" d="M26.259 17.2552C26.4784 17.2552 26.6439 17.2968 26.7555 17.3798C26.867 17.4628 26.9228 17.5837 26.9228 17.7425C26.9228 17.8652 26.8997 17.9714 26.8534 18.0605C26.8072 18.1498 26.7414 18.2234 26.6562 18.2813C26.5709 18.3391 26.4684 18.3817 26.3487 18.4097C26.229 18.4377 26.0957 18.4519 25.9488 18.4519H25.7611L25.5924 19.1502H25.3285L25.7747 17.2988C25.8509 17.2807 25.9316 17.269 26.0168 17.2636C26.1021 17.258 26.1828 17.2552 26.259 17.2552ZM26.2264 17.4773C26.0976 17.4773 26.0197 17.4809 25.9924 17.4881L25.8129 18.2325H25.9843C26.0605 18.2325 26.1385 18.2259 26.2183 18.2122C26.2981 18.1986 26.3697 18.1747 26.4332 18.1407C26.4967 18.1064 26.5488 18.059 26.5896 17.9983C26.6304 17.9379 26.6508 17.8601 26.6508 17.7644C26.6508 17.6616 26.6128 17.588 26.5366 17.5436C26.4604 17.4994 26.357 17.4773 26.2264 17.4773Z" fill="white"/>
<path fill-rule="evenodd" clip-rule="evenodd" d="M28.5322 17.2742L28.4805 17.4934H27.9119L27.512 19.15H27.2481L27.648 17.4934H27.0794L27.1311 17.2742H28.5322Z" fill="white"/>
<path fill-rule="evenodd" clip-rule="evenodd" d="M28.2875 19.15L28.7391 17.2742H29.8519L29.8002 17.4934H28.9486L28.8126 18.0591H29.5689L29.5172 18.273H28.7636L28.6031 18.9307H29.5172L29.4655 19.15H28.2875H28.2875Z" fill="white"/>
<path fill-rule="evenodd" clip-rule="evenodd" d="M30.6354 17.2552C30.9147 17.2552 31.1233 17.3207 31.2611 17.4515C31.399 17.5823 31.4679 17.7587 31.4679 17.9807C31.4679 18.1359 31.4434 18.2852 31.3944 18.4284C31.3455 18.5721 31.2693 18.6986 31.1659 18.8089C31.0625 18.9188 30.9306 19.0065 30.7701 19.0715C30.6095 19.1365 30.4177 19.1689 30.1946 19.1689C30.1185 19.1689 30.0359 19.1653 29.9471 19.1581C29.8582 19.1509 29.7802 19.1383 29.7131 19.1202L30.1511 17.2986C30.2273 17.2805 30.308 17.2688 30.3932 17.2634C30.4785 17.258 30.5592 17.2552 30.6354 17.2552ZM30.6136 17.4773C30.4776 17.4773 30.396 17.4809 30.3688 17.4881L30.0205 18.9335C30.035 18.9371 30.0595 18.9403 30.094 18.943C30.1284 18.9457 30.1847 18.947 30.2627 18.947C30.4059 18.947 30.5352 18.9234 30.6503 18.8755C30.7655 18.8277 30.863 18.761 30.9428 18.675C31.0226 18.5893 31.0843 18.4876 31.1278 18.3694C31.1714 18.2512 31.1931 18.1217 31.1931 17.981C31.1931 17.8222 31.1469 17.6985 31.0544 17.6099C30.9619 17.5217 30.8149 17.4773 30.6136 17.4773Z" fill="white"/>
<path fill-rule="evenodd" clip-rule="evenodd" d="M33.5003 19.15H33.2364L33.4458 18.2784H32.5725L32.363 19.15H32.0991L32.5508 17.2742H32.8147L32.6242 18.0591H33.4978L33.6882 17.2742H33.9521L33.5003 19.15Z" fill="white"/>
<path fill-rule="evenodd" clip-rule="evenodd" d="M33.9164 19.15L34.368 17.2742H35.4808L35.4288 17.4934H34.5773L34.4412 18.0591H35.1976L35.1457 18.273H34.392L34.2318 18.9307H35.1457L35.0937 19.15H33.9164H33.9164Z" fill="white"/>
<path fill-rule="evenodd" clip-rule="evenodd" d="M36.2685 17.2552C36.4699 17.2552 36.6295 17.2959 36.7474 17.3771C36.8653 17.4583 36.924 17.5774 36.924 17.7341C36.924 17.8929 36.8775 18.0262 36.7841 18.1336C36.6907 18.241 36.5597 18.3181 36.391 18.3648C36.4127 18.4029 36.4381 18.4512 36.4671 18.5098C36.4962 18.5685 36.5261 18.6334 36.5569 18.7047C36.5875 18.7758 36.6177 18.85 36.6467 18.9265C36.6757 19.0034 36.7009 19.0776 36.7229 19.1498H36.4535C36.4284 19.0812 36.4019 19.0117 36.3746 18.9413C36.3477 18.871 36.3198 18.8033 36.2919 18.7383C36.2636 18.6734 36.2357 18.6125 36.2073 18.5556C36.1794 18.4988 36.1534 18.4485 36.1298 18.4054C36.1062 18.4072 36.0826 18.4086 36.059 18.4095C36.0355 18.4104 36.0121 18.4108 35.9883 18.4108H35.7788L35.602 19.1498H35.3381L35.7845 17.2983C35.8607 17.2803 35.9412 17.2686 36.0266 17.2631C36.1116 17.258 36.1924 17.2552 36.2685 17.2552ZM36.236 17.4773C36.1072 17.4773 36.0292 17.4809 36.0018 17.4881L35.8303 18.1975H35.9911C36.0655 18.1975 36.1416 18.1921 36.2196 18.1813C36.2976 18.1704 36.3688 18.1492 36.433 18.1176C36.4974 18.0861 36.55 18.0419 36.5908 17.985C36.6316 17.9282 36.6522 17.8528 36.6522 17.759C36.6522 17.6579 36.6137 17.5858 36.5366 17.5425C36.4595 17.4989 36.3591 17.4773 36.236 17.4773Z" fill="white"/>
<path fill-rule="evenodd" clip-rule="evenodd" d="M36.9442 19.15L37.3958 17.2742H38.5085L38.4566 17.4934H37.605L37.469 18.0591H38.2254L38.1734 18.273H37.4198L37.2595 18.9307H38.1734L38.1215 19.15H36.9442H36.9442Z" fill="white"/>
</g>
<path fill-rule="evenodd" clip-rule="evenodd" d="M8.46016 15.8984C10.4533 15.8984 12.0691 14.2909 12.0691 12.3079C12.0691 10.3249 10.4533 8.71741 8.46016 8.71741C6.46702 8.71741 4.85126 10.3249 4.85126 12.3079C4.85126 14.2909 6.46702 15.8984 8.46016 15.8984ZM9.25729 10.8898C9.75731 11.0613 10.1231 11.3181 10.0513 11.796C9.9992 12.146 9.80425 12.3153 9.54521 12.3745C9.90059 12.5586 10.0816 12.8408 9.90917 13.3304C9.69549 13.9383 9.18757 13.9895 8.512 13.8625L8.34796 14.516L7.95196 14.4176L8.11374 13.7729C8.01108 13.7475 7.90615 13.7204 7.79807 13.6914L7.63561 14.3393L7.24006 14.241L7.40388 13.5861C7.36902 13.5772 7.3339 13.5681 7.29852 13.5589L7.29839 13.5589C7.24016 13.5437 7.18123 13.5284 7.1216 13.5136L6.60624 13.3859L6.803 12.9346C6.803 12.9346 7.09497 13.0116 7.09091 13.006C7.20306 13.0336 7.25292 12.9609 7.27255 12.9126L7.53159 11.8791L7.53736 11.8805C7.54994 11.8836 7.562 11.8865 7.57356 11.8896C7.55754 11.8829 7.54332 11.8791 7.53227 11.8764L7.71707 11.1389C7.72203 11.0552 7.69292 10.9497 7.53249 10.9097C7.53858 10.9055 7.2448 10.8386 7.2448 10.8386L7.35017 10.4177L7.89645 10.5533L7.896 10.5553C7.97813 10.5757 8.06275 10.595 8.14894 10.6145L8.31141 9.96711L8.70718 10.0654L8.5481 10.7001C8.6546 10.7241 8.76156 10.7486 8.86558 10.7744L9.02353 10.1438L9.41953 10.2421L9.25729 10.8898ZM9.14631 13.0588C9.03387 13.5079 8.32725 13.322 8.00416 13.237L8.00415 13.237C7.97517 13.2294 7.94928 13.2226 7.92717 13.2171L8.14469 12.3497C8.17167 12.3564 8.20464 12.3637 8.24199 12.3721C8.57628 12.4467 9.26139 12.5996 9.14631 13.0588ZM8.3099 11.9698C8.57966 12.0412 9.16664 12.1967 9.26895 11.7891C9.37332 11.3721 8.80305 11.2462 8.52383 11.1845C8.49219 11.1775 8.46428 11.1714 8.44152 11.1657L8.24431 11.9528C8.2631 11.9574 8.28517 11.9633 8.3099 11.9698Z" fill="white"/>
</g>
<defs>
<clipPath id="clip0_1_7222">
<rect width="44" height="26.4" fill="white" transform="translate(0 0.348022)"/>
</clipPath>
<clipPath id="clip1_1_7222">
<rect width="27.28" height="7.48" fill="white" transform="translate(12.1989 8.59961)"/>
</clipPath>
<clipPath id="clip2_1_7222">
<rect width="19.8" height="2.2" fill="white" transform="translate(18.7086 17.1302)"/>
</clipPath>
</defs>
</svg>
