<svg width="44" height="27" viewBox="0 0 44 27" fill="none" xmlns="http://www.w3.org/2000/svg">
<g clip-path="url(#clip0_1_7111)">
<rect y="0.348022" width="44" height="26.4" rx="4" fill="#0069AA"/>
<path fill-rule="evenodd" clip-rule="evenodd" d="M8.60114 16.1806C8.60114 15.6496 8.32373 15.6845 8.05835 15.6789V15.5254C8.28846 15.5366 8.5244 15.5366 8.75511 15.5366C9.00298 15.5366 9.3395 15.5254 9.77673 15.5254C11.3057 15.5254 12.1386 16.5464 12.1386 17.592C12.1386 18.1771 11.7961 19.647 9.7057 19.647C9.40481 19.647 9.12691 19.6353 8.84949 19.6353C8.58399 19.6353 8.32373 19.6408 8.05835 19.647V19.4934C8.41227 19.4576 8.58399 19.4461 8.60114 19.0446V16.1806ZM9.17976 18.9498C9.17976 19.4047 9.50486 19.4576 9.79407 19.4576C11.0699 19.4576 11.4885 18.4953 11.4885 17.6157C11.4885 16.5115 10.78 15.7145 9.64058 15.7145C9.39795 15.7145 9.2863 15.7318 9.17976 15.7381V18.9498Z" fill="white"/>
<path fill-rule="evenodd" clip-rule="evenodd" d="M12.3454 19.4934H12.4573C12.6226 19.4934 12.7408 19.4934 12.7408 19.298V17.698C12.7408 17.4386 12.6524 17.4027 12.4336 17.285V17.1907C12.7111 17.1073 13.042 16.9959 13.0654 16.9781C13.107 16.9544 13.1419 16.9481 13.1719 16.9481C13.2009 16.9481 13.213 16.9836 13.213 17.0313V19.298C13.213 19.4934 13.3432 19.4934 13.5087 19.4934H13.6087V19.647C13.4079 19.647 13.2009 19.6353 12.989 19.6353C12.7764 19.6353 12.5637 19.6408 12.3454 19.647V19.4934ZM12.9771 16.0391C12.8233 16.0391 12.6878 15.8974 12.6878 15.7439C12.6878 15.5961 12.8297 15.46 12.9771 15.46C13.1303 15.46 13.2666 15.5844 13.2666 15.7439C13.2666 15.9036 13.1363 16.0391 12.9771 16.0391Z" fill="white"/>
<path fill-rule="evenodd" clip-rule="evenodd" d="M14.1698 17.7335C14.1698 17.5155 14.1046 17.4565 13.8276 17.3441V17.232C14.081 17.1494 14.3229 17.0723 14.6067 16.9481C14.6246 16.9481 14.6417 16.9599 14.6417 17.0071V17.3911C14.9788 17.1494 15.2682 16.9481 15.6644 16.9481C16.1656 16.9481 16.3427 17.3143 16.3427 17.7749V19.2981C16.3427 19.4934 16.473 19.4934 16.6381 19.4934H16.7447V19.647C16.5373 19.647 16.3309 19.6353 16.1186 19.6353C15.9058 19.6353 15.6931 19.6408 15.4805 19.647V19.4934H15.5871C15.7525 19.4934 15.8701 19.4934 15.8701 19.2981V17.7694C15.8701 17.4324 15.6644 17.2673 15.3274 17.2673C15.1383 17.2673 14.8372 17.4205 14.6417 17.551V19.2981C14.6417 19.4934 14.7722 19.4934 14.9376 19.4934H15.0437V19.647C14.8372 19.647 14.6304 19.6353 14.4174 19.6353C14.2053 19.6353 13.9925 19.6408 13.7802 19.647V19.4934H13.8867C14.0519 19.4934 14.1698 19.4934 14.1698 19.2981V17.7335Z" fill="white"/>
<path fill-rule="evenodd" clip-rule="evenodd" d="M17.1934 18.0174C17.1813 18.0706 17.1813 18.159 17.1934 18.3599C17.2282 18.9207 17.5891 19.381 18.061 19.381C18.3862 19.381 18.6403 19.2038 18.8584 18.9858L18.9408 19.0685C18.6691 19.4286 18.3327 19.7358 17.8489 19.7358C16.9098 19.7358 16.7209 18.8259 16.7209 18.4483C16.7209 17.2908 17.5001 16.9481 17.913 16.9481C18.3918 16.9481 18.9059 17.2493 18.9114 17.8754C18.9114 17.9112 18.9114 17.9463 18.9059 17.9818L18.8525 18.0174H17.1934ZM18.239 17.8283C18.3863 17.8283 18.4036 17.7514 18.4036 17.6803C18.4036 17.3796 18.2206 17.1375 17.8898 17.1375C17.53 17.1375 17.2819 17.4027 17.2111 17.8283H18.239Z" fill="white"/>
<path fill-rule="evenodd" clip-rule="evenodd" d="M19.0476 19.4934H19.2072C19.3718 19.4934 19.4901 19.4934 19.4901 19.2981V17.6392C19.4901 17.4565 19.2718 17.4205 19.1831 17.3733V17.285C19.6141 17.1018 19.8504 16.9481 19.9044 16.9481C19.939 16.9481 19.9567 16.9659 19.9567 17.0252V17.5567H19.9691C20.1163 17.3265 20.3648 16.9481 20.7248 16.9481C20.8723 16.9481 21.061 17.0485 21.061 17.2612C21.061 17.4205 20.9494 17.5629 20.7841 17.5629C20.6005 17.5629 20.6005 17.4205 20.3936 17.4205C20.2934 17.4205 19.9627 17.5567 19.9627 17.9112V19.2981C19.9627 19.4934 20.0807 19.4934 20.2461 19.4934H20.5764V19.647C20.2517 19.6408 20.0045 19.6353 19.7503 19.6353C19.5082 19.6353 19.2601 19.6408 19.0476 19.647V19.4934Z" fill="white"/>
<path fill-rule="evenodd" clip-rule="evenodd" d="M21.3206 18.8259C21.3976 19.2156 21.6333 19.5468 22.0652 19.5468C22.413 19.5468 22.5428 19.334 22.5428 19.1274C22.5428 18.4303 21.2559 18.6549 21.2559 17.7044C21.2559 17.3733 21.5218 16.9482 22.1713 16.9482C22.36 16.9482 22.6138 17.0018 22.8439 17.12L22.8854 17.7217H22.7496C22.6906 17.35 22.4843 17.1375 22.1059 17.1375C21.8697 17.1375 21.6456 17.2731 21.6456 17.527C21.6456 18.2183 23.0151 18.0054 23.0151 18.9325C23.0151 19.3219 22.7026 19.7358 21.9996 19.7358C21.7637 19.7358 21.4856 19.653 21.2796 19.5349L21.2143 18.8557L21.3206 18.8259Z" fill="white"/>
<path fill-rule="evenodd" clip-rule="evenodd" d="M28.3472 16.5939H28.1999C28.0875 15.9037 27.5974 15.6258 26.9365 15.6258C26.2567 15.6258 25.2709 16.0801 25.2709 17.4973C25.2709 18.6905 26.1215 19.5468 27.0307 19.5468C27.6147 19.5468 28.0999 19.1451 28.2178 18.5247L28.3536 18.56L28.2178 19.4224C27.9698 19.5761 27.3024 19.7358 26.9122 19.7358C25.5311 19.7358 24.6572 18.844 24.6572 17.5155C24.6572 16.3047 25.7378 15.4364 26.8952 15.4364C27.3733 15.4364 27.8337 15.5904 28.2885 15.7499L28.3472 16.5939Z" fill="white"/>
<path fill-rule="evenodd" clip-rule="evenodd" d="M28.5604 19.4934H28.6721C28.838 19.4934 28.9559 19.4934 28.9559 19.2981V16.0099C28.9559 15.6257 28.8675 15.6141 28.6428 15.549V15.4544C28.8789 15.3778 29.1271 15.2717 29.2514 15.2003C29.3155 15.1654 29.3632 15.1353 29.3806 15.1353C29.4167 15.1353 29.4284 15.1711 29.4284 15.2186V19.2981C29.4284 19.4934 29.5584 19.4934 29.7235 19.4934H29.8235V19.647C29.6233 19.647 29.4167 19.6353 29.204 19.6353C28.9915 19.6353 28.7792 19.6408 28.5604 19.647V19.4934Z" fill="white"/>
<path fill-rule="evenodd" clip-rule="evenodd" d="M32.3516 19.3219C32.3516 19.4285 32.4162 19.4341 32.5163 19.4341C32.5876 19.4341 32.6757 19.4285 32.7531 19.4285V19.5528C32.499 19.5762 32.0146 19.7002 31.9022 19.7357L31.8728 19.7177V19.2394C31.5189 19.5286 31.2469 19.7357 30.8271 19.7357C30.5083 19.7357 30.1779 19.5286 30.1779 19.0333V17.5212C30.1779 17.3674 30.1544 17.2198 29.8242 17.1907V17.0782C30.0369 17.0724 30.5083 17.0371 30.5853 17.0371C30.6509 17.0371 30.6509 17.0782 30.6509 17.2084V18.7316C30.6509 18.909 30.6509 19.4163 31.1645 19.4163C31.3649 19.4163 31.6306 19.2631 31.8785 19.0567V17.4679C31.8785 17.3499 31.5953 17.285 31.383 17.2262V17.1201C31.9139 17.0841 32.245 17.0371 32.3039 17.0371C32.3516 17.0371 32.3516 17.0782 32.3516 17.1434V19.3219Z" fill="white"/>
<path fill-rule="evenodd" clip-rule="evenodd" d="M33.5264 17.3733C33.7625 17.173 34.0815 16.9481 34.4062 16.9481C35.0913 16.9481 35.5047 17.5452 35.5047 18.1887C35.5047 18.9619 34.9376 19.7358 34.0928 19.7358C33.6563 19.7358 33.4259 19.5936 33.2721 19.5287L33.0955 19.6645L32.9717 19.5998C33.0245 19.2515 33.0543 18.909 33.0543 18.5487V16.0099C33.0543 15.6257 32.9654 15.6141 32.741 15.549V15.4544C32.9774 15.3778 33.2251 15.2717 33.3491 15.2003C33.4143 15.1654 33.4613 15.1353 33.4793 15.1353C33.5145 15.1353 33.5264 15.1713 33.5264 15.2186V17.3733ZM33.5263 18.9795C33.5263 19.2038 33.7391 19.5821 34.1346 19.5821C34.7663 19.5821 35.0319 18.9619 35.0319 18.4361C35.0319 17.7986 34.5482 17.2672 34.0877 17.2672C33.8683 17.2672 33.6857 17.4092 33.5263 17.5451V18.9795Z" fill="white"/>
<path fill-rule="evenodd" clip-rule="evenodd" d="M8.05176 23.0803H8.09688C8.21242 23.0803 8.33453 23.0645 8.33453 22.8973V21.2141C8.33453 21.0466 8.21242 21.0306 8.09688 21.0306H8.05176V20.9341C8.17703 20.9341 8.3698 20.9469 8.52766 20.9469C8.6882 20.9469 8.88072 20.9341 9.03178 20.9341V21.0306H8.98641C8.87136 21.0306 8.74901 21.0466 8.74901 21.2141V22.8973C8.74901 23.0645 8.87136 23.0803 8.98641 23.0803H9.03178V23.1769C8.87768 23.1769 8.68443 23.1645 8.52438 23.1645C8.36663 23.1645 8.17703 23.1769 8.05176 23.1769V23.0803Z" fill="white"/>
<path fill-rule="evenodd" clip-rule="evenodd" d="M9.03173 23.1906C8.8763 23.1906 8.68401 23.1777 8.52408 23.1777C8.36683 23.1777 8.17783 23.1906 8.05171 23.1906H8.03772V23.0664H8.09658C8.21322 23.0636 8.31927 23.0542 8.32024 22.8972V21.214C8.31927 21.0567 8.21322 21.0465 8.09658 21.0445H8.03772V20.92H8.05171C8.17783 20.92 8.37047 20.9326 8.52761 20.9326C8.68742 20.9326 8.87982 20.92 9.03173 20.92H9.04608V21.0445H8.98697C8.87021 21.0465 8.76355 21.0567 8.76294 21.214V22.8972C8.76355 23.0542 8.87021 23.0636 8.98697 23.0664H9.04608V23.1906H9.03173ZM9.0178 23.1631L9.01792 23.0947H8.98691C8.87198 23.0947 8.7354 23.0745 8.73467 22.8972V21.214C8.7354 21.0363 8.87198 21.0165 8.98691 21.0165H9.0178V20.9479C8.86954 20.948 8.68334 20.9609 8.52755 20.9609C8.37491 20.9609 8.19017 20.9489 8.06575 20.9479V21.0165H8.09652C8.21109 21.0165 8.34791 21.0363 8.34791 21.214V22.8972C8.34791 23.0745 8.21109 23.0947 8.09652 23.0947H8.06575V23.1631C8.19017 23.162 8.37163 23.1502 8.52402 23.1502C8.68054 23.1502 8.86626 23.1622 9.0178 23.1631Z" fill="white"/>
<path fill-rule="evenodd" clip-rule="evenodd" d="M11.2391 22.5436L11.2456 22.5373V21.3328C11.2456 21.0691 11.0622 21.0305 10.9658 21.0305H10.8951V20.9341C11.0463 20.9341 11.1941 20.9469 11.3449 20.9469C11.4766 20.9469 11.609 20.9341 11.7402 20.9341V21.0305H11.6924C11.557 21.0305 11.406 21.0562 11.406 21.4386V22.9004C11.406 23.0131 11.4091 23.1254 11.425 23.2252H11.3028L9.64844 21.3806V22.7046C9.64844 22.9844 9.7028 23.0803 9.95018 23.0803H10.0049V23.1769C9.86675 23.1769 9.72871 23.1644 9.59055 23.1644C9.44631 23.1644 9.29829 23.1769 9.15356 23.1769V23.0803H9.19869C9.42028 23.0803 9.48778 22.9293 9.48778 22.673V21.3193C9.48778 21.1395 9.33952 21.0305 9.19552 21.0305H9.15356V20.9341C9.27543 20.9341 9.40094 20.9469 9.5228 20.9469C9.61949 20.9469 9.71265 20.9341 9.80898 20.9341L11.2391 22.5436Z" fill="white"/>
<path fill-rule="evenodd" clip-rule="evenodd" d="M11.4248 23.2386L11.2925 23.2341L9.66195 21.4167V22.7046C9.66584 22.9839 9.70828 23.0634 9.95019 23.0664H10.019V23.1906H10.0048C9.86578 23.1906 9.7275 23.1777 9.59043 23.1777C9.44656 23.1777 9.29891 23.1906 9.15333 23.1906H9.13922V23.0664H9.19857C9.41092 23.0652 9.47161 22.9287 9.47392 22.6728V21.3197C9.47331 21.1486 9.33296 21.0445 9.19553 21.0445H9.13922V20.92H9.15333C9.27617 20.92 9.40192 20.9326 9.52245 20.9326C9.61828 20.9326 9.71108 20.92 9.81945 20.925L11.2315 22.5145V21.3327C11.2299 21.0775 11.0594 21.0465 10.9658 21.0445H10.8808V20.92H10.8951C11.0468 20.92 11.1947 20.9326 11.3448 20.9326C11.4756 20.9326 11.6073 20.92 11.7401 20.92H11.7542V21.0445H11.6923C11.5596 21.0479 11.4235 21.0595 11.4196 21.4385V22.9004C11.4196 23.0129 11.4231 23.125 11.4386 23.2226L11.4415 23.2386H11.4248ZM11.3029 23.2106H11.4092C11.3948 23.114 11.3922 23.0073 11.3922 22.9004V21.4385C11.3922 21.0528 11.5539 21.0165 11.6923 21.0162H11.7261V20.9479C11.5995 20.9489 11.4726 20.9605 11.3448 20.9605C11.1977 20.9605 11.0546 20.9489 10.9094 20.9479L10.909 21.0162H10.9658C11.0646 21.0165 11.2593 21.0604 11.2593 21.3327L11.2551 22.5473L11.2487 22.5535L11.2378 22.5639L9.80887 20.9479C9.7134 20.9479 9.62048 20.9605 9.52245 20.9605C9.40472 20.9605 9.28408 20.9489 9.16756 20.9479L9.16695 21.0162H9.19554C9.34622 21.0165 9.50129 21.1315 9.50129 21.3197V22.6728C9.50129 22.9299 9.42966 23.0941 9.19858 23.095L9.16756 23.0941V23.1631C9.3067 23.162 9.45009 23.1502 9.59044 23.1502C9.72446 23.1502 9.85825 23.162 9.99081 23.1631V23.095H9.95019C9.69734 23.0941 9.63471 22.9839 9.63446 22.7046V21.3445L11.3029 23.2106ZM11.2391 22.5435L11.2492 22.5343L11.2391 22.5435ZM11.2314 22.5372V22.536L11.2289 22.5339L11.2314 22.5372Z" fill="white"/>
<path fill-rule="evenodd" clip-rule="evenodd" d="M12.2216 21.0947C11.9803 21.0947 11.971 21.1529 11.9228 21.3871H11.8264C11.839 21.2971 11.8549 21.2072 11.8649 21.1141C11.8778 21.0237 11.8842 20.9341 11.8842 20.8412H11.9612C11.9871 20.9376 12.0674 20.9341 12.1546 20.9341H13.8118C13.899 20.9341 13.9792 20.9309 13.9857 20.8345L14.0625 20.8476C14.0501 20.9341 14.0369 21.0209 14.0276 21.1079C14.0212 21.1946 14.0212 21.2811 14.0212 21.3678L13.9247 21.4035C13.9181 21.2848 13.9022 21.0947 13.6869 21.0947H13.1599V22.8041C13.1599 23.052 13.2725 23.0803 13.4265 23.0803H13.4878V23.1769C13.3624 23.1769 13.1374 23.1645 12.9642 23.1645C12.7712 23.1645 12.5461 23.1769 12.4207 23.1769V23.0803H12.482C12.6591 23.0803 12.7486 23.0645 12.7486 22.8108V21.0947H12.2216Z" fill="white"/>
<path fill-rule="evenodd" clip-rule="evenodd" d="M13.4879 23.1907C13.3613 23.1907 13.1366 23.1779 12.9641 23.1779C12.7713 23.1779 12.5466 23.1907 12.4206 23.1907H12.4069V23.0665H12.4819C12.659 23.0624 12.7301 23.0601 12.7341 22.8109V21.1085H12.2215V21.0805H12.762V22.8109C12.762 23.0688 12.658 23.0949 12.4819 23.0951H12.4343V23.163C12.5611 23.1621 12.7776 23.1503 12.9641 23.1503C13.1313 23.1503 13.346 23.1621 13.4733 23.163V23.0951H13.4264C13.271 23.0949 13.1459 23.0567 13.1459 22.8042V21.0805H13.6868C13.9023 21.0813 13.9309 21.2645 13.9376 21.384L14.0071 21.3584C14.0071 21.2744 14.0075 21.1904 14.0132 21.106C14.0227 21.0229 14.0344 20.9413 14.0464 20.859L13.9976 20.8508C13.9827 20.9444 13.8921 20.9493 13.8116 20.9481H12.1377C12.0621 20.9482 11.9797 20.9446 11.9508 20.855H11.8977C11.8973 20.9437 11.8912 21.03 11.879 21.1156C11.8694 21.2039 11.8547 21.2887 11.843 21.3738H11.9116C11.9538 21.1497 11.9813 21.0773 12.2215 21.0805V21.1085C11.9835 21.1133 11.9887 21.1531 11.9363 21.3905L11.934 21.4014H11.8102L11.8119 21.3847C11.825 21.2951 11.8413 21.2049 11.8507 21.1116C11.8641 21.0224 11.8701 20.9333 11.8701 20.8412V20.827H11.9722L11.9746 20.8371C11.9963 20.9181 12.0557 20.9187 12.1377 20.9202H13.8116C13.9011 20.9187 13.9663 20.9175 13.9717 20.8334L13.9728 20.8182L13.9874 20.8212L14.0783 20.8355L14.076 20.8497C14.0632 20.936 14.0507 21.0224 14.0409 21.1085C14.035 21.1947 14.035 21.281 14.035 21.3678V21.3776L14.0256 21.3813L13.9119 21.4229L13.9112 21.4043C13.9023 21.2834 13.8899 21.1085 13.6868 21.1085H13.1739V22.8042C13.1771 23.0464 13.2732 23.0635 13.4264 23.0665H13.5016V23.1907H13.4879Z" fill="white"/>
<path fill-rule="evenodd" clip-rule="evenodd" d="M14.1651 23.0803H14.2103C14.3256 23.0803 14.4481 23.0645 14.4481 22.8973V21.2141C14.4481 21.0466 14.3256 21.0306 14.2103 21.0306H14.1651V20.9341C14.3604 20.9341 14.6954 20.9469 14.9648 20.9469C15.2351 20.9469 15.5688 20.9341 15.7873 20.9341C15.7817 21.0722 15.7847 21.2848 15.7942 21.4259L15.6974 21.4515C15.682 21.2425 15.6434 21.0759 15.3059 21.0759H14.8598V21.9171H15.2414C15.4342 21.9171 15.4762 21.8083 15.4953 21.6346H15.5916C15.5851 21.7601 15.5817 21.8854 15.5817 22.0105C15.5817 22.1329 15.5851 22.2549 15.5916 22.3767L15.4953 22.396C15.4762 22.2034 15.4666 22.0782 15.2446 22.0782H14.8598V22.8264C14.8598 23.0356 15.0454 23.0356 15.2512 23.0356C15.6368 23.0356 15.807 23.0097 15.9034 22.6438L15.9931 22.666C15.9513 22.8366 15.913 23.0064 15.8842 23.1769C15.6783 23.1769 15.3088 23.1645 15.0202 23.1645C14.7304 23.1645 14.3484 23.1769 14.1651 23.1769V23.0803Z" fill="white"/>
<path fill-rule="evenodd" clip-rule="evenodd" d="M15.884 23.1906C15.6779 23.1906 15.3082 23.1772 15.0199 23.1772C14.7305 23.1772 14.3486 23.1906 14.1651 23.1906H14.1516V23.0664H14.2103C14.3266 23.0645 14.4324 23.0542 14.4338 22.8972V21.214C14.4324 21.057 14.3266 21.0465 14.2103 21.0445H14.1516V20.92H14.1651C14.3613 20.92 14.6956 20.9326 14.9648 20.9326C15.2349 20.9326 15.5686 20.92 15.7873 20.92H15.8016L15.8011 20.9349C15.799 20.9829 15.7977 21.0401 15.7977 21.1005C15.7977 21.2116 15.8011 21.3333 15.8074 21.4248L15.808 21.4362L15.7972 21.4395L15.6842 21.469L15.6837 21.4525C15.6648 21.244 15.6368 21.0924 15.306 21.0892H14.8729L14.8726 21.903H15.2414C15.4266 21.901 15.4597 21.8064 15.4816 21.6331L15.4823 21.6202H15.6059L15.6056 21.6349C15.5994 21.7604 15.5957 21.8853 15.5957 22.0105C15.5957 22.132 15.5994 22.254 15.6056 22.3761L15.6059 22.3878L15.5942 22.3904L15.4823 22.4127L15.4816 22.3976C15.4593 22.2014 15.4579 22.0939 15.2447 22.0916H14.8729V22.8263C14.8734 23.0216 15.0417 23.0206 15.2511 23.0216C15.638 23.0193 15.7929 23.0004 15.8898 22.64L15.893 22.627L15.9065 22.6292L16.0095 22.6559L16.0066 22.6692C15.9649 22.8392 15.9266 23.0091 15.8975 23.1791L15.8951 23.1906H15.884ZM15.8722 23.1628C15.9003 23.0004 15.9369 22.8381 15.9763 22.6764L15.913 22.6604C15.8168 23.0198 15.6304 23.0519 15.2512 23.0495C15.0487 23.0495 14.8463 23.0495 14.8452 22.8263V22.0641H15.2447C15.4691 22.0618 15.4917 22.1971 15.5078 22.3798L15.5771 22.3656C15.5709 22.2472 15.5677 22.1282 15.5677 22.0105C15.5677 21.8898 15.5709 21.7694 15.5771 21.6482H15.5078C15.4897 21.816 15.4372 21.9331 15.2414 21.9311H14.8452V21.0614H15.306C15.6401 21.0587 15.6954 21.2316 15.71 21.4338L15.7792 21.4149C15.7736 21.3243 15.7699 21.2078 15.7699 21.1005C15.7699 21.0455 15.7713 20.9934 15.7732 20.9479C15.5549 20.9489 15.229 20.9605 14.9649 20.9605C14.7008 20.9605 14.3759 20.9489 14.1792 20.9479V21.0162H14.2103C14.3247 21.0165 14.4614 21.0363 14.4621 21.214V22.8972C14.4614 23.0745 14.3247 23.0941 14.2103 23.095H14.1792V23.1628C14.3663 23.1622 14.7377 23.1502 15.02 23.1502C15.3036 23.1502 15.665 23.1622 15.8722 23.1628Z" fill="white"/>
<path fill-rule="evenodd" clip-rule="evenodd" d="M16.427 21.2744C16.427 21.0401 16.2984 21.0305 16.1986 21.0305H16.1406V20.9341C16.2435 20.9341 16.4427 20.9469 16.6389 20.9469C16.8313 20.9469 16.9858 20.9341 17.156 20.9341C17.5603 20.9341 17.9209 21.0432 17.9209 21.4997C17.9209 21.7887 17.728 21.9652 17.4743 22.0654L18.0234 22.8874C18.1137 23.0234 18.1774 23.0615 18.3353 23.0803V23.1769C18.229 23.1769 18.1262 23.1645 18.0205 23.1645C17.9209 23.1645 17.8177 23.1769 17.7185 23.1769C17.4709 22.8525 17.2587 22.5057 17.05 22.1356H16.8382V22.8236C16.8382 23.071 16.9537 23.0803 17.1009 23.0803H17.1592V23.1769C16.9757 23.1769 16.7901 23.1645 16.6066 23.1645C16.4523 23.1645 16.3013 23.1769 16.1406 23.1769V23.0803H16.1986C16.3179 23.0803 16.427 23.026 16.427 22.9073V21.2744ZM16.8382 22.0197H16.9952C17.3169 22.0197 17.4901 21.8979 17.4901 21.5186C17.4901 21.2329 17.3069 21.0498 17.0206 21.0498C16.9242 21.0498 16.8831 21.0596 16.8382 21.0628V22.0197Z" fill="white"/>
<path fill-rule="evenodd" clip-rule="evenodd" d="M18.3352 23.1906C18.2275 23.1906 18.1253 23.1777 18.0196 23.1777C17.9217 23.1777 17.8189 23.1906 17.707 23.1852C17.4605 22.8617 17.2493 22.5168 17.0418 22.15H16.8519V22.8229C16.8555 23.0648 16.9524 23.063 17.1009 23.0664H17.173V23.1906H17.1588C16.9751 23.1906 16.7884 23.1777 16.6064 23.1777C16.4529 23.1777 16.302 23.1906 16.1406 23.1906H16.1266V23.0664H16.1986C16.3141 23.0656 16.4118 23.0152 16.4123 22.9072V21.2743C16.4098 21.0465 16.2983 21.0476 16.1986 21.0445H16.1266V20.92H16.1406C16.2446 20.92 16.4429 20.9326 16.6389 20.9326C16.8306 20.9326 16.9847 20.92 17.156 20.92C17.5611 20.9209 17.9339 21.0324 17.9348 21.4992C17.9348 21.7891 17.7432 21.9704 17.4954 22.0714L18.0349 22.8797C18.1248 23.013 18.1808 23.0463 18.337 23.0664L18.3487 23.0682V23.1906H18.3352ZM16.8381 22.1216H17.0576L17.0616 22.1288C17.2708 22.4979 17.4819 22.8449 17.7185 23.1631C17.8163 23.1631 17.9195 23.1502 18.0196 23.1502C18.1221 23.1502 18.2214 23.1614 18.3211 23.1628V23.0923C18.1705 23.0739 18.0998 23.0285 18.0121 22.8953L17.4527 22.0589L17.4686 22.0524C17.7202 21.9533 17.9066 21.7817 17.9068 21.4992C17.9066 21.0535 17.5599 20.9501 17.156 20.9479C16.9868 20.9479 16.8324 20.9609 16.6389 20.9609C16.4501 20.9609 16.2594 20.9489 16.1543 20.9479V21.0162H16.1986C16.2983 21.0165 16.4403 21.033 16.4403 21.2743V22.9072C16.4403 23.0361 16.3195 23.0947 16.1986 23.095H16.1543V23.1628C16.3088 23.1622 16.4555 23.1502 16.6064 23.1502C16.7858 23.1502 16.9672 23.1622 17.1449 23.1628V23.095H17.1009C16.9546 23.0947 16.8238 23.0766 16.8238 22.8229V22.1216H16.8381ZM16.8381 22.0334H16.8239V21.0497L16.8362 21.0487C16.8802 21.0452 16.9235 21.0363 17.0207 21.0363C17.3133 21.0363 17.5039 21.2264 17.5041 21.5194C17.5033 21.903 17.3194 22.0333 16.9952 22.0334H16.8381ZM16.9952 22.0061C17.3132 22.0029 17.4735 21.8926 17.4767 21.5194C17.4747 21.2387 17.3004 21.0645 17.0206 21.0633C16.9339 21.0633 16.8929 21.0713 16.8519 21.0753V22.0061H16.9952Z" fill="white"/>
<path fill-rule="evenodd" clip-rule="evenodd" d="M20.5165 22.5436L20.5221 22.5373V21.3328C20.5221 21.0691 20.3396 21.0305 20.2431 21.0305H20.1727V20.9341C20.3237 20.9341 20.471 20.9469 20.6224 20.9469C20.7545 20.9469 20.8853 20.9341 21.018 20.9341V21.0305H20.9696C20.8346 21.0305 20.6836 21.0562 20.6836 21.4386V22.9004C20.6836 23.0131 20.6868 23.1254 20.7026 23.2252H20.581L18.9265 21.3806V22.7046C18.9265 22.9844 18.9807 23.0803 19.2281 23.0803H19.2828V23.1769C19.1448 23.1769 19.0064 23.1644 18.8683 23.1644C18.7232 23.1644 18.5757 23.1769 18.4312 23.1769V23.0803H18.4758C18.6977 23.0803 18.7655 22.9293 18.7655 22.673V21.3193C18.7655 21.1395 18.6175 21.0305 18.4731 21.0305H18.4312V20.9341C18.5528 20.9341 18.6791 20.9469 18.8009 20.9469C18.8964 20.9469 18.9901 20.9341 19.0866 20.9341L20.5165 22.5436Z" fill="white"/>
<path fill-rule="evenodd" clip-rule="evenodd" d="M20.7025 23.2386L20.5706 23.2341L18.9398 21.417V22.7045C18.9435 22.9843 18.9859 23.0634 19.2281 23.0664H19.2962V23.1906H19.2823C19.1434 23.1906 19.0055 23.1772 18.8678 23.1772C18.7244 23.1772 18.5759 23.1906 18.4312 23.1906H18.4168V23.0664H18.4759C18.6881 23.0656 18.749 22.9287 18.751 22.6721V21.3192C18.7507 21.148 18.6106 21.0445 18.4731 21.0445H18.4168V20.92H18.4312C18.5539 20.92 18.6796 20.9326 18.8009 20.9326C18.8953 20.9326 18.9883 20.92 19.0961 20.9242L20.5086 22.5145V21.3327C20.5077 21.0775 20.3366 21.0459 20.2432 21.0445H20.1584V20.92H20.1724C20.3242 20.92 20.4723 20.9326 20.6225 20.9326C20.7534 20.9326 20.885 20.92 21.0174 20.92H21.0317V21.0445H20.9696C20.8371 21.0476 20.7005 21.0595 20.6973 21.4385V22.9004C20.6973 23.0129 20.7001 23.1243 20.7165 23.2228L20.7181 23.2386H20.7025ZM20.5809 23.2106H20.6862C20.6721 23.1146 20.6693 23.0073 20.6693 22.9004V21.4385C20.6695 21.0528 20.832 21.0171 20.9696 21.0162H21.0034V20.9479C20.8769 20.9489 20.7499 20.9605 20.6225 20.9605C20.4748 20.9605 20.3317 20.9489 20.1863 20.9479V21.0162H20.2431C20.3421 21.0171 20.5367 21.0604 20.5367 21.3327L20.5321 22.5473L20.5263 22.5535L20.5162 22.5641L19.0866 20.9479C18.991 20.9479 18.8979 20.9605 18.8008 20.9605C18.6816 20.9605 18.5616 20.9489 18.4448 20.9479V21.0162H18.4731C18.6242 21.0171 18.7788 21.131 18.7788 21.3192V22.6721C18.7788 22.9299 18.7062 23.0941 18.4759 23.095L18.4448 23.0947V23.163C18.5836 23.162 18.7268 23.1502 18.8677 23.1502C19.0025 23.1502 19.136 23.162 19.2688 23.163V23.095H19.2281C18.9752 23.0947 18.9122 22.9843 18.9115 22.7045V21.345L20.5809 23.2106ZM20.5162 22.5435L20.5267 22.5343L20.5162 22.5435ZM20.5086 22.5372V22.5364L20.5063 22.5339L20.5086 22.5372Z" fill="white"/>
<path fill-rule="evenodd" clip-rule="evenodd" d="M21.5345 22.7176C21.5022 22.8264 21.4634 22.9109 21.4634 22.9679C21.4634 23.0646 21.5988 23.0805 21.7044 23.0805H21.7403V23.177C21.6113 23.17 21.4802 23.1646 21.3509 23.1646C21.2352 23.1646 21.1202 23.17 21.0042 23.177V23.0805H21.0237C21.1488 23.0805 21.2552 23.0064 21.3029 22.8714L21.8169 21.3972C21.8589 21.278 21.9168 21.1174 21.9364 20.9982C22.0385 20.9631 22.1676 20.8992 22.2284 20.8602C22.2384 20.8569 22.2443 20.8536 22.254 20.8536C22.2638 20.8536 22.2697 20.8536 22.2768 20.8637C22.2863 20.8892 22.2956 20.9181 22.3056 20.9438L22.8971 22.6244C22.9356 22.7366 22.9738 22.8554 23.0149 22.9523C23.0541 23.0424 23.1216 23.0805 23.228 23.0805H23.2472V23.177C23.1025 23.17 22.9575 23.1646 22.804 23.1646C22.6465 23.1646 22.4854 23.17 22.3215 23.177V23.0805H22.3569C22.4304 23.0805 22.5565 23.0677 22.5565 22.9874C22.5565 22.9459 22.5274 22.859 22.4916 22.7558L22.3664 22.3833H21.6372L21.5345 22.7176ZM22.0036 21.2942H21.9969L21.6983 22.2035H22.2986L22.0036 21.2942Z" fill="white"/>
<path fill-rule="evenodd" clip-rule="evenodd" d="M23.2462 23.1906C23.1019 23.1844 22.957 23.1772 22.804 23.1772C22.6465 23.1772 22.4862 23.1844 22.3223 23.1906L22.3074 23.1913V23.0658H22.3569C22.4314 23.0658 22.5418 23.0491 22.5421 22.9872C22.5428 22.9506 22.514 22.8626 22.4786 22.7604L22.3562 22.3969H21.6475L21.5476 22.7216C21.5152 22.8308 21.4762 22.9157 21.4768 22.968C21.4779 23.0465 21.5978 23.0658 21.7045 23.0658H21.7538V23.1913L21.7392 23.1906C21.6108 23.1844 21.4797 23.1772 21.3511 23.1772C21.2365 23.1772 21.1203 23.1844 21.0053 23.1906L20.9903 23.1913V23.0658H21.0236C21.1431 23.0656 21.2428 22.9973 21.2892 22.8668L21.8038 21.3921C21.8453 21.2731 21.9037 21.1133 21.9314 20.9849C22.0322 20.9507 22.1615 20.8859 22.2232 20.8471C22.2322 20.8439 22.241 20.8398 22.2539 20.8398C22.2618 20.8393 22.2791 20.8414 22.2896 20.8581C22.2987 20.8845 22.3089 20.9134 22.3186 20.9393L22.9102 22.6197C22.948 22.7322 22.9865 22.8509 23.0285 22.9461C23.0657 23.0318 23.1247 23.0656 23.228 23.0658H23.2605V23.1913L23.2462 23.1906ZM22.3356 23.162C22.4946 23.1564 22.6506 23.1502 22.8041 23.1502C22.9531 23.1502 23.0932 23.1564 23.2328 23.162V23.0947H23.2281C23.1179 23.0955 23.0421 23.0522 23.0027 22.9574C22.9609 22.8604 22.9218 22.7411 22.8839 22.6286L22.2923 20.948C22.2826 20.9223 22.2735 20.8936 22.2651 20.8708C22.2619 20.8676 22.2626 20.8676 22.2601 20.8676H22.254C22.2476 20.8676 22.2437 20.8696 22.2354 20.8716C22.1736 20.9118 22.0448 20.9751 21.9492 21.0002C21.9296 21.1219 21.8718 21.2825 21.83 21.4015L21.316 22.8759C21.2671 23.0156 21.1541 23.095 21.0237 23.0947H21.0183V23.162C21.1285 23.1564 21.2397 23.1502 21.3512 23.1502C21.4755 23.1502 21.6022 23.1564 21.7252 23.162V23.0947H21.7045C21.5996 23.0933 21.4534 23.0818 21.4497 22.968C21.45 22.9043 21.4894 22.8221 21.5209 22.7134L21.5345 22.7175L21.5209 22.7131L21.6267 22.3697H22.3759L22.5045 22.7513C22.5407 22.8546 22.5699 22.9403 22.5699 22.9872C22.5651 23.0856 22.4299 23.0929 22.357 23.0947H22.3356V23.162ZM21.6788 22.2173L21.9863 21.2798H22.0036V21.294L22.0002 21.295L22.0036 21.294V21.2798H22.0132L22.3186 22.2173H21.6788ZM21.7172 22.1891H22.2797L22.0001 21.3282L21.7172 22.1891ZM21.9896 21.2982L21.9971 21.2959L21.9896 21.2982Z" fill="white"/>
<path fill-rule="evenodd" clip-rule="evenodd" d="M23.3884 21.0947C23.1475 21.0947 23.1378 21.1529 23.0894 21.3871H22.9928C23.0054 21.2971 23.0219 21.2072 23.0318 21.1141C23.0444 21.0237 23.0506 20.9341 23.0506 20.8412H23.1283C23.1535 20.9376 23.234 20.9341 23.3207 20.9341H24.9789C25.0652 20.9341 25.1455 20.9309 25.1518 20.8345L25.2287 20.8476C25.2168 20.9341 25.204 21.0209 25.1939 21.1079C25.1868 21.1946 25.1868 21.2811 25.1868 21.3678L25.0909 21.4035C25.0852 21.2848 25.069 21.0947 24.8532 21.0947H24.3264V22.8041C24.3264 23.052 24.439 23.0803 24.593 23.0803H24.6544V23.1769C24.5289 23.1769 24.3044 23.1645 24.1304 23.1645C23.938 23.1645 23.7125 23.1769 23.5873 23.1769V23.0803H23.6485C23.8255 23.0803 23.9152 23.0645 23.9152 22.8108V21.0947H23.3884Z" fill="white"/>
<path fill-rule="evenodd" clip-rule="evenodd" d="M24.6544 23.1907C24.5281 23.1907 24.3029 23.1779 24.1302 23.1779C23.9383 23.1779 23.7133 23.1907 23.5874 23.1907H23.5732V23.0665H23.6485C23.8257 23.0624 23.8967 23.0601 23.9009 22.8109L23.9007 21.1085H23.3884V21.0805H23.929V22.8109C23.929 23.0688 23.8249 23.0942 23.6485 23.0949H23.6011V23.1632C23.7281 23.1621 23.944 23.1503 24.1302 23.1503C24.2982 23.1503 24.5132 23.1621 24.64 23.1632V23.0949H24.5928C24.438 23.0942 24.3129 23.057 24.3126 22.8042V21.0805H24.8532C25.0691 21.0813 25.0972 21.2645 25.1034 21.384L25.1732 21.3584C25.1732 21.2744 25.1737 21.1904 25.1803 21.1064C25.1889 21.0235 25.2011 20.9413 25.2127 20.8593L25.1642 20.8508C25.1495 20.9444 25.0588 20.9496 24.9789 20.9481H23.3043C23.2285 20.949 23.1465 20.9446 23.1173 20.8547H23.0648C23.0641 20.9436 23.0577 21.03 23.0451 21.1156C23.0363 21.2043 23.0209 21.2893 23.0086 21.3738H23.0777C23.1199 21.1497 23.1477 21.0769 23.3884 21.0805V21.1085C23.1502 21.1127 23.1554 21.1531 23.103 21.3905L23.1007 21.4014H22.9766L22.9786 21.3855C22.9921 21.2951 23.0079 21.2049 23.0172 21.1123C23.0304 21.0224 23.0363 20.9333 23.0363 20.8412V20.827H23.1384L23.1411 20.8371C23.1636 20.9181 23.2221 20.9187 23.3043 20.9202H24.9789C25.0678 20.9187 25.1326 20.9175 25.1383 20.8337L25.1388 20.8182L25.1538 20.8212L25.245 20.8355L25.2428 20.8497C25.2295 20.936 25.2174 21.0224 25.2076 21.1085C25.2011 21.1947 25.2011 21.2811 25.2011 21.3678V21.3776L25.1917 21.3813L25.078 21.4229L25.0775 21.4043C25.0691 21.2834 25.0563 21.1085 24.8532 21.1085H24.3402V22.8042C24.3435 23.0464 24.4397 23.0635 24.5928 23.0665H24.6678V23.1907H24.6544Z" fill="white"/>
<path fill-rule="evenodd" clip-rule="evenodd" d="M25.3477 23.0803H25.3927C25.5084 23.0803 25.6301 23.0645 25.6301 22.8973V21.2141C25.6301 21.0466 25.5084 21.0306 25.3927 21.0306H25.3477V20.9341C25.473 20.9341 25.6654 20.9469 25.8227 20.9469C25.9837 20.9469 26.1766 20.9341 26.3279 20.9341V21.0306H26.2828C26.1666 21.0306 26.0445 21.0466 26.0445 21.2141V22.8973C26.0445 23.0645 26.1666 23.0803 26.2828 23.0803H26.3279V23.1769C26.1736 23.1769 25.9806 23.1645 25.8202 23.1645C25.6624 23.1645 25.473 23.1769 25.3477 23.1769V23.0803Z" fill="white"/>
<path fill-rule="evenodd" clip-rule="evenodd" d="M26.3279 23.1906C26.1726 23.1906 25.9805 23.1772 25.8202 23.1772C25.6629 23.1772 25.4732 23.1906 25.3477 23.1906H25.3339V23.0664H25.3928C25.5086 23.0645 25.6154 23.0542 25.6161 22.8972V21.214C25.6154 21.057 25.5086 21.0465 25.3928 21.0445H25.3339V20.92H25.3477C25.4732 20.92 25.6664 20.9326 25.8227 20.9326C25.9829 20.9326 26.1757 20.92 26.3279 20.92H26.3413V21.0445H26.2829C26.1653 21.0465 26.0596 21.057 26.0585 21.214V22.8972C26.0596 23.0542 26.1653 23.0645 26.2829 23.0664H26.3413V23.1906H26.3279ZM26.3133 23.1628V23.0947H26.2829C26.1676 23.0947 26.0313 23.0745 26.0313 22.8972V21.214C26.0313 21.0363 26.1676 21.0165 26.2829 21.0162H26.3133V20.9479C26.1652 20.9489 25.9791 20.9605 25.8227 20.9605C25.6702 20.9605 25.4863 20.9489 25.3617 20.9479V21.0162H25.3928C25.5069 21.0165 25.6438 21.0363 25.6442 21.214V22.8972C25.6438 23.0745 25.5069 23.0947 25.3928 23.0947H25.3617V23.1628C25.4855 23.1614 25.6672 23.1502 25.8202 23.1502C25.976 23.1502 26.1618 23.162 26.3133 23.1628Z" fill="white"/>
<path fill-rule="evenodd" clip-rule="evenodd" d="M27.609 20.886C28.2939 20.886 28.8399 21.3106 28.8399 21.9949C28.8399 22.734 28.3096 23.2252 27.6255 23.2252C26.9441 23.2252 26.4238 22.7625 26.4238 22.0715C26.4238 21.4036 26.9409 20.886 27.609 20.886ZM27.6575 23.0838C28.281 23.0838 28.3897 22.534 28.3897 22.0655C28.3897 21.5959 28.1365 21.0275 27.6028 21.0275C27.0407 21.0275 26.8735 21.5288 26.8735 21.9589C26.8735 22.534 27.1372 23.0838 27.6575 23.0838Z" fill="white"/>
<path fill-rule="evenodd" clip-rule="evenodd" d="M26.4095 22.0715C26.4108 21.3958 26.9339 20.873 27.6089 20.8719V20.9C26.9484 20.9 26.4375 21.4106 26.4367 22.0715C26.4381 22.7546 26.9508 23.2105 27.6257 23.2107C28.3029 23.2105 28.8255 22.7263 28.8263 21.9944C28.8257 21.3185 28.2884 20.9007 27.6089 20.9V20.8719C28.2987 20.8727 28.8525 21.3014 28.8537 21.9944C28.853 22.7411 28.3164 23.2375 27.6257 23.2387C26.9384 23.2375 26.4108 22.7701 26.4095 22.0715ZM26.8595 21.9588C26.8605 21.5265 27.0292 21.013 27.6029 21.013C28.1485 21.0142 28.4029 21.5932 28.404 22.0654C28.4029 22.5339 28.2927 23.0968 27.6577 23.0968V23.0696C28.2686 23.0691 28.3748 22.5339 28.3758 22.0654C28.3758 21.5999 28.1251 21.0422 27.6029 21.0413C27.0517 21.0419 26.8888 21.5309 26.8874 21.9588C26.8876 22.5312 27.1489 23.0687 27.6577 23.0696V23.0968C27.1244 23.0964 26.8605 22.5373 26.8595 21.9588Z" fill="white"/>
<path fill-rule="evenodd" clip-rule="evenodd" d="M31.005 22.5436L31.0117 22.5373V21.3328C31.0117 21.0691 30.828 21.0305 30.7316 21.0305H30.6617V20.9341C30.8123 20.9341 30.9604 20.9469 31.111 20.9469C31.2431 20.9469 31.3748 20.9341 31.5066 20.9341V21.0305H31.4583C31.3237 21.0305 31.172 21.0562 31.172 21.4386V22.9004C31.172 23.0131 31.1754 23.1254 31.1917 23.2252H31.0695L29.4145 21.3806V22.7046C29.4145 22.9844 29.4693 23.0803 29.7162 23.0803H29.7713V23.1769C29.633 23.1769 29.4951 23.1644 29.357 23.1644C29.2122 23.1644 29.0643 23.1769 28.9197 23.1769V23.0803H28.9649C29.1869 23.0803 29.254 22.9293 29.254 22.673V21.3193C29.254 21.1395 29.1067 21.0305 28.9613 21.0305H28.9197V20.9341C29.0418 20.9341 29.167 20.9469 29.2893 20.9469C29.3855 20.9469 29.4782 20.9341 29.575 20.9341L31.005 22.5436Z" fill="white"/>
<path fill-rule="evenodd" clip-rule="evenodd" d="M31.1919 23.2386L31.0589 23.2341L29.4284 21.417V22.7046C29.4321 22.9843 29.4746 23.063 29.7159 23.0658H29.7851V23.1906H29.7715C29.6323 23.1906 29.4944 23.1777 29.357 23.1777C29.213 23.1777 29.0651 23.1906 28.9194 23.1906H28.9062V23.0658H28.9647C29.1765 23.0652 29.2375 22.9287 29.2401 22.6728V21.3192C29.24 21.148 29.0995 21.0445 28.9615 21.0445H28.9062V20.92H28.9194C29.0426 20.92 29.1679 20.9326 29.2892 20.9326C29.3846 20.9326 29.4769 20.92 29.5859 20.925L30.9976 22.5145V21.3327C30.9965 21.0775 30.8254 21.0465 30.7317 21.0445H30.647V20.92H30.6617C30.8127 20.92 30.9609 20.9326 31.1106 20.9326C31.2421 20.9326 31.3732 20.92 31.5067 20.92H31.5202V21.0445H31.4582C31.3258 21.0479 31.1891 21.06 31.1864 21.4385V22.9004C31.1864 23.0129 31.1889 23.125 31.2045 23.2228L31.2073 23.2386H31.1919ZM31.0696 23.2106H31.1749C31.1613 23.114 31.1581 23.0073 31.1581 22.9004V21.4385C31.1581 21.0522 31.3203 21.0171 31.4583 21.0162H31.493V20.9479C31.3655 20.9489 31.2391 20.9605 31.1107 20.9605C30.9644 20.9605 30.8207 20.9489 30.6753 20.9479V21.0162H30.7317C30.8309 21.0171 31.0249 21.061 31.0249 21.3327L31.0215 22.5473L31.0153 22.5535L31.0051 22.5641L29.5752 20.9479C29.4801 20.9479 29.3866 20.9605 29.2893 20.9605C29.1708 20.9605 29.0502 20.9489 28.9333 20.9479V21.0162H28.9615C29.1126 21.0171 29.2677 21.131 29.2677 21.3192V22.6728C29.2677 22.9299 29.196 23.0941 28.9648 23.095L28.9333 23.0947V23.163C29.0728 23.162 29.2158 23.1502 29.357 23.1502C29.491 23.1502 29.6242 23.162 29.7574 23.163V23.095H29.7159C29.4638 23.0947 29.4006 22.9843 29.4006 22.7046V21.3445L31.0696 23.2106ZM31.0051 22.5435L31.0153 22.5343L31.0051 22.5435ZM30.9977 22.5372V22.5364L30.9951 22.5339L30.9977 22.5372Z" fill="white"/>
<path fill-rule="evenodd" clip-rule="evenodd" d="M32.0228 22.7176C31.9913 22.8264 31.9525 22.9109 31.9525 22.9679C31.9525 23.0646 32.0879 23.0805 32.1932 23.0805H32.2291V23.177C32.1004 23.17 31.9686 23.1646 31.8399 23.1646C31.7242 23.1646 31.6087 23.17 31.4935 23.177V23.0805H31.5118C31.6378 23.0805 31.7442 23.0064 31.7911 22.8714L32.3063 21.3972C32.3478 21.278 32.4059 21.1174 32.4244 20.9982C32.5277 20.9631 32.6559 20.8992 32.7178 20.8602C32.7268 20.8569 32.7332 20.8536 32.7432 20.8536C32.7525 20.8536 32.7586 20.8536 32.7652 20.8637C32.7749 20.8892 32.7845 20.9181 32.7943 20.9438L33.3855 22.6244C33.4238 22.7366 33.4626 22.8554 33.5045 22.9523C33.5431 23.0424 33.6105 23.0805 33.7164 23.0805H33.7362V23.177C33.5914 23.17 33.4466 23.1646 33.2923 23.1646C33.1352 23.1646 32.9743 23.17 32.8102 23.177V23.0805H32.8458C32.9193 23.0805 33.0453 23.0677 33.0453 22.9874C33.0453 22.9459 33.0165 22.859 32.9806 22.7558L32.8553 22.3833H32.1261L32.0228 22.7176ZM32.4927 21.2942H32.4863L32.1867 22.2035H32.7885L32.4927 21.2942Z" fill="white"/>
<path fill-rule="evenodd" clip-rule="evenodd" d="M33.7347 23.1906C33.5899 23.1849 33.4456 23.1778 33.2924 23.1778C33.1356 23.1778 32.9746 23.1849 32.8109 23.1906L32.7966 23.1914V23.0665H32.8455C32.9202 23.0665 33.0309 23.0492 33.031 22.9873C33.0319 22.9507 33.0028 22.863 32.9667 22.7605L32.8448 22.397H32.1355L32.0363 22.7217C32.0039 22.8317 31.966 22.9158 31.9663 22.9678C31.9663 23.0465 32.0869 23.0665 32.193 23.0665H32.2422V23.1914L32.2277 23.1906C32.0994 23.1849 31.9678 23.1778 31.8399 23.1778C31.7247 23.1778 31.6094 23.1849 31.4935 23.1906L31.4795 23.1914V23.0665H31.5117C31.6315 23.0659 31.7317 22.9973 31.7788 22.8669L32.2926 21.3921C32.3339 21.2732 32.3919 21.1134 32.4201 20.9854C32.5211 20.9504 32.6501 20.8859 32.7126 20.8471C32.7209 20.844 32.7299 20.8401 32.743 20.8401C32.7513 20.8394 32.7682 20.8414 32.778 20.8589C32.7878 20.8842 32.7973 20.9134 32.8077 20.9393L33.3985 22.6198C33.4372 22.7323 33.4755 22.851 33.5172 22.9468C33.5551 23.0318 33.6132 23.0656 33.716 23.0665H33.7492V23.1914L33.7347 23.1906ZM32.8239 23.1623C32.9829 23.1565 33.1392 23.1503 33.2924 23.1503C33.4418 23.1503 33.5815 23.1565 33.7217 23.1621L33.7214 23.0948H33.716C33.6072 23.0951 33.5314 23.0523 33.4913 22.9575C33.4489 22.8605 33.4107 22.7411 33.3722 22.629L32.781 20.9481C32.7715 20.9224 32.7613 20.8937 32.7537 20.8715C32.7511 20.8677 32.7513 20.8677 32.7494 20.8677H32.743C32.7361 20.8677 32.7326 20.8699 32.7249 20.8721C32.662 20.9114 32.5335 20.9758 32.4386 21.0003C32.4187 21.122 32.3603 21.2823 32.319 21.4016L31.8044 22.876C31.7555 23.0156 31.6432 23.0951 31.5118 23.0948H31.507V23.1621C31.6177 23.1565 31.7281 23.1503 31.8399 23.1503C31.9643 23.1503 32.0914 23.1565 32.2148 23.1621V23.0948H32.1931C32.0886 23.0934 31.9422 23.0823 31.938 22.9678C31.9389 22.9044 31.9784 22.8224 32.0099 22.7135L32.0228 22.7176L32.0099 22.7132L32.1156 22.3698H32.8645L32.9936 22.7514C33.029 22.8547 33.0583 22.9404 33.0583 22.9873C33.0537 23.0857 32.9185 23.093 32.8456 23.0948H32.8239V23.1623ZM32.1673 22.2172L32.4759 21.2799H32.4926V21.2941L32.4889 21.2951L32.4926 21.2941V21.2799H32.5023L32.8061 22.2172H32.1673ZM32.2061 22.1893H32.7683L32.4888 21.3288L32.2061 22.1893ZM32.4792 21.2983L32.4856 21.2959L32.4792 21.2983Z" fill="white"/>
<path fill-rule="evenodd" clip-rule="evenodd" d="M34.5455 22.8618C34.5455 22.9909 34.6347 23.029 34.7379 23.0424C34.8693 23.052 35.0141 23.052 35.1623 23.0356C35.2971 23.0194 35.4127 22.9428 35.4704 22.8618C35.5215 22.7912 35.5504 22.7012 35.5701 22.6307H35.663C35.6276 22.8139 35.5828 22.994 35.5442 23.1769C35.262 23.1769 34.9784 23.1645 34.6961 23.1645C34.4131 23.1645 34.1306 23.1769 33.848 23.1769V23.0803H33.8925C34.0084 23.0803 34.1341 23.0645 34.1341 22.8653V21.2141C34.1341 21.0466 34.0084 21.0305 33.8925 21.0305H33.848V20.9341C34.018 20.9341 34.1853 20.9469 34.3554 20.9469C34.5196 20.9469 34.6798 20.9341 34.8442 20.9341V21.0305H34.7634C34.6413 21.0305 34.5455 21.0339 34.5455 21.2042V22.8618Z" fill="white"/>
<path fill-rule="evenodd" clip-rule="evenodd" d="M35.5443 23.1906C35.2609 23.1906 34.9779 23.1777 34.6961 23.1777C34.4134 23.1777 34.1307 23.1906 33.8473 23.1906H33.8338V23.0664H33.8924C34.0086 23.0636 34.1189 23.0555 34.1202 22.8652V21.2134C34.1189 21.057 34.0091 21.0465 33.8924 21.0445H33.8338V20.92H33.8473C34.0184 20.92 34.1856 20.9326 34.3551 20.9326C34.5186 20.9326 34.6787 20.92 34.8441 20.92H34.857V21.0445H34.7633C34.6387 21.0476 34.5613 21.042 34.5585 21.2041V22.8617C34.5594 22.9819 34.6381 23.014 34.7385 23.0283C34.7951 23.0322 34.8549 23.0343 34.9167 23.0343C34.9953 23.0343 35.0769 23.0306 35.1599 23.0219C35.2908 23.0063 35.4034 22.9307 35.459 22.8541C35.5086 22.7853 35.5366 22.6973 35.5561 22.6274L35.5587 22.6168H35.6799L35.6771 22.6337C35.6407 22.8173 35.5964 22.9966 35.5575 23.1798L35.555 23.1906H35.5443ZM35.5326 23.1628C35.5698 22.9883 35.6117 22.8177 35.6465 22.6444H35.5802C35.5605 22.7143 35.5318 22.8005 35.4815 22.8705C35.4214 22.9537 35.3024 23.0322 35.1631 23.0495C35.079 23.058 34.9955 23.0624 34.9168 23.0624C34.8545 23.0624 34.7944 23.0596 34.7359 23.0554C34.6315 23.044 34.5304 22.9991 34.5305 22.8617V21.2041C34.5305 21.0255 34.6435 21.0162 34.7634 21.0162H34.8296V20.9479C34.6714 20.9489 34.5151 20.9609 34.3551 20.9609C34.1891 20.9609 34.0263 20.9489 33.8619 20.9479V21.0162H33.8925C34.0071 21.0162 34.1473 21.0363 34.1473 21.2134V22.8652C34.1473 23.0732 34.0077 23.0947 33.8925 23.0947H33.8619V23.1628C34.1394 23.1622 34.4172 23.1502 34.6962 23.1502C34.9755 23.1502 35.2544 23.1622 35.5326 23.1628Z" fill="white"/>
<path fill-rule="evenodd" clip-rule="evenodd" d="M35.6238 20.843C35.8177 20.843 35.9623 20.9919 35.9623 21.1821C35.9623 21.3722 35.8177 21.5195 35.6238 21.5195C35.4304 21.5195 35.2856 21.3722 35.2856 21.1821C35.2856 20.9919 35.4304 20.843 35.6238 20.843ZM35.6238 21.4566C35.7756 21.4566 35.8915 21.3275 35.8915 21.1821C35.8915 21.0364 35.7769 20.9064 35.6238 20.9064C35.4716 20.9064 35.3558 21.0364 35.3558 21.1821C35.3558 21.3275 35.4716 21.4566 35.6238 21.4566ZM35.4556 21.3605V21.3441C35.4969 21.3381 35.5047 21.3392 35.5047 21.3139V21.0632C35.5047 21.0279 35.5012 21.0157 35.4569 21.0177V21.0004H35.6301C35.6896 21.0004 35.7444 21.0289 35.7444 21.0904C35.7444 21.1406 35.7113 21.178 35.6644 21.1924L35.7201 21.27C35.746 21.3051 35.7756 21.3381 35.7945 21.3498V21.3605H35.7287C35.6971 21.3605 35.6691 21.2941 35.6071 21.205H35.5697V21.3171C35.5697 21.3392 35.5774 21.3381 35.619 21.3441V21.3605H35.4556ZM35.5696 21.1821H35.6095C35.6532 21.1821 35.6734 21.1492 35.6734 21.0958C35.6734 21.042 35.6423 21.0229 35.6074 21.0229H35.5696V21.1821Z" fill="white"/>
<path fill-rule="evenodd" clip-rule="evenodd" d="M15.5557 9.59096C15.5557 6.5856 17.992 4.14929 20.9972 4.14929C24.0026 4.14929 26.4389 6.5856 26.4389 9.59096C26.4389 12.5963 24.0026 15.0328 20.9972 15.0328C17.992 15.0328 15.5557 12.5963 15.5557 9.59096Z" fill="#0069AA"/>
<path fill-rule="evenodd" clip-rule="evenodd" d="M24.2882 9.48373C24.286 8.0902 23.4149 6.90173 22.1875 6.43106V12.5362C23.4149 12.0649 24.286 10.8775 24.2882 9.48373ZM19.846 12.5349V6.43159C18.6197 6.90372 17.75 8.0905 17.7467 9.48366C17.75 10.8765 18.6197 12.0631 19.846 12.5349ZM21.0174 4.32345C18.1676 4.32454 15.8587 6.63388 15.8582 9.48369C15.8587 12.3331 18.1676 14.6421 21.0174 14.6426C23.8672 14.6421 26.1765 12.3331 26.1773 9.48369C26.1765 6.63388 23.8672 4.32454 21.0174 4.32345ZM21.0047 15.1296C17.8863 15.1444 15.3196 12.618 15.3196 9.54258C15.3196 6.18147 17.8863 3.85669 21.0047 3.8573H22.4661C25.5478 3.85669 28.3602 6.18037 28.3602 9.54258C28.3602 12.6169 25.5478 15.1296 22.4661 15.1296H21.0047Z" fill="white"/>
</g>
<defs>
<clipPath id="clip0_1_7111">
<rect width="44" height="26.4" fill="white" transform="translate(0 0.348022)"/>
</clipPath>
</defs>
</svg>
