<svg width="24" height="25" viewBox="0 0 24 25" fill="none" xmlns="http://www.w3.org/2000/svg">
<g clip-path="url(#clip0_1_7279)">
<ellipse cx="12" cy="12.9479" rx="12" ry="11.9994" fill="#1877F2"/>
<path d="M12.0001 5.14746C7.71657 5.14746 4.20007 8.4016 4.20007 12.4324C4.20007 14.5799 5.22057 16.4879 6.80007 17.8169V20.7467L9.68477 19.341C10.418 19.5564 11.185 19.7173 12.0001 19.7173C16.2836 19.7173 19.8001 16.4632 19.8001 12.4324C19.8001 8.4016 16.2836 5.14746 12.0001 5.14746ZM12.0001 6.4144C15.6134 6.4144 18.5001 9.11679 18.5001 12.4324C18.5001 15.748 15.6134 18.4504 12.0001 18.4504C11.2233 18.4504 10.4817 18.3066 9.78617 18.0741L9.52227 17.9949L8.10007 18.6879V17.2626L7.85632 17.0643C6.41397 15.9564 5.50007 14.2961 5.50007 12.4324C5.50007 9.11679 8.38672 6.4144 12.0001 6.4144ZM11.2688 10.4331L7.34867 14.4715L10.8626 12.5711L12.7313 14.5311L16.6112 10.4325L13.1779 12.3139L11.2688 10.4331Z" fill="white"/>
</g>
<defs>
<clipPath id="clip0_1_7279">
<rect width="24" height="24" fill="white" transform="translate(0 0.947998)"/>
</clipPath>
</defs>
</svg>
