<svg width="21" height="19" viewBox="0 0 21 19" fill="none" xmlns="http://www.w3.org/2000/svg">
<g clip-path="url(#clip0_623_993)">
<path d="M0.751526 11.2442V13.6489C0.751526 14.646 1.62249 15.3498 2.68701 15.3498H18.816C19.8806 15.3498 20.7515 14.646 20.7515 13.6489V11.2442H0.751526Z" fill="#F8D12E"/>
<path d="M18.816 3.03308H2.68701C1.62249 3.03308 0.751526 3.73689 0.751526 4.73396V7.13865H20.7515V4.73396C20.7515 3.73689 19.8806 3.03308 18.816 3.03308Z" fill="#333333"/>
<path d="M20.7515 7.13867H0.751526V11.2442H20.7515V7.13867Z" fill="#DB2727"/>
<path d="M18.7515 15.3498C19.816 15.3498 20.7515 14.646 20.7515 13.6489V11.2442H13.4612L18.7515 15.3498Z" fill="#DBB30F"/>
<path d="M18.8161 3.03308H2.68701L8.04185 7.13865H20.7515V4.73396C20.7515 3.73689 19.8806 3.03308 18.8161 3.03308Z" fill="black"/>
<path d="M13.4935 11.2442H20.7515V7.13867H8.00958L13.4935 11.2442Z" fill="#C10E0E"/>
<path d="M18.8161 3.03308H2.68701L17.6225 7.13865H20.7515V4.73396C20.7515 3.73689 19.8806 3.03308 18.8161 3.03308Z" fill="black"/>
<path d="M20.7515 7.95979V7.13867H17.4612L20.7515 7.95979Z" fill="#A00808"/>
<path d="M20.7515 13.6196C20.7515 14.7046 19.8806 15.3498 18.816 15.3498H2.68701C1.62249 15.3498 0.751526 14.5873 0.751526 13.5903" fill="#D89F12"/>
</g>
<defs>
<clipPath id="clip0_623_993">
<rect width="20" height="18.1818" fill="white" transform="translate(0.751526 0.100525)"/>
</clipPath>
</defs>
</svg>
