<svg width="82" height="79" viewBox="0 0 82 79" fill="none" xmlns="http://www.w3.org/2000/svg">
<g clip-path="url(#clip0_1_6424)">
<path d="M17.3338 49.2028C20.4257 51.1935 23.7423 52.4166 27.3569 52.6089V52.0217C23.8867 51.621 20.5567 50.6306 17.3338 49.2028Z" fill="#FDB927"/>
<path d="M29.5556 28.0214L27.4922 45.1162L33.2589 44.8109L33.9995 36.06L36.8035 44.6075L39.7223 44.3766L42.041 36.8232L42.9933 44.1495L47.5959 43.8171L45.2681 29.5478L40.3481 29.2934L38.1789 37.1793L35.7983 28.7845L29.5556 28.0214Z" fill="#808080"/>
<path d="M47.8076 29.7261L47.9242 43.8323L55.4101 43.2603L55.3992 40.334H52.1456L52.1191 38.8332L55.0554 38.8077V35.5261L52.1456 35.5008L52.0928 34.1016L55.3728 34.2033L55.3198 30.5147L47.8076 29.7261Z" fill="#808080"/>
<path d="M62.8167 35.416L65.4355 33.8896C64.8248 32.9502 64.432 31.9606 62.7902 31.1932C61.8145 30.6842 60.0884 30.5113 58.9018 31.2185C57.1803 32.1012 56.0924 34.0223 56.0978 35.7976C55.9806 37.5794 56.0525 39.3823 56.9972 40.8853C58.5669 43.3931 60.8162 43.4688 62.9887 42.7169C64.0089 42.3005 65.4773 40.9288 65.5148 38.9775L65.6736 36.2301L61.1767 36.1282L61.1501 38.7484L62.5521 38.7739C62.4724 39.397 62.256 39.8271 61.0179 39.8931C60.54 39.8459 59.3576 39.678 59.4044 38.1889L59.5101 35.683C59.5368 35.1323 60.3288 34.2686 61.3353 34.2968C61.9286 34.313 62.467 34.5808 62.8167 35.416Z" fill="#808080"/>
<path d="M68.2325 31.5085L65.5048 42.5141L68.1754 42.3457L68.4685 40.9753H70.3413L70.5482 42.1664L72.9696 41.9901L71.0823 31.665L68.2325 31.5085ZM69.6004 35.1497L70.1621 38.5558L68.9163 38.5322L69.6004 35.1497Z" fill="#808080"/>
<path d="M30.4533 27.4465L28.3901 44.5412L34.1565 44.236L34.8973 35.485L37.7011 44.0324L40.6199 43.8017L42.9386 36.2483L43.8909 43.5746L48.4935 43.242L46.1658 28.9726L41.2457 28.7184L39.0766 36.6044L36.6959 28.2096L30.4533 27.4465Z" fill="white"/>
<path d="M48.7053 29.1512L48.822 43.2573L56.308 42.6853L56.2971 39.7591H53.0434L53.0171 38.2582L55.9531 38.2327V34.9511L53.0434 34.9256L52.9905 33.5265L56.2706 33.6284L56.2177 29.9398L48.7053 29.1512Z" fill="white"/>
<path d="M63.7144 34.8411L66.3333 33.3148C65.7225 32.3754 65.3298 31.3856 63.6881 30.6184C62.7122 30.1092 60.9861 29.9365 59.7995 30.6437C58.0781 31.5263 56.9902 33.4475 56.9957 35.2228C56.8785 37.0046 56.9503 38.8075 57.8951 40.3105C59.4648 42.8183 61.7139 42.8939 63.8864 42.1421C64.9068 41.7257 66.375 40.354 66.4127 38.4025L66.5713 35.6552L62.0744 35.5534L62.0481 38.1736L63.4501 38.1991C63.3701 38.8219 63.1538 39.2523 61.9158 39.3183C61.4379 39.271 60.2554 39.1031 60.3021 37.6139L60.408 35.1082C60.4346 34.5574 61.2266 33.6937 62.2332 33.7217C62.8263 33.7382 63.3649 34.006 63.7144 34.8411Z" fill="white"/>
<path d="M69.1302 30.933L66.4025 41.9388L69.0733 41.7704L69.3664 40.4H71.2391L71.4459 41.5911L73.8675 41.4146L71.98 31.0897L69.1302 30.933ZM70.4981 34.5742L71.06 37.9805L69.8142 37.9569L70.4981 34.5742Z" fill="white"/>
<path d="M30.9023 27.1584L28.8389 44.2534L34.6055 43.9481L35.3462 35.1972L38.1501 43.7445L41.069 43.5138L43.3876 35.9604L44.3399 43.2867L48.9426 42.9542L46.6148 28.6848L41.6947 28.4306L39.5256 36.3165L37.145 27.9217L30.9023 27.1584Z" fill="#EE1D25"/>
<path d="M49.1542 28.8621L49.2709 42.9684L56.7568 42.3964L56.7458 39.4702H53.4923L53.4658 37.9692L56.4021 37.9438V34.6622L53.4923 34.6367L53.4394 33.2376L56.7195 33.3395L56.6664 29.6507L49.1542 28.8621Z" fill="#EE1D25"/>
<path d="M64.1634 34.5536L66.7822 33.0273C66.1715 32.0879 65.7787 31.098 64.1368 30.3307C63.1612 29.8217 61.4351 29.649 60.2485 30.3562C58.527 31.2388 57.4391 33.16 57.4445 34.9352C57.3272 36.7171 57.3992 38.5198 58.3439 40.023C59.9136 42.5308 62.1629 42.6064 64.3354 41.8546C65.3555 41.4381 66.8239 40.0665 66.8614 38.115L67.0202 35.3675L62.5234 35.2658L62.4968 37.8861L63.8988 37.9116C63.819 38.5344 63.6027 38.9648 62.3647 39.0308C61.8866 38.9835 60.7043 38.8156 60.7511 37.3264L60.8568 34.8207C60.8835 34.2699 61.6755 33.4062 62.6822 33.4342C63.2753 33.4506 63.8137 33.7184 64.1634 34.5536Z" fill="#EE1D25"/>
<path d="M69.5792 30.6448L66.8514 41.6506L69.522 41.4822L69.8152 40.1118H71.688L71.8949 41.3029L74.3163 41.1264L72.429 30.8015L69.5792 30.6448ZM70.947 34.2859L71.5088 37.6923L70.263 37.6687L70.947 34.2859Z" fill="#EE1D25"/>
<path d="M32.1359 34.401C32.1359 38.4894 28.7369 41.8037 24.5441 41.8037C20.3515 41.8037 16.9525 38.4894 16.9525 34.401C16.9525 30.3126 20.3515 26.9984 24.5441 26.9984C28.7369 26.9984 32.1359 30.3126 32.1359 34.401Z" fill="#FDB927"/>
<path d="M32.1359 34.401C32.1359 38.4894 28.7369 41.8037 24.5441 41.8037C20.3515 41.8037 16.9525 38.4894 16.9525 34.401C16.9525 30.3126 20.3515 26.9984 24.5441 26.9984C28.7369 26.9984 32.1359 30.3126 32.1359 34.401Z" fill="url(#paint0_radial_1_6424)"/>
<path d="M32.5849 34.1135C32.5849 38.2019 29.1859 41.5161 24.9931 41.5161C20.8003 41.5161 17.4013 38.2019 17.4013 34.1135C17.4013 30.0251 20.8003 26.7108 24.9931 26.7108C29.1859 26.7108 32.5849 30.0251 32.5849 34.1135Z" fill="url(#paint1_radial_1_6424)"/>
<path d="M23.6928 34.5593L21.755 33.6245L19.7662 35.1876L20.4979 33.0081L17.6594 31.5569L20.7763 31.6504L21.4212 29.673L22.236 31.6314L24.464 31.6257L22.8792 32.796L23.6928 34.5593Z" fill="#214489"/>
<path d="M27.2297 30.9705L25.5552 30.3682L24.3703 31.6558L24.43 29.7582L22.6221 28.6047L24.5224 28.4693L24.7035 27.0818L25.6901 28.4617L27.2299 28.4315L26.3223 29.489L27.2297 30.9705Z" fill="#214489"/>
<path d="M30.4953 31.5877L29.4042 31.4191L29.0391 32.5982L28.4588 31.2403L27.2462 30.9753L28.3397 30.3302L28.1935 28.9617L29.0794 29.9209L29.9439 29.3448L29.6556 30.5782L30.4953 31.5877Z" fill="#214489"/>
<path d="M30.4445 36.0998L29.6915 34.7859L28.5463 34.9306L29.3613 33.985L28.9719 32.6594L29.8535 33.2804L30.6093 32.4176L30.5867 33.7279L31.608 34.3231L30.4924 34.5097L30.4445 36.0998Z" fill="#214489"/>
<path d="M24.9137 39.513L23.5006 38.4817L21.1283 40.1735L22.2027 37.9258L20.0352 36.3889L22.9565 36.4517L23.677 34.5641L24.3618 36.3861L26.2022 36.4346L24.616 37.5295L24.9137 39.513Z" fill="#214489"/>
<path d="M30.2677 36.9755L28.7476 36.725L28.5353 34.999L27.7268 36.5885L26.1899 36.43L27.2105 37.6627L26.4729 39.2908L27.9121 38.4633L28.9307 39.5306L28.862 37.8836L30.2677 36.9755Z" fill="#214489"/>
<path d="M22.2894 42.9571C27.0775 45.2294 31.765 42.8058 33.1254 38.605C30.8067 42.0966 25.172 43.3492 22.2894 42.9571Z" fill="#FDB927"/>
<path d="M16.82 31.1883C17.3124 29.7064 18.7962 27.8043 20.418 27.3172C19.8791 26.9972 17.038 24.8251 12.4888 25.5482C8.38405 26.4533 8.81985 30.9473 9.41723 32.7646C9.46027 31.6775 9.3395 30.1972 10.0391 29.3342C10.3849 28.9592 12.4849 28.1033 16.6012 31.0145C16.9304 31.2451 15.8922 30.478 16.82 31.1883Z" fill="#FDB927"/>
<path d="M16.0897 32.1868C14.837 31.0585 13.4272 30.191 11.6842 29.5344C9.59599 38.2026 17.6126 44.7483 22.7223 48.0444C18.4709 47.2982 7.48696 40.2464 7.60681 30.3766C7.58158 29.7032 8.05744 24.7745 13.6486 24.6123C17.2462 24.6824 18.7642 25.4614 20.2352 26.1183" stroke="#FDB927" stroke-width="2.95"/>
<path d="M15.9054 32.3813L16.4641 32.8741L16.6193 32.2705L16.2431 31.9661L16.0034 32.1378L15.8824 32.2594L15.9054 32.3813Z" fill="#FDB927"/>
<path d="M20.097 26.3467C20.505 26.5621 20.905 26.779 21.2888 26.9994L22.1352 26.8222C21.5239 26.5041 20.7727 26.0495 20.3202 25.8677L20.1431 26.0693L20.097 26.3467Z" fill="#FDB927"/>
<path d="M21.0982 47.8549C22.0885 48.2525 24.0072 48.6977 25.5539 48.6115C23.9397 48.2905 23.5401 48.303 22.3132 47.4648L21.6051 47.5466L21.0982 47.8549Z" fill="#FDB927"/>
<path d="M10.6552 29.8069C9.86597 32.3739 10.4504 35.3519 11.8987 38.7102C10.2248 35.9635 7.8063 33.2575 10.6552 29.8069Z" fill="#EE1D25"/>
<path d="M16.5046 28.3895C14.7889 31.376 14.4006 34.4098 15.9979 37.5144C15.1185 34.4727 15.4208 31.4311 16.5046 28.3895Z" fill="#EE1D25"/>
<path d="M73.5274 44.1278L73.0801 45.3323L72.3646 45.0397C71.7787 44.9059 71.7113 45.5723 72.0245 45.6247L72.7222 45.7967C73.151 45.9295 73.3141 46.2447 73.4022 46.4506C73.6039 47.1325 73.4322 47.4157 73.3484 47.7925C73.071 48.5128 72.5469 48.8228 71.8993 48.9281C71.0863 49.0443 70.6757 48.8892 70.1819 48.7904L70.7364 47.3452C70.8377 47.7195 71.295 47.7306 71.4164 47.7581C71.687 47.8246 71.9028 47.7193 72.0067 47.5861C72.1568 47.3359 71.9865 47.1614 71.8278 47.1043L71.0407 46.9495C70.5667 46.828 70.4338 46.2738 70.3518 45.943C70.2993 45.5032 70.3539 45.1123 70.5889 44.7352C70.7739 44.3987 70.9908 44.1737 71.3173 43.9351C71.6173 43.7433 72.1505 43.667 72.5612 43.7321C73.2246 43.8641 73.2604 43.996 73.5274 44.1278Z" fill="#808080"/>
<path d="M27.7401 46.0421L26.4979 54.7702L30.4729 54.268L30.5699 49.7591L32.6058 53.9406L34.6744 53.6885L36.1198 49.262L36.846 53.4096L39.8787 52.9738L38.1871 45.6803L34.6705 45.7301L33.4309 50.2237L31.8467 45.8762L27.7401 46.0421Z" fill="#808080"/>
<path d="M40.673 45.5554L43.8163 45.3376L43.9228 52.4259L40.9709 52.8332L40.673 45.5554Z" fill="#808080"/>
<path d="M45.0728 45.2505L47.9382 45.1015L47.9677 49.7576L50.18 49.5439L50.1715 51.6358L45.11 52.3259L45.0728 45.2505Z" fill="#808080"/>
<path d="M55.8602 44.7398L58.0393 44.5758L58.0636 50.61L55.8602 50.9404V44.7398Z" fill="#808080"/>
<path d="M64.3313 48.4195C63.5497 49.959 61.7451 50.7032 60.3006 50.0816C58.8561 49.4602 58.3187 47.7083 59.1003 46.1688C59.8819 44.6292 61.6867 43.8852 63.1311 44.5067C64.5756 45.1283 65.1129 46.8801 64.3313 48.4195Z" fill="#808080"/>
<path d="M50.8393 45.0156L53.2706 44.8766L53.2956 49.223L55.1729 49.0236L55.1657 50.9761L50.871 51.6206L50.8393 45.0156Z" fill="#808080"/>
<path d="M65.2509 44.1408L65.2069 49.7033L66.7716 49.5004L66.8243 46.5923L68.1077 49.2806L69.7604 49.1791L69.8834 43.921L68.3187 44.0056L68.3803 46.9812L66.9298 44.0479L65.2509 44.1408Z" fill="#808080"/>
<path d="M74.1229 43.5866L73.6756 44.7909L72.9598 44.4985C72.3741 44.3647 72.3068 45.0311 72.62 45.0835L73.3177 45.2555C73.7465 45.3883 73.9095 45.7035 73.9977 45.9093C74.1991 46.5912 74.0277 46.8745 73.9438 47.2513C73.6665 47.9714 73.1422 48.2815 72.4947 48.3869C71.6816 48.5029 71.2712 48.348 70.7773 48.2492L71.3319 46.804C71.4332 47.1783 71.8905 47.1892 72.0118 47.2169C72.2825 47.2834 72.4983 47.1782 72.6021 47.0449C72.7522 46.7946 72.5819 46.6202 72.4231 46.5632L71.6359 46.4083C71.1621 46.2868 71.0293 45.7326 70.9473 45.4018C70.8946 44.9619 70.9491 44.5711 71.1844 44.1938C71.3693 43.8575 71.586 43.6325 71.9127 43.3938C72.2127 43.2021 72.7457 43.1258 73.1567 43.1909C73.8199 43.3228 73.8557 43.4548 74.1229 43.5866Z" fill="white"/>
<path d="M28.3032 45.5319L27.0607 54.26L31.0357 53.7577L31.1328 49.2488L33.1689 53.4302L35.2373 53.1782L36.6829 48.7516L37.4088 52.8992L40.4416 52.4635L38.75 45.1699L35.2334 45.2196L33.9937 49.7134L32.4095 45.3659L28.3032 45.5319Z" fill="white"/>
<path d="M41.2032 45.0458L44.3467 44.8278L44.453 51.9162L41.5014 52.3236L41.2032 45.0458Z" fill="white"/>
<path d="M45.6033 44.6143L48.4685 44.4653L48.4982 49.1215L50.7103 48.9079L50.7018 50.9997L45.6406 51.6899L45.6033 44.6143Z" fill="white"/>
<path d="M56.4907 44.1336L58.6697 43.9697L58.6942 50.0037L56.4907 50.3341V44.1336Z" fill="white"/>
<path d="M64.9619 47.8134C64.1803 49.3528 62.3755 50.097 60.931 49.4755C59.4865 48.8539 58.9493 47.1021 59.7309 45.5625C60.5125 44.0232 62.3171 43.279 63.7616 43.9006C65.206 44.522 65.7435 46.2739 64.9619 47.8134Z" fill="white"/>
<path d="M51.4673 44.4112L53.8987 44.2722L53.9238 48.6188L55.8009 48.4193L55.7937 50.3719L51.499 51.0163L51.4673 44.4112Z" fill="white"/>
<path d="M65.8791 43.5987L65.8351 49.1609L67.3997 48.9581L67.4525 46.0501L68.7358 48.7383L70.3884 48.6369L70.5114 43.3788L68.9467 43.4634L69.0083 46.439L67.5579 43.5057L65.8791 43.5987Z" fill="white"/>
<path d="M74.3942 43.3582L73.9469 44.5627L73.2313 44.2701C72.6454 44.1364 72.5781 44.8026 72.8914 44.8551L73.5892 45.0271C74.0179 45.16 74.1808 45.4753 74.2689 45.681C74.4706 46.3629 74.299 46.646 74.2153 47.023C73.938 47.7431 73.4137 48.0532 72.7662 48.1584C71.9531 48.2746 71.5427 48.1195 71.0486 48.0209L71.6034 46.5755C71.7047 46.9499 72.1618 46.9609 72.2831 46.9886C72.554 47.0549 72.7696 46.9497 72.8734 46.8164C73.0235 46.5663 72.8534 46.3918 72.6946 46.3347L71.9074 46.1798C71.4334 46.0585 71.3006 45.5042 71.2186 45.1734C71.1661 44.7336 71.2206 44.3428 71.4559 43.9655C71.6406 43.629 71.8575 43.404 72.184 43.1655C72.484 42.9737 73.0172 42.8973 73.4282 42.9624C74.0914 43.0945 74.1272 43.2263 74.3942 43.3582Z" fill="#33337A"/>
<path d="M28.6073 45.2731L27.3648 54.0011L31.3398 53.499L31.4368 48.9899L33.473 53.1714L35.5414 52.9195L36.9869 48.4928L37.7129 52.6405L40.7456 52.2046L39.054 44.9111L35.5375 44.9609L34.2978 49.4545L32.7136 45.1072L28.6073 45.2731Z" fill="#33337A"/>
<path d="M41.5397 44.8483L44.6832 44.6305L44.7895 51.719L41.8377 52.1261L41.5397 44.8483Z" fill="#33337A"/>
<path d="M45.9396 44.4803L48.805 44.3314L48.8345 48.9875L51.0469 48.7737L51.0384 50.8657L45.9769 51.556L45.9396 44.4803Z" fill="#33337A"/>
<path d="M56.7272 43.97L58.9062 43.806L58.9305 49.8402L56.7272 50.1707V43.97Z" fill="#33337A"/>
<path d="M65.1983 47.6501C64.4166 49.1894 62.6121 49.9336 61.1676 49.312C59.7231 48.6906 59.1856 46.9387 59.9672 45.3992C60.749 43.8598 62.5536 43.1156 63.9981 43.737C65.4426 44.3586 65.9799 46.1105 65.1983 47.6501Z" fill="#33337A"/>
<path d="M51.706 44.2145L54.1375 44.0756L54.1625 48.422L56.0396 48.2227L56.065 50.2067L51.7377 50.8197L51.706 44.2145Z" fill="#33337A"/>
<path d="M66.1176 43.3712L66.0739 48.9336L67.6384 48.7308L67.6912 45.8228L68.9745 48.511L70.6271 48.4095L70.7501 43.1514L69.1854 43.2359L69.247 46.2116L67.7966 43.2782L66.1176 43.3712Z" fill="#33337A"/>
<path d="M62.8194 44.3677L62.3537 45.7802L60.3477 45.9525L61.9597 46.8826L61.5298 48.6052L62.891 47.4339L64.145 47.985L63.6793 46.7104L64.7898 45.6769L63.4285 45.7458L62.8194 44.3677Z" fill="white"/>
<path d="M80.4184 39.6914C80.4184 60.5996 62.8061 77.6129 40.9999 77.6129C19.1938 77.6129 1.58142 60.5996 1.58142 39.6914C1.58142 18.7831 19.1938 1.76984 40.9999 1.76984C62.8061 1.76984 80.4184 18.7831 80.4184 39.6914Z" stroke="#E0E0E0" stroke-width="2"/>
</g>
<defs>
<radialGradient id="paint0_radial_1_6424" cx="0" cy="0" r="1" gradientUnits="userSpaceOnUse" gradientTransform="translate(21.4873 32.0281) rotate(70.8398) scale(7.78743 8.62314)">
<stop stop-color="#FFF6D5"/>
<stop offset="1" stop-color="#FFF6D5" stop-opacity="0"/>
</radialGradient>
<radialGradient id="paint1_radial_1_6424" cx="0" cy="0" r="1" gradientUnits="userSpaceOnUse" gradientTransform="translate(22.057 32.0529) rotate(74.431) scale(3.1469 3.91382)">
<stop stop-color="#FFF6D5"/>
<stop offset="1" stop-color="#FFF6D5" stop-opacity="0"/>
</radialGradient>
<clipPath id="clip0_1_6424">
<rect width="81" height="78" fill="white" transform="translate(0.5 0.691406)"/>
</clipPath>
</defs>
</svg>
