<svg width="44" height="28" viewBox="0 0 44 28" fill="none" xmlns="http://www.w3.org/2000/svg">
<g clip-path="url(#clip0_1_7081)">
<rect y="0.947998" width="44" height="26.4" rx="4" fill="#000066"/>
<path fill-rule="evenodd" clip-rule="evenodd" d="M36.8089 14.1408C36.8089 19.0052 32.8815 22.948 28.0356 22.948C23.1907 22.948 19.2628 19.0052 19.2628 14.1408C19.2628 9.27632 23.1907 5.33337 28.0356 5.33337C32.8815 5.33337 36.8089 9.27632 36.8089 14.1408Z" fill="#CC0000"/>
<path fill-rule="evenodd" clip-rule="evenodd" d="M21.2585 19.7338C21.0162 19.4389 20.7931 19.1272 20.5903 18.801H23.6996C23.8862 18.502 24.0547 18.1905 24.2051 17.8683H20.085C19.9446 17.5666 19.8198 17.2553 19.7135 16.9359H24.5759C24.8687 16.0577 25.027 15.1182 25.027 14.1408C25.027 13.5008 24.959 12.8767 24.8301 12.2757H19.4601C19.528 11.958 19.6137 11.647 19.7147 11.3431H24.5753C24.4687 11.0236 24.3446 10.7126 24.2043 10.4108H20.0858C20.2363 10.0886 20.4052 9.77766 20.5913 9.478H23.6986C23.4959 9.15259 23.2722 8.84151 23.0304 8.54616H21.2596C21.5321 8.21421 21.8281 7.90258 22.1451 7.61405C20.5879 6.19673 18.5212 5.33337 16.2543 5.33337C11.4087 5.33337 7.48077 9.27632 7.48077 14.1408C7.48077 19.0052 11.4087 22.948 16.2543 22.948C18.5214 22.948 20.5882 22.0846 22.1451 20.6679C22.4625 20.3788 22.7589 20.0664 23.0314 19.7338H21.2585Z" fill="#0066CC"/>
<path fill-rule="evenodd" clip-rule="evenodd" d="M22.02 16.5209C21.6451 16.6206 21.2825 16.6693 20.8992 16.6685C19.6764 16.6673 19.0396 16.1082 19.0396 15.039C19.0396 13.7898 19.8503 12.8711 20.9508 12.8711C21.851 12.8711 22.4256 13.3862 22.4256 14.1933C22.4256 14.4611 22.3868 14.7221 22.2915 15.0909H20.1169C20.0396 15.6132 20.4193 15.8424 21.0659 15.8424C21.4532 15.8424 21.8033 15.7725 22.1913 15.6159L22.02 16.5209ZM21.4353 14.3543C21.4353 14.2755 21.5562 13.7148 20.9268 13.7027C20.5793 13.7027 20.3302 13.9346 20.2294 14.3543H21.4353Z" fill="#000066"/>
<path fill-rule="evenodd" clip-rule="evenodd" d="M22.7568 14.1092C22.7568 14.5706 23.0155 14.8895 23.6038 15.1268C24.0535 15.3116 24.1242 15.3652 24.1242 15.5304C24.1242 15.7594 23.9256 15.8643 23.4844 15.8615C23.1532 15.8592 22.8508 15.8187 22.494 15.7194L22.3361 16.5611C22.6533 16.635 23.098 16.6592 23.4922 16.6684C24.6665 16.6684 25.2087 16.2824 25.2087 15.4482C25.2087 14.9465 24.9825 14.6516 24.4248 14.4317C23.9586 14.2446 23.904 14.2044 23.904 14.035C23.904 13.8363 24.0887 13.7358 24.4488 13.7358C24.6672 13.7358 24.966 13.7558 25.2497 13.7903L25.4087 12.9441C25.1198 12.9039 24.6815 12.8716 24.4276 12.8716C23.1835 12.8716 22.753 13.4337 22.7568 14.1092Z" fill="#000066"/>
<path fill-rule="evenodd" clip-rule="evenodd" d="M18.4435 16.6082H17.5313L17.553 16.2246C17.2749 16.5272 16.9042 16.6682 16.4015 16.6682C15.8063 16.6682 15.3987 16.2597 15.3987 15.6722C15.3987 14.7792 16.1074 14.264 17.3259 14.264C17.4511 14.264 17.6104 14.2735 17.774 14.292C17.8079 14.1725 17.817 14.121 17.817 14.0561C17.817 13.8117 17.6253 13.7216 17.1125 13.7216C16.607 13.7236 16.2659 13.7989 15.9493 13.8842L16.1051 13.065C16.6526 12.9252 17.0109 12.8711 17.4164 12.8711C18.36 12.8711 18.8584 13.2427 18.8584 13.9406C18.8663 14.127 18.8018 14.5008 18.7692 14.6645C18.7323 14.9023 18.4708 16.2825 18.4435 16.6082ZM17.6427 14.9789C17.5272 14.9675 17.4769 14.964 17.3977 14.964C16.7755 14.964 16.4601 15.15 16.4601 15.517C16.4601 15.7475 16.614 15.8915 16.854 15.8915C17.301 15.8915 17.6238 15.5162 17.6427 14.9789Z" fill="#000066"/>
<path fill-rule="evenodd" clip-rule="evenodd" d="M27.1307 16.5503C26.8315 16.6326 26.5981 16.6685 26.3459 16.6685C25.7871 16.6685 25.4819 16.3818 25.4819 15.8712C25.4643 15.731 25.6009 15.0829 25.6319 14.9024C25.6627 14.7213 26.1468 12.0815 26.1468 12.0815H27.2325L27.0683 12.9551H27.6252L27.4739 13.8463H26.9145C26.9145 13.8463 26.6077 15.3936 26.6077 15.5119C26.6077 15.6994 26.7208 15.7809 26.9808 15.7809C27.105 15.7809 27.2011 15.7692 27.2753 15.747L27.1307 16.5503Z" fill="#000066"/>
<path fill-rule="evenodd" clip-rule="evenodd" d="M31.9819 12.8711C31.1862 12.8711 30.5644 13.2003 30.2032 13.7492L30.5167 12.9347C29.9391 12.7219 29.5666 13.0257 29.2301 13.4575C29.2301 13.4575 29.1737 13.5292 29.1174 13.5947V12.9546H28.098C27.9599 14.0844 27.7157 15.2301 27.5248 16.3624L27.4786 16.6086H28.5752C28.6794 16.0341 28.7648 15.5678 28.8499 15.1959C29.0829 14.1757 29.475 13.8639 30.0636 14.002C29.9277 14.295 29.8533 14.6346 29.8533 15.0102C29.8533 15.9223 30.3463 16.6685 31.5714 16.6685C32.8074 16.6685 33.7024 16.0057 33.7024 14.4943C33.7024 13.5828 33.1059 12.8711 31.9819 12.8711ZM31.6628 15.782C31.2755 15.788 31.0406 15.4617 31.0406 14.9735C31.0406 14.395 31.3833 13.7413 31.9339 13.7413C32.3781 13.7413 32.5302 14.095 32.5302 14.4717C32.5302 15.2946 32.1943 15.782 31.6628 15.782Z" fill="#000066"/>
<path fill-rule="evenodd" clip-rule="evenodd" d="M14.8877 16.6086H13.7955L14.4446 13.1758L12.9502 16.6086H11.9547L11.7727 13.196L11.1216 16.6086H10.1307L10.9746 12.1433H12.6814L12.8235 14.6326L13.9048 12.1433H15.7485L14.8877 16.6086Z" fill="#000066"/>
<path fill-rule="evenodd" clip-rule="evenodd" d="M22.294 16.2458C21.9194 16.3455 21.5567 16.3943 21.1735 16.3934C19.9507 16.3923 19.3138 15.8331 19.3138 14.764C19.3138 13.5148 20.1244 12.5961 21.2248 12.5961C22.1252 12.5961 22.6999 13.1112 22.6999 13.9182C22.6999 14.186 22.6609 14.4464 22.5658 14.8159H20.3914C20.3139 15.3376 20.6934 15.5672 21.3399 15.5672C21.7272 15.5672 22.0776 15.4974 22.4654 15.3405L22.294 16.2458ZM21.7093 14.0792C21.7093 14.0003 21.8302 13.4398 21.2011 13.4276C20.8536 13.4276 20.6044 13.6594 20.5034 14.0792H21.7093Z" fill="white"/>
<path fill-rule="evenodd" clip-rule="evenodd" d="M23.0311 13.8339C23.0311 14.2955 23.2897 14.614 23.8779 14.8516C24.3278 15.0366 24.3984 15.0901 24.3984 15.2549C24.3984 15.4842 24.1997 15.5892 23.7589 15.5865C23.4272 15.584 23.1248 15.5435 22.7683 15.4443L22.6101 16.2856C22.9275 16.3598 23.3725 16.3841 23.7662 16.3934C24.9405 16.3934 25.483 16.0073 25.483 15.1727C25.483 14.6714 25.2567 14.3762 24.699 14.1566C24.2328 13.9696 24.1781 13.9288 24.1781 13.76C24.1781 13.5613 24.363 13.4604 24.723 13.4604C24.9414 13.4604 25.24 13.4808 25.5239 13.5153L25.6829 12.6691C25.394 12.6283 24.9557 12.5964 24.7021 12.5964C23.4577 12.5964 23.0272 13.1583 23.0311 13.8339Z" fill="white"/>
<path fill-rule="evenodd" clip-rule="evenodd" d="M18.7178 16.333H17.8052L17.8273 15.9494C17.549 16.2517 17.1786 16.3926 16.6757 16.3926C16.0807 16.3926 15.6727 15.9842 15.6727 15.3967C15.6727 14.504 16.3815 13.9889 17.6 13.9889C17.7252 13.9889 17.8844 13.9985 18.0483 14.0163C18.0821 13.897 18.0912 13.8459 18.0912 13.7809C18.0912 13.536 17.8995 13.4463 17.3869 13.4463C16.8812 13.4484 16.5401 13.5237 16.2237 13.6092L16.3791 12.7898C16.9267 12.6501 17.2849 12.5961 17.6907 12.5961C18.6343 12.5961 19.1325 12.9673 19.1325 13.6654C19.1407 13.8519 19.0758 14.2251 19.0436 14.3893C19.0063 14.6272 18.7449 16.0073 18.7178 16.333ZM17.917 14.7039C17.8016 14.6919 17.7511 14.6888 17.6718 14.6888C17.0499 14.6888 16.7343 14.8745 16.7343 15.2413C16.7343 15.4722 16.8885 15.6165 17.1281 15.6165C17.5754 15.6165 17.8982 15.2407 17.917 14.7039Z" fill="white"/>
<path fill-rule="evenodd" clip-rule="evenodd" d="M27.4049 16.2751C27.1056 16.3575 26.8724 16.3934 26.62 16.3934C26.0612 16.3934 25.7563 16.1065 25.7563 15.596C25.7385 15.4557 25.8751 14.8076 25.906 14.6271C25.9371 14.446 26.4212 11.8063 26.4212 11.8063H27.5067L27.3427 12.6795H27.8995L27.7481 13.571H27.1889C27.1889 13.571 26.8818 15.1183 26.8818 15.2361C26.8818 15.4242 26.9951 15.5052 27.255 15.5052C27.3793 15.5052 27.4752 15.4941 27.5498 15.4716L27.4049 16.2751Z" fill="white"/>
<path fill-rule="evenodd" clip-rule="evenodd" d="M32.8046 14.196C32.8046 15.0195 32.4683 15.5069 31.9368 15.5069C31.5495 15.5125 31.3148 15.1867 31.3148 14.6984C31.3148 14.12 31.6574 13.4661 32.2079 13.4661C32.6523 13.4661 32.8046 13.8197 32.8046 14.196ZM33.9766 14.2191C33.9766 13.3077 33.38 12.5961 32.2563 12.5961C30.9636 12.5961 30.1274 13.461 30.1274 14.7352C30.1274 15.6471 30.6205 16.3934 31.8457 16.3934C33.0817 16.3934 33.9766 15.7306 33.9766 14.2191Z" fill="white"/>
<path fill-rule="evenodd" clip-rule="evenodd" d="M28.372 12.6791C28.234 13.8092 27.9897 14.9548 27.7989 16.0869L27.7529 16.3335H28.8494C29.2446 14.1468 29.3773 13.524 30.2055 13.7432L30.6038 12.7086C30.026 12.4958 29.6543 12.7998 29.3178 13.2318C29.3481 13.0374 29.4053 12.8496 29.3915 12.6791H28.372Z" fill="white"/>
<path fill-rule="evenodd" clip-rule="evenodd" d="M15.1618 16.3335H14.0698L14.7187 12.9006L13.2243 16.3335H12.2287L12.0466 12.9207L11.3955 16.3335H10.4048L11.2485 11.868H12.9554L13.0455 14.6325L14.247 11.868H16.0226L15.1618 16.3335Z" fill="white"/>
</g>
<defs>
<clipPath id="clip0_1_7081">
<rect width="44" height="26.4" fill="white" transform="translate(0 0.947998)"/>
</clipPath>
</defs>
</svg>
