<svg width="44" height="28" viewBox="0 0 44 28" fill="none" xmlns="http://www.w3.org/2000/svg">
<g clip-path="url(#clip0_1_7043)">
<rect y="0.947998" width="44" height="26.4" rx="4" fill="#000066"/>
<path fill-rule="evenodd" clip-rule="evenodd" d="M24.6967 14.3616C24.6967 19.104 20.8526 22.948 16.1103 22.948C11.3678 22.948 7.52344 19.104 7.52344 14.3616C7.52344 9.6193 11.3678 5.7749 16.1103 5.7749C20.8526 5.7749 24.6967 9.6193 24.6967 14.3616Z" fill="#CC0000"/>
<path fill-rule="evenodd" clip-rule="evenodd" d="M27.6383 5.7749C25.4191 5.7749 23.3978 6.61662 21.8736 7.99746C21.5636 8.2789 21.2741 8.58286 21.0069 8.90649H22.7418C22.9787 9.19498 23.1971 9.49826 23.3964 9.81592H20.3522C20.1701 10.1078 20.0046 10.4111 19.8575 10.7254H23.8909C24.0287 11.0197 24.1501 11.3228 24.2545 11.6344H19.4938C19.3947 11.9305 19.3111 12.2339 19.2444 12.5433H24.5037C24.6296 13.1295 24.6966 13.7377 24.6966 14.3616C24.6966 15.3149 24.5413 16.2324 24.2545 17.0894H19.4938C19.5983 17.4006 19.7196 17.7042 19.8572 17.9989H23.8909C23.7435 18.3124 23.5788 18.6159 23.3956 18.9082H20.3522C20.5507 19.2249 20.7695 19.5286 21.0069 19.8167H22.7413C22.4746 20.1406 22.1849 20.4446 21.8739 20.726C23.3979 22.1068 25.4191 22.948 27.6383 22.948C32.3804 22.948 36.2247 19.104 36.2247 14.3616C36.2247 9.61971 32.3804 5.7749 27.6383 5.7749Z" fill="#FF9900"/>
<path fill-rule="evenodd" clip-rule="evenodd" d="M14.1049 15.3017C14.007 15.2906 13.9639 15.2871 13.8967 15.2871C13.3683 15.2871 13.1011 15.4684 13.1011 15.8265C13.1011 16.047 13.2315 16.1871 13.4351 16.1871C13.8149 16.1871 14.0886 15.8257 14.1049 15.3017ZM14.783 16.88C14.6587 16.88 14.0104 16.88 14.0104 16.88L14.0281 16.5129C13.7926 16.8028 13.4782 16.9412 13.0511 16.9412C12.5461 16.9412 12.1996 16.5468 12.1996 15.9738C12.1996 15.1112 12.802 14.6081 13.8361 14.6081C13.9421 14.6081 14.0775 14.6179 14.2162 14.6354C14.245 14.5185 14.2526 14.4688 14.2526 14.4057C14.2526 14.1712 14.0903 14.0833 13.6548 14.0833C13.1988 14.0787 12.8226 14.1922 12.6681 14.243C12.6778 14.1841 12.7974 13.4463 12.7974 13.4463C13.2617 13.3098 13.5681 13.2588 13.9129 13.2588C14.7135 13.2588 15.1376 13.6181 15.1366 14.2974C15.1383 14.4796 15.108 14.7037 15.0612 14.9992C14.9803 15.5122 14.8066 16.6122 14.783 16.88Z" fill="#000066"/>
<path fill-rule="evenodd" clip-rule="evenodd" d="M11.8096 16.88H10.8773L11.4116 13.5321L10.219 16.88H9.5838L9.50523 13.5508L8.944 16.88H8.07147L8.80029 12.5245H10.1408L10.2218 14.9624L11.0397 12.5245H12.5306L11.8096 16.88Z" fill="#000066"/>
<path fill-rule="evenodd" clip-rule="evenodd" d="M28.7899 15.3017C28.6921 15.2906 28.6495 15.2871 28.5825 15.2871C28.0536 15.2871 27.7867 15.4684 27.7867 15.8265C27.7867 16.047 27.9166 16.1871 28.1207 16.1871C28.5002 16.1871 28.7741 15.8257 28.7899 15.3017ZM29.4685 16.88C29.3439 16.88 28.6961 16.88 28.6961 16.88L28.7136 16.5129C28.478 16.8028 28.1638 16.9412 27.737 16.9412C27.2313 16.9412 26.8853 16.5468 26.8853 15.9738C26.8853 15.1112 27.4879 14.6081 28.5217 14.6081C28.6276 14.6081 28.7627 14.6179 28.9016 14.6354C28.9305 14.5185 28.9379 14.4688 28.9379 14.4057C28.9379 14.1712 28.7756 14.0833 28.3402 14.0833C27.8841 14.0787 27.5081 14.1922 27.353 14.243C27.3633 14.1841 27.4831 13.4463 27.4831 13.4463C27.9472 13.3098 28.2539 13.2588 28.5981 13.2588C29.3993 13.2588 29.8228 13.6181 29.822 14.2974C29.8236 14.4796 29.7936 14.7037 29.7465 14.9992C29.6659 15.5122 29.4918 16.6122 29.4685 16.88Z" fill="#000066"/>
<path fill-rule="evenodd" clip-rule="evenodd" d="M18.9259 16.8261C18.6706 16.9064 18.4718 16.9412 18.2561 16.9412C17.7796 16.9412 17.5195 16.6673 17.5195 16.1629C17.5129 16.0063 17.588 15.5945 17.6472 15.2189C17.7012 14.8879 18.0516 12.8018 18.0516 12.8018H18.978L18.8698 13.3379H19.4296L19.3032 14.1892H18.7416C18.634 14.8627 18.4805 15.7018 18.4787 15.8131C18.4787 15.9958 18.5762 16.0756 18.798 16.0756C18.9043 16.0756 18.9865 16.0647 19.0493 16.0422L18.9259 16.8261Z" fill="#000066"/>
<path fill-rule="evenodd" clip-rule="evenodd" d="M21.7667 16.7975C21.4484 16.8948 21.1416 16.9423 20.8161 16.9412C19.7787 16.9398 19.2379 16.3984 19.2379 15.361C19.2379 14.1503 19.9258 13.2588 20.8598 13.2588C21.6236 13.2588 22.1117 13.7579 22.1117 14.5403C22.1117 14.8004 22.0783 15.0539 21.9973 15.4116H20.1521C20.0898 15.9255 20.4185 16.1395 20.9579 16.1395C21.2891 16.1395 21.5884 16.0711 21.921 15.9168L21.7667 16.7975ZM21.246 14.6977C21.2513 14.6238 21.3441 14.0654 20.8145 14.0654C20.5198 14.0654 20.3085 14.2904 20.2229 14.6977H21.246Z" fill="#000066"/>
<path fill-rule="evenodd" clip-rule="evenodd" d="M15.3421 14.4578C15.3421 14.9055 15.5593 15.2144 16.0518 15.4466C16.4292 15.6242 16.488 15.6768 16.488 15.8376C16.488 16.0581 16.3213 16.1582 15.9526 16.1582C15.6743 16.1582 15.4157 16.1145 15.1173 16.018C15.1173 16.018 14.995 16.7991 14.9892 16.8364C15.201 16.8823 15.3899 16.925 15.9593 16.9412C16.9428 16.9412 17.3971 16.5666 17.3971 15.7572C17.3971 15.2706 17.2071 14.985 16.7401 14.77C16.3494 14.5908 16.3042 14.5506 16.3042 14.3853C16.3042 14.1939 16.4593 14.096 16.7604 14.096C16.9435 14.096 17.1933 14.1156 17.4304 14.1491L17.5629 13.3276C17.3217 13.2892 16.9556 13.2588 16.7425 13.2588C15.6998 13.2588 15.3387 13.8033 15.3421 14.4578Z" fill="#000066"/>
<path fill-rule="evenodd" clip-rule="evenodd" d="M26.3005 13.3523C26.5595 13.3523 26.8013 13.4196 27.1336 13.5875L27.2862 12.6422C27.1492 12.5885 26.6687 12.2736 26.2616 12.2736C25.6379 12.2736 25.1101 12.5835 24.7395 13.0938C24.1983 12.9147 23.9757 13.2768 23.7032 13.6377L23.461 13.6942C23.4793 13.5754 23.496 13.4575 23.4907 13.338H22.6342C22.5175 14.4345 22.3103 15.5448 22.1481 16.6417L22.1057 16.88H23.0383C23.1939 15.8686 23.279 15.2211 23.3308 14.7826L23.682 14.588C23.7348 14.3925 23.8986 14.3268 24.2281 14.3348C24.1851 14.5657 24.1617 14.809 24.1617 15.0608C24.1617 16.2197 24.7878 16.9412 25.7909 16.9412C26.0494 16.9412 26.2714 16.9073 26.6151 16.8137L26.7785 15.8212C26.4694 15.973 26.2163 16.0445 25.9868 16.0445C25.4448 16.0445 25.1169 15.6444 25.1169 14.9834C25.1169 14.0242 25.6043 13.3523 26.3005 13.3523Z" fill="#000066"/>
<path fill-rule="evenodd" clip-rule="evenodd" d="M34.1928 12.5245L33.9856 13.7828C33.7312 13.4475 33.4574 13.2046 33.0959 13.2046C32.6255 13.2046 32.1974 13.5613 31.9171 14.0864C31.5267 14.0054 31.1233 13.8677 31.1233 13.8677L31.123 13.871C31.1541 13.5775 31.1672 13.399 31.1641 13.3379H30.3077C30.1914 14.4345 29.984 15.5447 29.8219 16.6417L29.7791 16.88H30.712C30.8379 16.0625 30.9341 15.383 31.0051 14.8448C31.3239 14.5566 31.4835 14.306 31.805 14.3222C31.6624 14.6672 31.5792 15.0642 31.5792 15.4716C31.5792 16.3567 32.0267 16.9412 32.7047 16.9412C33.0463 16.9412 33.3085 16.8232 33.5642 16.5502L33.5202 16.8797H34.4022L35.1123 12.5245H34.1928ZM33.0271 16.0617C32.7098 16.0617 32.5492 15.8264 32.5492 15.3634C32.5492 14.6672 32.8495 14.1737 33.2721 14.1737C33.5925 14.1737 33.7662 14.4174 33.7662 14.8673C33.7662 15.5696 33.4609 16.0617 33.0271 16.0617Z" fill="#000066"/>
<path fill-rule="evenodd" clip-rule="evenodd" d="M12.0777 16.6214H11.1456L11.6798 13.2735L10.4875 16.6214H9.85199L9.77356 13.2929L9.21218 16.6214H8.33966L9.06848 12.2664H10.409L10.4465 14.9624L11.351 12.2664H12.7988L12.0777 16.6214Z" fill="white"/>
<path fill-rule="evenodd" clip-rule="evenodd" d="M14.3733 15.0437C14.2756 15.0323 14.2324 15.0292 14.1653 15.0292C13.6369 15.0292 13.3695 15.2102 13.3695 15.568C13.3695 15.7882 13.5001 15.9292 13.7038 15.9292C14.0834 15.9292 14.3571 15.5677 14.3733 15.0437ZM15.0512 16.6214C14.927 16.6214 14.2789 16.6214 14.2789 16.6214L14.2966 16.2546C14.061 16.5443 13.7466 16.6829 13.3196 16.6829C12.8144 16.6829 12.4681 16.288 12.4681 15.7151C12.4681 14.8524 13.0706 14.35 14.1047 14.35C14.2104 14.35 14.3458 14.3596 14.4847 14.3776C14.5134 14.2603 14.521 14.2105 14.521 14.1471C14.521 13.9128 14.3587 13.8255 13.9233 13.8255C13.4671 13.8201 13.0911 13.9337 12.9364 13.9843C12.9463 13.9257 13.0657 13.1879 13.0657 13.1879C13.5302 13.0517 13.8366 13.0002 14.1814 13.0002C14.9818 13.0002 15.4058 13.36 15.4051 14.039C15.4066 14.221 15.3766 14.4461 15.3296 14.7408C15.2486 15.2533 15.0749 16.3541 15.0512 16.6214Z" fill="white"/>
<path fill-rule="evenodd" clip-rule="evenodd" d="M27.5544 12.3837L27.4017 13.3288C27.0688 13.1615 26.8277 13.0938 26.5691 13.0938C25.8731 13.0938 25.3849 13.7664 25.3849 14.7258C25.3849 15.3868 25.713 15.7861 26.2549 15.7861C26.4845 15.7861 26.7381 15.7151 27.0466 15.5628L26.8828 16.5552C26.5396 16.6487 26.3175 16.6829 26.0591 16.6829C25.0554 16.6829 24.4302 15.9613 24.4302 14.8026C24.4302 13.2456 25.2945 12.1575 26.5299 12.1575C26.9369 12.1575 27.4177 12.3299 27.5544 12.3837Z" fill="white"/>
<path fill-rule="evenodd" clip-rule="evenodd" d="M29.0582 15.0437C28.961 15.0323 28.9177 15.0292 28.8507 15.0292C28.3225 15.0292 28.0551 15.2102 28.0551 15.568C28.0551 15.7882 28.1855 15.9292 28.389 15.9292C28.7686 15.9292 29.0425 15.5677 29.0582 15.0437ZM29.7366 16.6214C29.6126 16.6214 28.9644 16.6214 28.9644 16.6214L28.9819 16.2546C28.7463 16.5443 28.4319 16.6829 28.0053 16.6829C27.4995 16.6829 27.1536 16.288 27.1536 15.7151C27.1536 14.8524 27.7556 14.35 28.79 14.35C28.8957 14.35 29.0308 14.3596 29.1695 14.3776C29.1984 14.2603 29.206 14.2105 29.206 14.1471C29.206 13.9128 29.0441 13.8255 28.6084 13.8255C28.1526 13.8201 27.7767 13.9337 27.6218 13.9843C27.6315 13.9257 27.7511 13.1879 27.7511 13.1879C28.2156 13.0517 28.5217 13.0002 28.8665 13.0002C29.667 13.0002 30.0913 13.36 30.0902 14.039C30.0921 14.221 30.0619 14.4461 30.0149 14.7408C29.9342 15.2533 29.7605 16.3541 29.7366 16.6214Z" fill="white"/>
<path fill-rule="evenodd" clip-rule="evenodd" d="M19.194 16.5678C18.939 16.6481 18.7399 16.683 18.5245 16.683C18.0479 16.683 17.7876 16.409 17.7876 15.9052C17.7811 15.748 17.8564 15.3369 17.9157 14.9609C17.9693 14.6296 18.3198 12.5437 18.3198 12.5437H19.2465L19.1381 13.0797H19.6138L19.4871 13.9308H19.0098C18.9022 14.6049 18.7488 15.4435 18.7469 15.5548C18.7469 15.738 18.8447 15.8172 19.0663 15.8172C19.1725 15.8172 19.2546 15.8068 19.3177 15.7837L19.194 16.5678Z" fill="white"/>
<path fill-rule="evenodd" clip-rule="evenodd" d="M22.0354 16.5396C21.7169 16.6372 21.4094 16.6832 21.0843 16.6829C20.0467 16.6822 19.5064 16.1401 19.5064 15.1028C19.5064 13.8918 20.1941 13.0002 21.1274 13.0002C21.8921 13.0002 22.3799 13.4993 22.3799 14.2827C22.3799 14.5423 22.346 14.7956 22.2659 15.1535H20.4205C20.3579 15.6673 20.687 15.8817 21.2258 15.8817C21.5573 15.8817 21.8565 15.8131 22.1895 15.6584L22.0354 16.5396ZM21.5145 14.4392C21.5195 14.3651 21.6127 13.807 21.0832 13.807C20.7882 13.807 20.577 14.0324 20.4911 14.4392H21.5145Z" fill="white"/>
<path fill-rule="evenodd" clip-rule="evenodd" d="M15.6102 14.1993C15.6102 14.6477 15.8276 14.956 16.3203 15.1885C16.6977 15.366 16.7562 15.4185 16.7562 15.5794C16.7562 15.8002 16.5897 15.8998 16.2207 15.8998C15.9427 15.8998 15.6839 15.8566 15.3854 15.7604C15.3854 15.7604 15.2633 16.541 15.2576 16.5777C15.4693 16.6241 15.6583 16.6665 16.2274 16.6829C17.2112 16.6829 17.6655 16.3085 17.6655 15.4991C17.6655 15.0122 17.4752 14.7267 17.0083 14.5123C16.6175 14.3325 16.5726 14.2927 16.5726 14.1272C16.5726 13.9357 16.7276 13.8372 17.0289 13.8372C17.2116 13.8372 17.4617 13.8576 17.6986 13.891L17.8313 13.0696C17.5899 13.0315 17.2241 13.0002 17.0109 13.0002C15.9679 13.0002 15.6071 13.5449 15.6102 14.1993Z" fill="white"/>
<path fill-rule="evenodd" clip-rule="evenodd" d="M34.6705 16.6214H33.7888L33.8324 16.2918C33.5767 16.5649 33.3146 16.6828 32.9729 16.6828C32.2956 16.6828 31.8474 16.0991 31.8474 15.213C31.8474 14.0349 32.5422 13.0419 33.3642 13.0419C33.7257 13.0419 33.9994 13.1895 34.2543 13.5249L34.4611 12.2664H35.3805L34.6705 16.6214ZM33.2952 15.803C33.7296 15.803 34.0344 15.3111 34.0344 14.6096C34.0344 14.1595 33.8608 13.915 33.5404 13.915C33.1176 13.915 32.8174 14.4086 32.8174 15.1051C32.8174 15.5687 32.9782 15.803 33.2952 15.803Z" fill="white"/>
<path fill-rule="evenodd" clip-rule="evenodd" d="M30.5763 13.0797C30.4598 14.1759 30.2524 15.2862 30.0903 16.3833L30.0478 16.6215H30.9802C31.3137 14.4555 31.3939 14.0328 31.9171 14.0856C32.0003 13.6422 32.1554 13.254 32.2709 13.0583C31.8805 12.9769 31.6624 13.1976 31.3767 13.6169C31.3995 13.4354 31.4406 13.2594 31.4328 13.0797H30.5763Z" fill="white"/>
<path fill-rule="evenodd" clip-rule="evenodd" d="M22.9028 13.0797C22.7857 14.1759 22.5781 15.2862 22.4162 16.3833L22.3739 16.6215H23.3065C23.6402 14.4555 23.7201 14.0328 24.2426 14.0856C24.3263 13.6422 24.4817 13.254 24.5969 13.0583C24.2069 12.9769 23.9884 13.1976 23.7032 13.6169C23.7257 13.4354 23.7671 13.2594 23.7589 13.0797H22.9028Z" fill="white"/>
</g>
<defs>
<clipPath id="clip0_1_7043">
<rect width="44" height="26.4" fill="white" transform="translate(0 0.947998)"/>
</clipPath>
</defs>
</svg>
