<svg width="123" height="78" viewBox="0 0 123 78" fill="none" xmlns="http://www.w3.org/2000/svg">
<g clip-path="url(#clip0_1_6395)">
<path d="M122 39.1914C122 49.3545 115.417 58.7059 104.457 65.5674C93.5099 72.4202 78.3251 76.6914 61.5001 76.6914C44.6751 76.6914 29.4903 72.4202 18.5437 65.5674C7.58314 58.7059 1.00012 49.3545 1.00012 39.1914C1.00012 29.0283 7.58314 19.6769 18.5437 12.8154C29.4903 5.96263 44.6751 1.69141 61.5001 1.69141C78.3251 1.69141 93.5099 5.96263 104.457 12.8154C115.417 19.6769 122 29.0283 122 39.1914Z" stroke="#E0E0E0" stroke-width="2"/>
<path d="M36.3391 49.6925C39.6263 51.8904 43.1524 53.2407 46.9952 53.453V52.8048C43.3058 52.3624 39.7656 51.2689 36.3391 49.6925Z" fill="#FDB927"/>
<path d="M49.3328 26.3073L47.1391 45.1807L53.2699 44.8437L54.0573 35.1822L57.0384 44.6191L60.1416 44.3642L62.6067 36.0249L63.6191 44.1135L68.5124 43.7465L66.0377 27.9924L60.8069 27.7115L58.5007 36.418L55.9697 27.1497L49.3328 26.3073Z" fill="#808080"/>
<path d="M68.7375 28.1895L68.8616 43.7633L76.8202 43.1318L76.8086 39.9011H73.3496L73.3214 38.2441L76.4431 38.2159V34.5929L73.3496 34.5649L73.2933 33.0202L76.7806 33.1325L76.7241 29.0601L68.7375 28.1895Z" fill="#808080"/>
<path d="M84.6946 34.4713L87.4788 32.7861C86.8295 31.749 86.412 30.6564 84.6664 29.8092C83.6291 29.2472 81.794 29.0563 80.5325 29.8371C78.7023 30.8116 77.5456 32.9327 77.5514 34.8926C77.4267 36.8599 77.5032 38.8503 78.5076 40.5097C80.1764 43.2785 82.5678 43.362 84.8774 42.5319C85.9621 42.0722 87.5232 40.5578 87.5631 38.4034L87.7319 35.3701L82.951 35.2576L82.9228 38.1505L84.4133 38.1786C84.3285 38.8665 84.0985 39.3414 82.7822 39.4143C82.2741 39.3621 81.0171 39.1767 81.0668 37.5327L81.1792 34.7662C81.2076 34.1581 82.0496 33.2045 83.1196 33.2356C83.7504 33.2535 84.3228 33.5492 84.6946 34.4713Z" fill="#808080"/>
<path d="M90.4524 30.1572L87.5524 42.3079L90.3917 42.122L90.7033 40.609H92.6945L92.9144 41.924L95.4888 41.7294L93.4822 30.33L90.4524 30.1572ZM91.9067 34.1772L92.5039 37.9377L91.1795 37.9117L91.9067 34.1772Z" fill="#808080"/>
<path d="M50.2871 25.6726L48.0936 44.546L54.2243 44.209L55.0118 34.5475L57.9927 43.9843L61.0959 43.7296L63.561 35.3902L64.5735 43.4788L69.4668 43.1116L66.992 27.3576L61.7612 27.0769L59.4551 35.7834L56.9241 26.5151L50.2871 25.6726Z" fill="white"/>
<path d="M69.692 27.5547L69.816 43.1285L77.7748 42.497L77.7632 39.2663H74.304L74.276 37.6093L77.3975 37.5812V33.9581L74.304 33.9299L74.2478 32.3852L77.735 32.4977L77.6788 28.4253L69.692 27.5547Z" fill="white"/>
<path d="M85.649 33.8366L88.4333 32.1514C87.784 31.1143 87.3664 30.0215 85.621 29.1745C84.5835 28.6123 82.7484 28.4216 81.4869 29.2024C79.6567 30.1769 78.5001 32.298 78.506 34.2579C78.3813 36.2252 78.4577 38.2156 79.4622 39.875C81.1311 42.6437 83.5222 42.7273 85.8319 41.8972C86.9167 41.4374 88.4777 39.9231 88.5177 37.7685L88.6863 34.7354L83.9054 34.6229L83.8774 37.5158L85.368 37.5439C85.283 38.2316 85.053 38.7067 83.7368 38.7796C83.2287 38.7274 81.9715 38.542 82.0212 36.8978L82.1338 34.1315C82.162 33.5234 83.004 32.5698 84.0743 32.6007C84.7049 32.6188 85.2774 32.9145 85.649 33.8366Z" fill="white"/>
<path d="M91.4068 29.5219L88.5068 41.6728L91.3462 41.4868L91.6579 39.9738H93.6488L93.8688 41.2888L96.4433 41.094L94.4366 29.6948L91.4068 29.5219ZM92.8611 33.5418L93.4585 37.3026L92.134 37.2766L92.8611 33.5418Z" fill="white"/>
<path d="M50.7646 25.3545L48.5709 44.2281L54.7017 43.8911L55.4891 34.2296L58.4702 43.6663L61.5733 43.4116L64.0384 35.0723L65.0509 43.1609L69.9442 42.7937L67.4694 27.0397L62.2386 26.759L59.9325 35.4655L57.4015 26.1972L50.7646 25.3545Z" fill="#EE1D25"/>
<path d="M70.1693 27.2355L70.2933 42.8095L78.2519 42.178L78.2403 38.9473H74.7813L74.7531 37.2901L77.8748 37.2621V33.6391L74.7813 33.6109L74.7251 32.0662L78.2123 32.1787L78.1559 28.1061L70.1693 27.2355Z" fill="#EE1D25"/>
<path d="M86.1263 33.5192L88.9105 31.8341C88.2612 30.797 87.8437 29.7041 86.0981 28.8569C85.0608 28.2949 83.2257 28.1042 81.9642 28.8851C80.134 29.8595 78.9773 31.9806 78.9831 33.9406C78.8584 35.9078 78.9349 37.8981 79.9393 39.5576C81.6081 42.3264 83.9995 42.4099 86.3091 41.5798C87.3938 41.1201 88.9549 39.6057 88.9948 37.4511L89.1636 34.4178L84.3827 34.3056L84.3545 37.1984L85.845 37.2266C85.7602 37.9142 85.5302 38.3894 84.2141 38.4622C83.7058 38.41 82.4488 38.2247 82.4985 36.5805L82.6109 33.8141C82.6393 33.206 83.4813 32.2524 84.5515 32.2834C85.1821 32.3015 85.7545 32.5972 86.1263 33.5192Z" fill="#EE1D25"/>
<path d="M91.8842 29.2037L88.9841 41.3546L91.8234 41.1687L92.135 39.6557H94.1262L94.3461 40.9707L96.9205 40.7759L94.914 29.3767L91.8842 29.2037ZM93.3384 33.2237L93.9357 36.9844L92.6112 36.9584L93.3384 33.2237Z" fill="#EE1D25"/>
<path d="M52.0761 33.3506C52.0761 37.8644 48.4624 41.5235 44.0048 41.5235C39.5474 41.5235 35.9337 37.8644 35.9337 33.3506C35.9337 28.8368 39.5474 25.1777 44.0048 25.1777C48.4624 25.1777 52.0761 28.8368 52.0761 33.3506Z" fill="#FDB927"/>
<path d="M52.0761 33.3506C52.0761 37.8644 48.4624 41.5235 44.0048 41.5235C39.5474 41.5235 35.9337 37.8644 35.9337 33.3506C35.9337 28.8368 39.5474 25.1777 44.0048 25.1777C48.4624 25.1777 52.0761 28.8368 52.0761 33.3506Z" fill="url(#paint0_radial_1_6395)"/>
<path d="M52.5534 33.0332C52.5534 37.547 48.9397 41.2061 44.4821 41.2061C40.0245 41.2061 36.4108 37.547 36.4108 33.0332C36.4108 28.5194 40.0245 24.8604 44.4821 24.8604C48.9397 24.8604 52.5534 28.5194 52.5534 33.0332Z" fill="url(#paint1_radial_1_6395)"/>
<path d="M43.0996 33.5254L41.0395 32.4934L38.925 34.2192L39.703 31.8129L36.6852 30.2106L39.999 30.3139L40.6846 28.1307L41.5509 30.293L43.9196 30.2867L42.2347 31.5787L43.0996 33.5254Z" fill="#214489"/>
<path d="M46.86 29.5633L45.0797 28.8983L43.8199 30.3199L43.8834 28.2248L41.9613 26.9513L43.9816 26.8018L44.1741 25.2699L45.2231 26.7933L46.8602 26.7601L45.8953 27.9276L46.86 29.5633Z" fill="#214489"/>
<path d="M50.3318 30.2446L49.1718 30.0585L48.7836 31.3603L48.1667 29.8611L46.8775 29.5686L48.04 28.8563L47.8846 27.3455L48.8264 28.4044L49.7456 27.7684L49.4391 29.1301L50.3318 30.2446Z" fill="#214489"/>
<path d="M50.2779 35.2262L49.4773 33.7756L48.2597 33.9354L49.1262 32.8914L48.7122 31.4278L49.6495 32.1135L50.453 31.1609L50.429 32.6075L51.5148 33.2646L50.3288 33.4707L50.2779 35.2262Z" fill="#214489"/>
<path d="M44.3977 38.9946L42.8954 37.856L40.3733 39.7238L41.5155 37.2423L39.2111 35.5455L42.3169 35.6148L43.0829 33.5308L43.811 35.5423L45.7676 35.5959L44.0812 36.8048L44.3977 38.9946Z" fill="#214489"/>
<path d="M50.0899 36.193L48.4737 35.9164L48.2481 34.0109L47.3885 35.7658L45.7546 35.5908L46.8396 36.9518L46.0554 38.7492L47.5856 37.8356L48.6684 39.014L48.5954 37.1956L50.0899 36.193Z" fill="#214489"/>
<path d="M41.6076 42.797C46.6982 45.3057 51.6817 42.63 53.128 37.9921C50.6629 41.847 44.6723 43.23 41.6076 42.797Z" fill="#FDB927"/>
<path d="M35.7928 29.8037C36.3163 28.1676 37.8938 26.0676 39.6181 25.5298C39.0451 25.1765 36.0246 22.7784 31.188 23.5768C26.8241 24.5761 27.2874 29.5376 27.9225 31.544C27.9683 30.3438 27.8399 28.7095 28.5837 27.7567C28.9513 27.3427 31.1839 26.3977 35.5603 29.6119C35.9102 29.8664 34.8064 29.0195 35.7928 29.8037Z" fill="#FDB927"/>
<path d="M35.0164 30.906C33.6847 29.6603 32.1858 28.7026 30.3328 27.9777C28.1126 37.5478 36.6356 44.7746 42.068 48.4136C37.548 47.5898 25.8704 39.8042 25.9978 28.9075C25.971 28.1641 26.4769 22.7225 32.4211 22.5435C36.246 22.6209 37.8598 23.4809 39.4238 24.2062" stroke="#FDB927" stroke-width="2.95"/>
<path d="M34.8206 31.1208L35.4145 31.6649L35.5796 30.9985L35.1796 30.6625L34.9247 30.852L34.7961 30.9863L34.8206 31.1208Z" fill="#FDB927"/>
<path d="M39.2769 24.4583C39.7106 24.6961 40.1359 24.9356 40.544 25.1789L41.4438 24.9833C40.7939 24.6321 39.9953 24.1302 39.5142 23.9294L39.3258 24.152L39.2769 24.4583Z" fill="#FDB927"/>
<path d="M40.3413 48.2044C41.3942 48.6435 43.434 49.1349 45.0784 49.0398C43.3622 48.6854 42.9374 48.6992 41.633 47.7738L40.8802 47.864L40.3413 48.2044Z" fill="#FDB927"/>
<path d="M29.2387 28.2786C28.3997 31.1127 29.021 34.4005 30.5608 38.1083C28.7811 35.0758 26.2099 32.0882 29.2387 28.2786Z" fill="#EE1D25"/>
<path d="M35.4575 26.7136C33.6335 30.0109 33.2206 33.3603 34.9189 36.788C33.9839 33.4299 34.3053 30.0717 35.4575 26.7136Z" fill="#EE1D25"/>
<path d="M96.0818 44.0895L95.6062 45.4193L94.8455 45.0963C94.2226 44.9486 94.151 45.6843 94.4839 45.7422L95.2258 45.9321C95.6816 46.0786 95.855 46.4267 95.9487 46.654C96.1631 47.4069 95.9806 47.7195 95.8915 48.1355C95.5966 48.9307 95.0394 49.2731 94.3508 49.3893C93.4865 49.5175 93.05 49.3463 92.525 49.2372L93.1145 47.6417C93.2222 48.0549 93.7084 48.0671 93.8374 48.0975C94.1252 48.171 94.3546 48.0547 94.465 47.9076C94.6246 47.6314 94.4435 47.4388 94.2749 47.3757L93.438 47.2048C92.934 47.0706 92.7928 46.4588 92.7056 46.0936C92.6498 45.608 92.7078 45.1765 92.9577 44.76C93.1544 44.3885 93.3849 44.1401 93.7321 43.8768C94.051 43.665 94.6179 43.5807 95.0546 43.6526C95.7599 43.7984 95.798 43.944 96.0818 44.0895Z" fill="#808080"/>
<path d="M47.4027 46.2031L46.082 55.8393L50.308 55.2848L50.4112 50.3067L52.5757 54.9234L54.7749 54.645L56.3116 49.758L57.0836 54.3371L60.3079 53.8559L58.5095 45.8036L54.7708 45.8585L53.4528 50.8197L51.7686 46.0199L47.4027 46.2031Z" fill="#808080"/>
<path d="M61.1523 45.6657L64.4942 45.4252L64.6074 53.251L61.4691 53.7007L61.1523 45.6657Z" fill="#808080"/>
<path d="M65.83 45.329L68.8764 45.1646L68.9078 50.3051L71.2598 50.0692L71.2508 52.3787L65.8697 53.1407L65.83 45.329Z" fill="#808080"/>
<path d="M77.2988 44.7651L79.6156 44.5841L79.6414 51.2462L77.2988 51.611V44.7651Z" fill="#808080"/>
<path d="M86.3049 48.8278C85.4739 50.5275 83.5554 51.3491 82.0196 50.6628C80.4839 49.9768 79.9125 48.0426 80.7435 46.3429C81.5745 44.6431 83.4932 43.8217 85.0289 44.5078C86.5646 45.1941 87.1359 47.1282 86.3049 48.8278Z" fill="#808080"/>
<path d="M71.9608 45.0697L74.5456 44.9163L74.5722 49.7149L76.5681 49.4947L76.5604 51.6504L71.9945 52.3619L71.9608 45.0697Z" fill="#808080"/>
<path d="M87.2825 44.1039L87.2358 50.2451L88.8993 50.0212L88.9553 46.8104L90.3198 49.7785L92.0768 49.6664L92.2076 43.8612L90.5441 43.9546L90.6096 47.2398L89.0675 44.0013L87.2825 44.1039Z" fill="#808080"/>
<path d="M96.7149 43.492L96.2394 44.8216L95.4784 44.4988C94.8557 44.351 94.7841 45.0867 95.1171 45.1447L95.8589 45.3346C96.3147 45.4811 96.4881 45.8292 96.5818 46.0563C96.796 46.8091 96.6137 47.122 96.5246 47.538C96.2297 48.333 95.6723 48.6753 94.9839 48.7918C94.1194 48.9198 93.6831 48.7488 93.1581 48.6397L93.7476 47.0441C93.8553 47.4574 94.3415 47.4694 94.4705 47.5C94.7583 47.5734 94.9877 47.4572 95.0981 47.3101C95.2577 47.0337 95.0766 46.8413 94.9078 46.7782L94.0709 46.6072C93.5672 46.4731 93.4259 45.8613 93.3388 45.4961C93.2827 45.0103 93.3407 44.5789 93.5908 44.1623C93.7875 43.791 94.0179 43.5426 94.3652 43.2791C94.6841 43.0675 95.2508 42.9832 95.6877 43.0551C96.3928 43.2007 96.4309 43.3464 96.7149 43.492Z" fill="white"/>
<path d="M48.0013 45.6397L46.6804 55.2759L50.9065 54.7214L51.0096 49.7433L53.1744 54.3598L55.3734 54.0816L56.9103 49.1944L57.6821 53.7736L60.9064 53.2925L59.1079 45.24L55.3693 45.2949L54.0513 50.2563L52.3671 45.4565L48.0013 45.6397Z" fill="white"/>
<path d="M61.7161 45.103L65.0581 44.8623L65.1711 52.6883L62.033 53.138L61.7161 45.103Z" fill="white"/>
<path d="M66.394 44.6266L69.4402 44.4622L69.4718 49.6028L71.8237 49.367L71.8146 51.6764L66.4337 52.4385L66.394 44.6266Z" fill="white"/>
<path d="M77.9691 44.0959L80.2857 43.9149L80.3117 50.5768L77.9691 50.9416V44.0959Z" fill="white"/>
<path d="M86.9753 48.1587C86.1444 49.8582 84.2256 50.6798 82.6899 49.9937C81.1542 49.3075 80.583 47.3733 81.414 45.6736C82.2449 43.974 84.1635 43.1524 85.6992 43.8387C87.2349 44.5248 87.8063 46.4589 86.9753 48.1587Z" fill="white"/>
<path d="M72.6284 44.4023L75.2134 44.2489L75.2401 49.0477L77.2357 48.8275L77.2281 50.9832L72.6621 51.6947L72.6284 44.4023Z" fill="white"/>
<path d="M87.9504 43.5054L87.9037 49.6464L89.567 49.4224L89.6232 46.2119L90.9875 49.1798L92.7445 49.0679L92.8753 43.2627L91.2118 43.3561L91.2773 46.6413L89.7353 43.4027L87.9504 43.5054Z" fill="white"/>
<path d="M97.0033 43.2398L96.5277 44.5696L95.767 44.2466C95.1441 44.099 95.0725 44.8345 95.4057 44.8925L96.1475 45.0823C96.6033 45.2291 96.7765 45.5772 96.8702 45.8043C97.0846 46.5571 96.9021 46.8697 96.8132 47.2859C96.5183 48.081 95.9609 48.4233 95.2725 48.5395C94.408 48.6678 93.9717 48.4966 93.4465 48.3877L94.0362 46.7919C94.1439 47.2052 94.6299 47.2174 94.7589 47.2479C95.0469 47.3212 95.2761 47.205 95.3865 47.0578C95.5461 46.7817 95.3652 46.589 95.1964 46.526L94.3595 46.355C93.8555 46.2211 93.7143 45.6091 93.6271 45.2439C93.5713 44.7583 93.6293 44.3269 93.8794 43.9103C94.0759 43.5388 94.3064 43.2904 94.6536 43.0271C94.9725 42.8153 95.5394 42.731 95.9763 42.8029C96.6814 42.9487 96.7195 43.0942 97.0033 43.2398Z" fill="#33337A"/>
<path d="M48.3246 45.354L47.0037 54.9901L51.2297 54.4358L51.3329 49.4575L53.4976 54.0741L55.6966 53.796L57.2335 48.9087L58.0053 53.4879L61.2296 53.0067L59.4312 44.9543L55.6925 45.0093L54.3745 49.9704L52.6903 45.1708L48.3246 45.354Z" fill="#33337A"/>
<path d="M62.0739 44.885L65.4159 44.6445L65.5289 52.4705L62.3906 52.9201L62.0739 44.885Z" fill="#33337A"/>
<path d="M66.7516 44.4787L69.798 44.3142L69.8294 49.4548L72.1815 49.2188L72.1724 51.5284L66.7913 52.2905L66.7516 44.4787Z" fill="#33337A"/>
<path d="M78.2205 43.9153L80.5371 43.7343L80.563 50.3963L78.2205 50.7611V43.9153Z" fill="#33337A"/>
<path d="M87.2266 47.9782C86.3956 49.6778 84.4771 50.4994 82.9413 49.8131C81.4056 49.127 80.8342 47.1929 81.6652 45.4931C82.4964 43.7936 84.4149 42.972 85.9506 43.6581C87.4864 44.3443 88.0576 46.2785 87.2266 47.9782Z" fill="#33337A"/>
<path d="M72.8822 44.1853L75.4672 44.0319L75.4939 48.8305L77.4895 48.6105L77.5166 50.8009L72.9159 51.4777L72.8822 44.1853Z" fill="#33337A"/>
<path d="M88.204 43.2542L88.1575 49.3954L89.8208 49.1714L89.877 45.9609L91.2413 48.9287L92.9983 48.8167L93.1291 43.0115L91.4656 43.1048L91.5311 46.3901L89.989 43.1515L88.204 43.2542Z" fill="#33337A"/>
<path d="M84.6975 44.3544L84.2025 45.9139L82.0697 46.1041L83.7835 47.131L83.3265 49.0328L84.7737 47.7397L86.1068 48.3481L85.6118 46.9409L86.7924 45.7998L85.3451 45.8758L84.6975 44.3544Z" fill="white"/>
</g>
<defs>
<radialGradient id="paint0_radial_1_6395" cx="0" cy="0" r="1" gradientUnits="userSpaceOnUse" gradientTransform="translate(40.7549 30.7308) rotate(71.5003) scale(8.56396 9.20387)">
<stop stop-color="#FFF6D5"/>
<stop offset="1" stop-color="#FFF6D5" stop-opacity="0"/>
</radialGradient>
<radialGradient id="paint1_radial_1_6395" cx="0" cy="0" r="1" gradientUnits="userSpaceOnUse" gradientTransform="translate(41.3606 30.7583) rotate(74.9811) scale(3.46522 4.17195)">
<stop stop-color="#FFF6D5"/>
<stop offset="1" stop-color="#FFF6D5" stop-opacity="0"/>
</radialGradient>
<clipPath id="clip0_1_6395">
<rect width="123" height="77" fill="white" transform="translate(0 0.691406)"/>
</clipPath>
</defs>
</svg>
