<svg width="70" height="71" viewBox="0 0 70 71" fill="none" xmlns="http://www.w3.org/2000/svg">
<g clip-path="url(#clip0_1_4118)">
<path d="M26.3519 60.4558C26.2354 60.5137 26.1135 60.5606 25.9878 60.5959H25.9303C26.09 60.5538 26.2443 60.4943 26.3903 60.4185L26.3519 60.4558Z" fill="#56779C"/>
<path d="M25.1445 60.6707H24.9337H24.7804C24.9563 60.7114 25.1362 60.7333 25.317 60.736L25.1445 60.6707Z" fill="#56779C"/>
<path d="M25.614 60.6613H25.3649C25.526 60.657 25.6864 60.6383 25.844 60.6052L25.614 60.6613Z" fill="#56779C"/>
<path d="M9.70709 53.1541C9.76556 53.2074 9.82982 53.2544 9.89874 53.2941C9.82982 53.2544 9.76556 53.2074 9.70709 53.1541Z" fill="#56779C"/>
<path d="M58.0507 42.2742C58.0543 42.302 58.0543 42.3304 58.0507 42.3582C58.0525 42.3737 58.0525 42.3894 58.0507 42.4049C58.0555 42.3615 58.0555 42.3175 58.0507 42.2742Z" fill="#56779C"/>
<path d="M9.67835 53.1354C9.6432 53.0876 9.61119 53.0377 9.58252 52.986C9.61119 53.0377 9.6432 53.0876 9.67835 53.1354Z" fill="#56779C"/>
<path d="M9.58252 52.986C9.55248 52.9432 9.52982 52.8959 9.51544 52.8459C9.52982 52.8959 9.55248 52.9432 9.58252 52.986Z" fill="#56779C"/>
<path d="M24.7228 60.6053L24.4928 60.5399C24.4161 60.5399 24.3395 60.4745 24.2628 60.4279C24.4158 60.5123 24.5804 60.5752 24.7515 60.6146L24.7228 60.6053Z" fill="#56779C"/>
<path d="M52.4161 54.7874C52.5215 54.7314 52.5598 54.6754 52.5598 54.638C52.5598 54.6006 52.5598 54.5446 52.4257 54.4886L47.8165 51.8738C47.6527 51.7956 47.4718 51.7572 47.2895 51.7618C47.1027 51.7552 46.9175 51.7971 46.7528 51.8832L40.0451 55.6185C39.9397 55.6746 39.8918 55.7306 39.8918 55.7679C39.8918 55.8053 39.8918 55.8613 40.0355 55.9174L44.683 58.5228C44.8431 58.6118 45.0261 58.6539 45.2101 58.6441C45.3969 58.6517 45.5823 58.6097 45.7467 58.5228L52.4161 54.7874Z" fill="#007695"/>
<path d="M52.5503 54.2272L47.9123 51.6218C47.71 51.5179 47.4847 51.4636 47.2559 51.4636C47.0272 51.4636 46.8019 51.5179 46.5996 51.6218L39.8918 55.3571C39.5277 55.5625 39.5181 55.8987 39.8918 56.1042L44.501 58.7096C44.7039 58.8166 44.9315 58.8713 45.1622 58.8683C45.3958 58.87 45.6262 58.8155 45.833 58.7096L52.5407 54.9742C52.924 54.7875 52.9144 54.4326 52.5503 54.2272ZM44.6831 58.5228L40.0739 55.9174C39.9685 55.8614 39.9301 55.8053 39.9301 55.768C39.9301 55.7306 39.9301 55.6746 40.0835 55.6186L46.7912 51.8832C46.9559 51.7971 47.1411 51.7552 47.3278 51.7618C47.5102 51.7572 47.691 51.7957 47.8549 51.8739L52.464 54.4886C52.5598 54.5447 52.5982 54.6007 52.5982 54.6381C52.5982 54.6754 52.5982 54.7314 52.4544 54.7875L45.7467 58.5228C45.5824 58.6098 45.3969 58.6517 45.2101 58.6442C45.0261 58.654 44.8431 58.6118 44.6831 58.5228Z" fill="#232323"/>
<path d="M3.30604 53.7976C3.40862 54.0206 3.58375 54.2044 3.80433 54.3206L28.3546 68.2346C28.4219 68.2744 28.4924 68.3088 28.5654 68.3374C28.6414 68.3751 28.7218 68.4033 28.805 68.4214L28.9487 68.4681H29.0158H29.2171H29.4279H29.8782H30.1657H30.2903H30.434C30.6258 68.4273 30.81 68.358 30.9802 68.2627L69.4347 46.5978L69.6168 46.4857L69.6743 46.4297C69.6743 46.4297 69.6743 46.383 69.7413 46.355C69.7674 46.3165 69.7898 46.2759 69.8084 46.2336C69.813 46.1932 69.813 46.1525 69.8084 46.1122V47.2328C69.8084 47.2328 69.8084 47.3075 69.8084 47.3355C69.8084 47.3635 69.8084 47.3915 69.8084 47.4195C69.7992 47.4638 69.7795 47.5054 69.7509 47.5409L69.6838 47.6157L69.6168 47.681H69.5593L69.3772 47.8024L30.9898 69.3833C30.8185 69.4764 30.6347 69.5455 30.4436 69.5887H30.2999H30.1657C30.0733 69.5984 29.9802 69.5984 29.8878 69.5887L29.7058 69.7288H29.4854H29.2841C29.2174 69.7385 29.1496 69.7385 29.0829 69.7288H29.0158C28.9632 69.7144 28.9119 69.6957 28.8625 69.6727C28.7843 69.6488 28.7075 69.6208 28.6325 69.5887C28.5654 69.5887 28.4792 69.5887 28.4217 69.5047L3.83307 56.8512C3.68684 56.7826 3.56088 56.6789 3.46702 56.5499C3.37316 56.4209 3.31447 56.2707 3.29645 56.1135C3.29645 55.2731 3.29645 54.442 3.29645 53.6015C3.28591 53.6668 3.28917 53.7336 3.30604 53.7976Z" fill="#0A1D23"/>
<path d="M27.3485 55.2357L31.469 57.5703L28.7475 59.1111L24.6271 56.7672L27.3485 55.2357Z" fill="#00586F"/>
<path d="M40.9554 47.5784L45.0759 49.9129L42.3545 51.4444L38.234 49.1099L40.9554 47.5784Z" fill="#00586F"/>
<path d="M23.9563 57.1501L28.0672 59.4567L26.3902 60.3905C26.2443 60.4664 26.09 60.5259 25.9303 60.568H25.8153C25.6577 60.601 25.4973 60.6197 25.3362 60.624C25.1554 60.6212 24.9755 60.5993 24.7995 60.5586C24.6284 60.5192 24.4639 60.4563 24.3108 60.3719L21.254 58.6443L23.9563 57.1501Z" fill="#00586F"/>
<path d="M37.5538 49.502L41.6743 51.8272L38.9529 53.3587L34.8324 51.0241L37.5538 49.502Z" fill="#00586F"/>
<path d="M19.8166 54.8154L23.3238 56.8045L20.6024 58.336L20.5928 58.3453L17.076 56.3562H17.0952L19.8166 54.8154Z" fill="#00586F"/>
<path d="M15.6865 52.481L19.2032 54.47L16.4722 56.0015L16.4626 56.0108L12.9554 54.0218L12.9746 54.0124L15.6865 52.481Z" fill="#00586F"/>
<path d="M44.3573 45.6733L48.4777 48.0079L45.7659 49.5301L41.6359 47.1955L44.3573 45.6733Z" fill="#00586F"/>
<path d="M51.1608 41.8352L55.2908 44.1698L52.5694 45.7013L48.4393 43.3667L51.1608 41.8352Z" fill="#00586F"/>
<path d="M30.7501 53.3307L34.8706 55.6559L32.1492 57.1874L28.0287 54.8528L30.7501 53.3307Z" fill="#00586F"/>
<path d="M47.7591 43.7495L51.8892 46.0841L49.1582 47.6156L45.0377 45.281L47.7591 43.7495Z" fill="#00586F"/>
<path d="M40.2944 42.601L36.7872 40.6119L39.5087 39.0804L43.0254 41.0695L40.2944 42.601Z" fill="#00586F"/>
<path d="M43.6002 36.7832L46.3025 35.2611L49.8097 37.2502L47.1074 38.7723L43.6002 36.7832Z" fill="#00586F"/>
<path d="M33.4907 46.4297L29.9835 44.4407L32.7049 42.9092L36.2121 44.8982L33.4907 46.4297Z" fill="#00586F"/>
<path d="M30.0891 48.3347L26.5819 46.355L29.3033 44.8235L32.8105 46.8125L30.0891 48.3347Z" fill="#00586F"/>
<path d="M23.2854 52.1728L19.7782 50.1837L22.4996 48.6522L26.0068 50.6413L23.2854 52.1728Z" fill="#00586F"/>
<path d="M39.5757 38.3521L36.0685 36.363L38.7899 34.8315L42.2971 36.8206L39.5757 38.3521Z" fill="#00586F"/>
<path d="M36.9021 44.5061L33.3949 42.5264L36.1067 40.9949L39.6139 42.9839L36.9021 44.5061Z" fill="#00586F"/>
<path d="M47.7208 39.1178L50.4231 37.5957L53.9399 39.5848L51.228 41.1069L47.7208 39.1178Z" fill="#00586F"/>
<path d="M19.8838 54.0872L16.3766 52.1075L19.098 50.5667L22.6052 52.5557L19.8838 54.0872Z" fill="#00586F"/>
<path d="M26.7351 54.8902L24.0137 56.4217L20.4969 54.442L23.2184 52.9011L26.7351 54.8902Z" fill="#00586F"/>
<path d="M36.1738 40.2664L32.6666 38.2773L35.3881 36.7458L38.8952 38.7256L36.1738 40.2664Z" fill="#00586F"/>
<path d="M43.6385 41.415L47.1457 43.4041L44.4243 44.9356L40.9171 42.9465L43.6385 41.415Z" fill="#00586F"/>
<path d="M26.6872 50.2583L23.1801 48.2693L25.9015 46.7378L29.4087 48.7269L26.6872 50.2583Z" fill="#00586F"/>
<path d="M26.6202 50.9961L30.137 52.9758L27.4156 54.5073L23.8988 52.5182L26.6202 50.9961Z" fill="#00586F"/>
<path d="M33.4236 47.1675L36.9404 49.1472L34.219 50.6787L30.7118 48.6896L33.4236 47.1675Z" fill="#00586F"/>
<path d="M30.0314 49.0725L33.5386 51.0616L30.8172 52.593L27.3004 50.604L30.0314 49.0725Z" fill="#00586F"/>
<path d="M39.4703 34.4487L41.1089 33.5149C41.4385 33.3517 41.8029 33.2666 42.1726 33.2666C42.5423 33.2666 42.9067 33.3517 43.2362 33.5149L45.6798 34.897L42.9775 36.4191L39.4703 34.4487Z" fill="#00586F"/>
<path d="M40.2369 43.3293L43.7441 45.3184L41.0227 46.8499L37.5155 44.8608L40.2369 43.3293Z" fill="#00586F"/>
<path d="M9.89873 51.0522L11.5661 50.1184L15.0733 52.1075L12.3518 53.667L9.9179 52.2849C9.84898 52.2451 9.78472 52.1982 9.72625 52.1448C9.67427 52.0955 9.62622 52.0425 9.58251 51.9861C9.55248 51.9433 9.52982 51.8959 9.51544 51.846C9.51544 51.846 9.51544 51.79 9.51544 51.7526C9.49629 51.6115 9.52295 51.4681 9.5917 51.3425C9.66044 51.2168 9.76781 51.1154 9.89873 51.0522Z" fill="#00586F"/>
<path d="M58.0218 42.4329C57.9799 42.5463 57.907 42.6464 57.811 42.7224C57.7496 42.7764 57.6821 42.8234 57.6098 42.8625L55.9808 43.7963L51.8507 41.4617L54.5625 39.9396L57.6098 41.7139C57.7311 41.7664 57.8359 41.8494 57.9133 41.9544C57.9908 42.0595 58.0382 42.1827 58.0506 42.3115C58.0465 42.353 58.0368 42.3938 58.0218 42.4329Z" fill="#00586F"/>
<path d="M19.165 49.8382L15.6578 47.8491L18.3697 46.3176L21.8769 48.3067L19.165 49.8382Z" fill="#00586F"/>
<path d="M15.7536 51.7525L12.2465 49.7634L14.9679 48.2319L18.4847 50.221L15.7536 51.7525Z" fill="#00586F"/>
<path d="M25.9685 46.0002L22.4613 44.0205L25.1731 42.489L28.6899 44.4781L25.9685 46.0002Z" fill="#00586F"/>
<path d="M22.5669 47.9239L19.0597 45.9348L21.7811 44.4033L25.2883 46.3924L22.5669 47.9239Z" fill="#00586F"/>
<path d="M29.3703 44.0951L25.8632 42.1061L28.5846 40.5746L32.0918 42.5636L29.3703 44.0951Z" fill="#00586F"/>
<path d="M34.152 51.407L38.2724 53.7416L35.551 55.2731L31.4305 52.9385L34.152 51.407Z" fill="#00586F"/>
<path d="M36.8351 45.2437L40.3423 47.2327L37.6208 48.7642L34.1136 46.7751L36.8351 45.2437Z" fill="#00586F"/>
<path d="M32.7722 42.1714L29.265 40.1916L31.9864 38.6602L35.4936 40.6492L32.7722 42.1714Z" fill="#00586F"/>
<path d="M40.1986 38.6975L42.9105 37.166L46.4272 39.1551L43.7058 40.6866L40.1986 38.6975Z" fill="#00586F"/>
<path d="M44.319 41.0322L47.0404 39.5007L50.5476 41.4898L47.8262 43.0213L44.319 41.0322Z" fill="#00586F"/>
<path d="M51.8411 41.4525L54.553 39.9303L53.9397 39.5848L51.2279 41.1069L47.7207 39.1179L50.4229 37.5957L49.8288 37.2409L47.1266 38.763L43.6002 36.7833L46.3025 35.2612L45.6796 34.9156L42.9773 36.4378L39.4702 34.4487L38.7898 34.8316L42.297 36.8207L39.5756 38.3521L36.0684 36.3631L35.388 36.746L38.8952 38.735L36.1738 40.2665L32.6666 38.2774L31.9862 38.6603L35.4551 40.6494L32.772 42.1715L29.2648 40.1918L28.5845 40.5747L32.0916 42.5637L29.3702 44.0952L25.8726 42.1061L25.1923 42.489L28.6899 44.5154L25.9684 46.0002L22.4613 44.0205L21.7809 44.4034L25.2881 46.3831L22.5667 47.9146L19.0595 45.9255L18.3791 46.3084L21.8863 48.2974L19.1649 49.8383L15.6577 47.8492L14.9773 48.2321L18.4845 50.2211L15.7631 51.7526L12.2559 49.7636L11.5756 50.1464L15.0827 52.1355L12.3517 53.667L12.9746 54.0125L15.696 52.481L19.1649 54.4701L16.4722 56.0016L17.0855 56.3471L19.8165 54.7876L23.3237 56.7766L20.6023 58.3361L21.2155 58.691L23.9561 57.1502L28.067 59.4567L28.7474 59.0739L24.6269 56.7299L27.3483 55.1985L31.4688 57.533L32.1491 57.1502L28.0287 54.8156L30.7501 53.2934L34.8706 55.6187L35.5509 55.2358L31.4305 52.9199L34.1519 51.3884L38.2723 53.723L38.9527 53.3401L34.8322 51.0523L37.5537 49.5208L41.6741 51.8553L42.3545 51.4725L38.234 49.1379L40.9554 47.6064L45.0759 49.941L45.7658 49.5581L41.6358 47.2235L44.3572 45.7014L48.4777 48.036L49.158 47.6438L45.0376 45.2812L47.759 43.7497L51.889 46.0843L52.5694 45.7014L48.4394 43.3668L51.1608 41.8353L55.2908 44.1699L55.9712 43.787L51.8411 41.4525ZM40.9171 42.9466L43.6385 41.4151L47.1457 43.4042L44.4243 44.9357L40.9171 42.9466ZM37.5153 44.8143L40.2463 43.3295L43.7535 45.3185L41.0225 46.85L37.5153 44.8143ZM34.1135 46.7753L36.835 45.2438L40.3422 47.2329L37.6207 48.7644L34.1135 46.7753ZM30.7118 48.643L33.4236 47.1115L36.9404 49.1846L34.219 50.6787L30.7118 48.643ZM27.3004 50.5573L30.0314 49.0258L33.5386 51.0523L30.8172 52.5837L27.3004 50.5573ZM23.8986 52.425L26.6201 50.9028L30.1368 52.8826L27.4154 54.5074L23.8986 52.425ZM20.4968 54.2926L23.2183 52.9199L26.735 54.909L24.0136 56.4405L20.4968 54.2926ZM22.605 52.425L19.8836 53.9565L16.3764 51.9674L19.0978 50.4359L22.605 52.425ZM26.0068 50.5573L23.2853 52.1728L19.7782 50.1838L22.4996 48.6523L26.0068 50.5573ZM29.4086 48.643L26.6871 50.1745L23.1799 48.2508L25.8726 46.738L29.4086 48.643ZM32.8103 46.7753L30.0889 48.3441L26.5817 46.3831L29.3031 44.8516L32.8103 46.7753ZM36.2121 44.8609L33.5386 46.4298L30.0314 44.4407L32.7528 42.9092L36.2121 44.8609ZM39.6139 42.9933L36.902 44.5154L33.3949 42.5357L36.1067 41.0042L39.6139 42.9933ZM43.0253 41.1256L40.2942 42.6478L36.7871 40.6587L39.5181 39.1272L43.0253 41.1256ZM46.4174 39.2113L43.7056 40.6867L40.2463 38.6977L42.9678 37.1662L46.4174 39.2113ZM50.5475 41.5458L47.8261 43.0213L44.3189 41.0322L47.0403 39.5008L50.5475 41.5458Z" fill="#0A1D23"/>
<path d="M9.46741 51.762C9.46741 51.762 9.46741 51.8273 9.46741 51.8553C9.49727 51.9054 9.53623 51.9497 9.5824 51.9861C9.61792 52.0319 9.65632 52.0756 9.69739 52.1168C9.75586 52.1702 9.82012 52.2171 9.88904 52.2569L12.323 53.639L12.9458 53.9845L16.453 55.9735L17.0663 56.3191L20.5831 58.3081L21.1964 58.663L24.2628 60.3906C24.3394 60.3906 24.4161 60.4653 24.4927 60.5026L24.7227 60.568H24.7802H24.9335H25.1443H25.3647H25.6139H25.8151H25.9301H25.9876C26.1133 60.5327 26.2352 60.4858 26.3517 60.4279L28.0287 59.4941L28.709 59.1112L31.4688 57.5891L32.1491 57.2062L34.8706 55.6747L35.5509 55.2918L38.2723 53.7604L38.9527 53.3775L41.6741 51.846L42.3545 51.4631L45.0376 49.913L45.7275 49.5301L48.4393 48.008L49.1197 47.6158L51.8507 46.0843L52.5311 45.7014L55.2525 44.1699L55.9328 43.787L57.5619 42.8532C57.6342 42.8142 57.7017 42.7672 57.7631 42.7131C57.8065 42.6775 57.8451 42.6367 57.8781 42.5917C57.9041 42.5533 57.9265 42.5127 57.9452 42.4703C57.9475 42.4549 57.9475 42.4391 57.9452 42.4236C57.9498 42.3958 57.9498 42.3674 57.9452 42.3396V43.3295C57.9452 43.3295 57.9452 43.3295 57.9452 43.3855C57.9498 43.4133 57.9498 43.4417 57.9452 43.4695C57.9338 43.5102 57.9143 43.5483 57.8877 43.5816C57.8572 43.6285 57.8182 43.6697 57.7727 43.703C57.7113 43.757 57.6438 43.804 57.5714 43.8431L26.3996 61.4365H26.3517L25.9972 61.5672H25.9301H25.8151H25.6139C25.5309 61.5718 25.4477 61.5718 25.3647 61.5672H25.1923H24.9814H24.8377H24.7802C24.7015 61.5449 24.6246 61.5168 24.5502 61.4832C24.4684 61.4608 24.3883 61.4327 24.3107 61.3991L9.93695 53.2561C9.81504 53.2044 9.70973 53.1216 9.63214 53.0164C9.55455 52.9112 9.50756 52.7875 9.49615 52.6584V51.6873C9.49615 51.6873 9.46741 51.7433 9.46741 51.762Z" fill="#0A1D23"/>
<path d="M1.10205 24.0271C1.09789 23.9743 1.09789 23.9212 1.10205 23.8684C1.09729 23.8249 1.09729 23.7811 1.10205 23.7376V23.5976V23.4762V23.4014C1.10205 23.4014 1.10205 23.3267 1.10205 23.2894C1.10745 23.2554 1.10745 23.2207 1.10205 23.1867C1.10564 23.1525 1.10564 23.1181 1.10205 23.0839L1.15955 22.9812C1.15955 22.9812 1.15955 22.9159 1.20746 22.8878C1.20746 22.8878 1.20746 22.8878 1.20746 22.8412L1.27454 22.7384C1.29113 22.7009 1.31377 22.6662 1.34161 22.6357L1.41827 22.5517C1.56538 22.4271 1.73412 22.329 1.91656 22.2622V22.2155L2.05072 22.1034C2.15182 22.0093 2.26447 21.9278 2.3861 21.8606L40.8789 0.177062C40.9425 0.141647 41.01 0.113449 41.0801 0.0930176H41.2047H41.3101H41.3868H41.6168H41.7126H41.7797L42.1055 0.279784L42.278 0.382505L42.7283 0.63464H42.7858H42.7187H42.6613H42.5942H42.5175H42.3642H42.278H42.1821L42.163 0.625301H42.1055C42.0413 0.645587 41.9801 0.673834 41.9234 0.709346L37.7838 3.09995L3.45934 22.4116C3.33924 22.481 3.22685 22.5624 3.12395 22.6544C3.08713 22.684 3.05486 22.7186 3.02813 22.7571L2.97063 22.8038C2.93036 22.8432 2.89498 22.8871 2.86523 22.9345L2.74065 23.0373C2.712 23.0692 2.68635 23.1036 2.66399 23.14L2.59692 23.2427V23.2894C2.59526 23.3236 2.59526 23.3579 2.59692 23.3921C2.57719 23.4213 2.56111 23.4526 2.549 23.4855C2.54558 23.5103 2.54558 23.5354 2.549 23.5602C2.55066 23.5944 2.55066 23.6287 2.549 23.6629C2.549 23.6629 2.549 23.7376 2.549 23.775C2.55312 23.8122 2.55312 23.8498 2.549 23.887V24.0084V24.1485C2.549 24.1952 2.549 24.2326 2.549 24.2792C2.54438 24.3321 2.54438 24.3852 2.549 24.438L2.61608 47.5223V52.1074C2.60456 52.2656 2.63459 52.4241 2.70333 52.5679C2.77207 52.7117 2.87725 52.836 3.00896 52.9292C1.91656 52.7051 1.1308 52.2755 0.383365 51.8553C0.256257 51.7628 0.154697 51.641 0.0877975 51.5008C0.0208985 51.3607 -0.00924692 51.2065 6.61166e-05 51.0522L1.10205 24.0271Z" fill="#004253"/>
<path d="M2.21368 47.7091L2.14661 24.6248C2.14661 24.5314 2.15619 24.438 2.22327 24.2512C2.26046 24.0358 2.32483 23.8256 2.41492 23.6256C2.46283 23.5228 2.56824 23.4201 2.56824 23.3267L2.74072 23.0653C2.79927 22.9834 2.86329 22.9054 2.93237 22.8318L2.98986 22.7851C3.03216 22.7392 3.07694 22.6956 3.12402 22.6544C3.22691 22.5624 3.33931 22.481 3.45941 22.4116L37.7838 3.09994L41.9139 0.821386C42.1103 0.70621 42.3363 0.647908 42.5655 0.653297C42.6657 0.658108 42.7636 0.68357 42.853 0.728003C42.9861 0.82204 43.0922 0.947891 43.161 1.09345C43.2298 1.23901 43.259 1.39937 43.2458 1.55911L43.3225 29.2192C43.2982 29.6142 43.1913 30.0002 43.0084 30.3535C42.8255 30.7067 42.5704 31.0199 42.2588 31.2736C42.1797 31.3349 42.0965 31.3911 42.0097 31.4417L3.52648 53.0319C3.37255 53.1249 3.19884 53.1824 3.01861 53.2C2.53949 53.2 2.21368 52.8732 2.21368 52.2662V47.7091Z" fill="#007695"/>
<path d="M40.9843 4.82745C40.9741 4.77304 40.9581 4.71982 40.9364 4.6687C40.9581 4.71982 40.9741 4.77304 40.9843 4.82745Z" fill="white"/>
<path d="M39.8535 4.42596L38.7899 5.03295L5.50036 23.7563C5.16636 23.97 4.88838 24.2571 4.6887 24.5944C4.48901 24.9317 4.37317 25.3099 4.35046 25.6986L4.41754 47.541V48.7549C4.40652 48.8418 4.40652 48.9296 4.41754 49.0164C4.41214 48.9356 4.41214 48.8545 4.41754 48.7736V48.6989L38.627 29.4526C39.0146 29.2109 39.3371 28.8821 39.5672 28.4937C39.7973 28.1053 39.9284 27.6688 39.9494 27.2208L39.8823 4.4353C40.3518 4.18316 40.7447 4.27655 40.9172 4.64074C40.7543 4.25787 40.3423 4.15515 39.8535 4.42596Z" fill="#F2C53D"/>
<path d="M4.42712 48.699L38.6366 29.4527C39.0242 29.211 39.3466 28.8822 39.5767 28.4938C39.8069 28.1054 39.9379 27.6689 39.959 27.2209L39.8823 4.41672C40.3327 4.15524 40.7543 4.24863 40.9268 4.64084C40.9485 4.69196 40.9645 4.74517 40.9747 4.79959C40.9851 4.88333 40.9851 4.96798 40.9747 5.05172L41.0418 28.1267C41.0209 28.5136 40.9068 28.8902 40.7087 29.226C40.5106 29.5619 40.234 29.8475 39.9015 30.0597L5.57702 49.4181C5.02124 49.7356 4.56128 49.5488 4.44629 49.0165C4.44089 48.9357 4.44089 48.8546 4.44629 48.7737L4.42712 48.699Z" fill="#00AED6"/>
<path style="mix-blend-mode:overlay" opacity="0.16" d="M42.0191 31.4417L3.60293 53.0599C3.50578 53.1291 3.42599 53.2188 3.36956 53.3223C3.31312 53.4258 3.28152 53.5405 3.27713 53.6576C3.26781 53.7227 3.26781 53.7886 3.27713 53.8537C3.37603 54.0813 3.55186 54.2692 3.77541 54.386L28.364 68.2907C28.5479 68.3972 28.7487 68.473 28.9582 68.5149C29.1782 68.5638 29.4032 68.5889 29.6289 68.5896C29.8318 68.5862 30.0339 68.5644 30.2326 68.5242H30.3764C30.5674 68.481 30.7513 68.4119 30.9226 68.3187L69.4441 46.6539C69.5188 46.6139 69.5894 46.5669 69.6549 46.5138C69.7156 46.4705 69.7676 46.4167 69.8083 46.355C69.8476 46.3 69.8798 46.2404 69.9041 46.1776C70.0191 45.8414 69.8466 45.4866 69.3962 45.2438L44.913 31.2643C44.5036 31.0661 44.0526 30.9629 43.5954 30.9629C43.1382 30.9629 42.6872 31.0661 42.2778 31.2643L42.0191 31.4417Z" fill="url(#paint0_linear_1_4118)"/>
<path d="M3.83313 54.3112L10.2151 57.6917C12.352 58.8123 14.4505 59.9796 16.5682 61.1282L22.9023 64.5927L26.0549 66.3483L27.6264 67.2821L28.4218 67.721C28.6434 67.8639 28.8903 67.9652 29.15 68.0199H29.1021L29.6483 68.0759H30.0125H30.1849H30.2329C30.2329 68.0759 30.1274 68.0759 30.1849 68.0759H30.2808C30.2808 68.0759 30.7503 67.9078 30.7886 67.8705L31.4211 67.5063L33.9221 66.0775C35.5895 65.125 37.2664 64.1912 38.9529 63.276L49.0433 57.673C50.7202 56.7392 52.4259 55.8054 54.1124 54.8715L59.2199 51.986C60.9064 51.0522 62.6121 50.1744 64.3177 49.2685L69.4252 46.5791V46.6351L49.3499 57.9625L39.2883 63.6309L34.2575 66.4324L31.7469 67.8611L31.124 68.2066C30.9027 68.3191 30.6719 68.4128 30.4341 68.4868C30.1849 68.5428 29.955 68.5428 29.7058 68.5802L28.968 68.5055C28.6714 68.4341 28.3895 68.3141 28.1343 68.1506L27.3485 67.7024L25.777 66.8152L22.634 65.0596L16.3478 61.5017L3.83313 54.3673V54.3112Z" fill="#007695"/>
<g style="mix-blend-mode:multiply">
<g style="mix-blend-mode:multiply" opacity="0.02">
<path d="M56.6613 41.8352C56.6613 45.4118 50.6147 48.316 43.1595 48.316C35.7044 48.316 29.7057 45.4491 29.7057 41.8352C29.7057 38.2213 35.7044 35.3638 43.1212 35.3638C50.5381 35.3638 56.6613 38.2586 56.6613 41.8352Z" fill="#FCFCFC"/>
</g>
<g style="mix-blend-mode:multiply" opacity="0.04">
<path d="M56.4696 41.8352C56.4696 45.3651 50.5093 48.2506 43.1212 48.2506C35.7331 48.2506 29.8016 45.3931 29.8016 41.8632C29.8016 38.3334 35.8002 35.4572 43.1212 35.4572C50.4422 35.4572 56.4696 38.3147 56.4696 41.8352Z" fill="#F9F9F9"/>
</g>
<g style="mix-blend-mode:multiply" opacity="0.06">
<path d="M56.278 41.8353C56.278 45.3185 50.4039 48.1293 43.1595 48.1293C35.9152 48.1293 30.0316 45.3278 30.0316 41.8353C30.0316 38.3428 35.9056 35.5413 43.1595 35.5413C50.4135 35.5413 56.278 38.3614 56.278 41.8353Z" fill="#F6F6F6"/>
</g>
<g style="mix-blend-mode:multiply" opacity="0.08">
<path d="M56.0863 41.8353C56.0863 45.2625 50.3368 48.0453 43.15 48.0453C35.9631 48.0453 30.2136 45.2438 30.2136 41.8353C30.2136 38.4268 35.9631 35.6346 43.15 35.6346C50.3368 35.6346 56.0863 38.4081 56.0863 41.8353Z" fill="#F3F3F3"/>
</g>
<g style="mix-blend-mode:multiply" opacity="0.1">
<path d="M43.15 47.9518C50.1887 47.9518 55.8947 45.2133 55.8947 41.8352C55.8947 38.4571 50.1887 35.7186 43.15 35.7186C36.1113 35.7186 30.4053 38.4571 30.4053 41.8352C30.4053 45.2133 36.1113 47.9518 43.15 47.9518Z" fill="#F0F0F0"/>
</g>
<g style="mix-blend-mode:multiply" opacity="0.12">
<path d="M43.15 47.8584C50.0881 47.8584 55.7126 45.1617 55.7126 41.8352C55.7126 38.5087 50.0881 35.812 43.15 35.812C36.2118 35.812 30.5873 38.5087 30.5873 41.8352C30.5873 45.1617 36.2118 47.8584 43.15 47.8584Z" fill="#EDEDED"/>
</g>
<g style="mix-blend-mode:multiply" opacity="0.14">
<path d="M43.15 47.7651C49.9823 47.7651 55.5209 45.1102 55.5209 41.8352C55.5209 38.5603 49.9823 35.9054 43.15 35.9054C36.3177 35.9054 30.779 38.5603 30.779 41.8352C30.779 45.1102 36.3177 47.7651 43.15 47.7651Z" fill="#EAEAEA"/>
</g>
<g style="mix-blend-mode:multiply" opacity="0.16">
<path d="M55.3293 41.8352C55.3293 45.0663 49.8769 47.681 43.15 47.681C36.4231 47.681 30.9611 45.0663 30.9611 41.8352C30.9611 38.6042 36.4135 35.9988 43.1212 35.9988C49.829 35.9988 55.3293 38.6135 55.3293 41.8352Z" fill="#E7E7E7"/>
</g>
<g style="mix-blend-mode:multiply" opacity="0.18">
<path d="M55.1377 41.8352C55.1377 45.0196 49.7715 47.5876 43.15 47.5876C36.5285 47.5876 31.1527 45.0196 31.1527 41.8352C31.1527 38.6509 36.5189 36.1108 43.1212 36.1108C49.7236 36.1108 55.1377 38.6602 55.1377 41.8352Z" fill="#E4E4E4"/>
</g>
<g style="mix-blend-mode:multiply" opacity="0.2">
<path d="M43.1404 47.4943C49.6605 47.4943 54.946 44.9607 54.946 41.8353C54.946 38.7099 49.6605 36.1763 43.1404 36.1763C36.6203 36.1763 31.3348 38.7099 31.3348 41.8353C31.3348 44.9607 36.6203 47.4943 43.1404 47.4943Z" fill="#E1E1E1"/>
</g>
<g style="mix-blend-mode:multiply" opacity="0.22">
<path d="M54.7639 41.8353C54.7639 44.9169 49.5606 47.4383 43.1404 47.4383C36.7201 47.4383 31.5264 44.9449 31.5264 41.8353C31.5264 38.7256 36.7297 36.2323 43.1404 36.2323C49.5511 36.2323 54.7639 38.763 54.7639 41.8353Z" fill="#DEDEDE"/>
</g>
<g style="mix-blend-mode:multiply" opacity="0.24">
<path d="M54.6202 41.8352C54.6202 44.8702 49.4552 47.3168 43.1212 47.3168C36.7872 47.3168 31.7181 44.8702 31.7181 41.8352C31.7181 38.8003 36.8351 36.3536 43.1212 36.3536C49.4073 36.3536 54.6202 38.8096 54.6202 41.8352Z" fill="#DBDBDB"/>
</g>
<g style="mix-blend-mode:multiply" opacity="0.25">
<path d="M54.3806 41.8352C54.3806 44.8141 49.3498 47.2328 43.1404 47.2328C36.9309 47.2328 31.9001 44.8141 31.9001 41.8352C31.9001 38.8563 36.9309 36.447 43.1212 36.447C49.3115 36.447 54.3806 38.8563 54.3806 41.8352Z" fill="#D8D8D8"/>
</g>
<g style="mix-blend-mode:multiply" opacity="0.27">
<path d="M43.1404 47.1395C49.2424 47.1395 54.189 44.7647 54.189 41.8353C54.189 38.9059 49.2424 36.5311 43.1404 36.5311C37.0384 36.5311 32.0918 38.9059 32.0918 41.8353C32.0918 44.7647 37.0384 47.1395 43.1404 47.1395Z" fill="#D5D5D5"/>
</g>
<g style="mix-blend-mode:multiply" opacity="0.29">
<path d="M43.1404 47.0461C49.1418 47.0461 54.0069 44.7131 54.0069 41.8353C54.0069 38.9575 49.1418 36.6245 43.1404 36.6245C37.139 36.6245 32.2739 38.9575 32.2739 41.8353C32.2739 44.7131 37.139 47.0461 43.1404 47.0461Z" fill="#D2D2D2"/>
</g>
<g style="mix-blend-mode:multiply" opacity="0.31">
<path d="M43.1404 46.9527C49.036 46.9527 53.8153 44.6616 53.8153 41.8353C53.8153 39.009 49.036 36.7179 43.1404 36.7179C37.2448 36.7179 32.4655 39.009 32.4655 41.8353C32.4655 44.6616 37.2448 46.9527 43.1404 46.9527Z" fill="#CFCFCF"/>
</g>
<g style="mix-blend-mode:multiply" opacity="0.33">
<path d="M53.6619 41.8353C53.6619 44.6368 48.9665 46.8686 43.1212 46.8686C37.2759 46.8686 32.638 44.6181 32.638 41.8353C32.638 39.0525 37.3717 36.8113 43.1212 36.8113C48.8707 36.8113 53.6619 39.0618 53.6619 41.8353Z" fill="#CCCCCC"/>
</g>
<g style="mix-blend-mode:multiply" opacity="0.35">
<path d="M43.1308 46.7752C48.82 46.7752 53.432 44.5635 53.432 41.8352C53.432 39.107 48.82 36.8953 43.1308 36.8953C37.4416 36.8953 32.8297 39.107 32.8297 41.8352C32.8297 44.5635 37.4416 46.7752 43.1308 46.7752Z" fill="#C9C9C9"/>
</g>
<g style="mix-blend-mode:multiply" opacity="0.37">
<path d="M53.2403 41.8352C53.2403 44.5153 48.7174 46.6912 43.1308 46.6912C37.5442 46.6912 33.0213 44.5153 33.0213 41.8352C33.0213 39.1551 37.5442 36.9886 43.1212 36.9886C48.6982 36.9886 53.2403 39.1645 53.2403 41.8352Z" fill="#C6C6C6"/>
</g>
<g style="mix-blend-mode:multiply" opacity="0.39">
<path d="M53.0487 41.8352C53.0487 44.4687 48.612 46.5978 43.1308 46.5978C37.6496 46.5978 33.213 44.5153 33.213 41.8352C33.213 39.1551 37.6496 37.0447 43.1212 37.0447C48.5928 37.0447 53.0487 39.2112 53.0487 41.8352Z" fill="#C3C3C3"/>
</g>
<g style="mix-blend-mode:multiply" opacity="0.41">
<path d="M52.857 41.8353C52.857 44.4127 48.5066 46.5045 43.1308 46.5045C37.755 46.5045 33.395 44.4127 33.395 41.8353C33.395 39.2579 37.755 37.1661 43.1308 37.1661C48.5066 37.1661 52.857 39.2579 52.857 41.8353Z" fill="#C0C0C0"/>
</g>
<g style="mix-blend-mode:multiply" opacity="0.43">
<path d="M43.1308 46.4111C48.4019 46.4111 52.675 44.3624 52.675 41.8353C52.675 39.3082 48.4019 37.2595 43.1308 37.2595C37.8597 37.2595 33.5867 39.3082 33.5867 41.8353C33.5867 44.3624 37.8597 46.4111 43.1308 46.4111Z" fill="#BDBDBD"/>
</g>
<g style="mix-blend-mode:multiply" opacity="0.45">
<path d="M43.1212 46.3177C48.2865 46.3177 52.4737 44.3109 52.4737 41.8353C52.4737 39.3597 48.2865 37.3529 43.1212 37.3529C37.956 37.3529 33.7687 39.3597 33.7687 41.8353C33.7687 44.3109 37.956 46.3177 43.1212 46.3177Z" fill="#BABABA"/>
</g>
<g style="mix-blend-mode:multiply" opacity="0.47">
<path d="M52.2917 41.8353C52.2917 44.2633 48.1904 46.2337 43.1212 46.2337C38.0521 46.2337 33.9604 44.2633 33.9604 41.8353C33.9604 39.4073 38.0617 37.4463 43.1212 37.4463C48.1808 37.4463 52.2917 39.4073 52.2917 41.8353Z" fill="#B7B7B7"/>
</g>
<g style="mix-blend-mode:multiply" opacity="0.49">
<path d="M52.1 41.8352C52.1 44.2165 48.085 46.1402 43.1212 46.1402C38.1575 46.1402 34.1425 44.2165 34.1425 41.8352C34.1425 39.454 38.1671 37.5303 43.1212 37.5303C48.0754 37.5303 52.1 39.4633 52.1 41.8352Z" fill="#B4B4B4"/>
</g>
<g style="mix-blend-mode:multiply" opacity="0.51">
<path d="M51.9084 41.8352C51.9084 44.1698 47.9796 46.0561 43.1212 46.0561C38.2629 46.0561 34.3341 44.1885 34.3341 41.8352C34.3341 39.482 38.2629 37.6237 43.1212 37.6237C47.9796 37.6237 51.9084 39.51 51.9084 41.8352Z" fill="#B1B1B1"/>
</g>
<g style="mix-blend-mode:multiply" opacity="0.53">
<path d="M51.7455 41.8352C51.7455 44.1138 47.9125 45.9628 43.1212 45.9628C38.33 45.9628 34.497 44.0951 34.497 41.8352C34.497 39.5754 38.33 37.717 43.1212 37.717C47.9125 37.717 51.7455 39.5567 51.7455 41.8352Z" fill="#AEAEAE"/>
</g>
<g style="mix-blend-mode:multiply" opacity="0.55">
<path d="M51.5347 41.8353C51.5347 44.0672 47.7687 45.8695 43.1212 45.8695C38.4737 45.8695 34.7078 44.0672 34.7078 41.8353C34.7078 39.6034 38.4737 37.8011 43.1212 37.8011C47.7687 37.8011 51.5347 39.6128 51.5347 41.8353Z" fill="#ABABAB"/>
</g>
<g style="mix-blend-mode:multiply" opacity="0.57">
<path d="M51.343 41.8353C51.343 44.0205 47.6633 45.7854 43.1212 45.7854C38.5791 45.7854 34.8899 44.0205 34.8899 41.8353C34.8899 39.6501 38.5791 37.8945 43.1212 37.8945C47.6633 37.8945 51.343 39.6595 51.343 41.8353Z" fill="#A8A8A8"/>
</g>
<g style="mix-blend-mode:multiply" opacity="0.59">
<path d="M51.1514 41.8352C51.1514 43.9644 47.5579 45.692 43.1117 45.692C38.6654 45.692 35.0815 43.9644 35.0815 41.8352C35.0815 39.7061 38.675 37.9785 43.1212 37.9785C47.5675 37.9785 51.1514 39.7061 51.1514 41.8352Z" fill="#A5A5A5"/>
</g>
<g style="mix-blend-mode:multiply" opacity="0.61">
<path d="M43.1117 45.5986C47.446 45.5986 50.9597 43.9137 50.9597 41.8352C50.9597 39.7568 47.446 38.0719 43.1117 38.0719C38.7773 38.0719 35.2636 39.7568 35.2636 41.8352C35.2636 43.9137 38.7773 45.5986 43.1117 45.5986Z" fill="#A2A2A2"/>
</g>
<g style="mix-blend-mode:multiply" opacity="0.63">
<path d="M43.1117 45.5052C47.3402 45.5052 50.7681 43.8621 50.7681 41.8352C50.7681 39.8084 47.3402 38.1653 43.1117 38.1653C38.8832 38.1653 35.4553 39.8084 35.4553 41.8352C35.4553 43.8621 38.8832 45.5052 43.1117 45.5052Z" fill="#9F9F9F"/>
</g>
<g style="mix-blend-mode:multiply" opacity="0.65">
<path d="M50.5764 41.8352C50.5764 43.815 47.2321 45.4492 43.1212 45.4492C39.0104 45.4492 35.6469 43.843 35.6469 41.8633C35.6469 39.8835 38.9816 38.2587 43.1212 38.2587C47.2609 38.2587 50.5764 39.8462 50.5764 41.8352Z" fill="#9C9C9C"/>
</g>
<g style="mix-blend-mode:multiply" opacity="0.67">
<path d="M43.1116 45.3278C47.1337 45.3278 50.3943 43.7642 50.3943 41.8353C50.3943 39.9064 47.1337 38.3428 43.1116 38.3428C39.0895 38.3428 35.8289 39.9064 35.8289 41.8353C35.8289 43.7642 39.0895 45.3278 43.1116 45.3278Z" fill="#999999"/>
</g>
<g style="mix-blend-mode:multiply" opacity="0.69">
<path d="M50.2026 41.8353C50.2026 43.703 47.0213 45.2438 43.1116 45.2438C39.202 45.2438 36.011 43.7216 36.011 41.8353C36.011 39.949 39.1924 38.4362 43.1212 38.4362C47.05 38.4362 50.2026 39.9583 50.2026 41.8353Z" fill="#969696"/>
</g>
<g style="mix-blend-mode:multiply" opacity="0.71">
<path d="M50.011 41.8353C50.011 43.703 46.9159 45.1504 43.102 45.1504C39.2882 45.1504 36.2026 43.6656 36.2026 41.8353C36.2026 40.005 39.2882 38.5295 43.1212 38.5295C46.9542 38.5295 50.011 40.005 50.011 41.8353Z" fill="#939393"/>
</g>
<g style="mix-blend-mode:multiply" opacity="0.73">
<path d="M49.8289 41.8352C49.8289 43.6189 46.82 45.057 43.1212 45.057C39.4224 45.057 36.4135 43.5815 36.4135 41.8352C36.4135 40.089 39.4224 38.6135 43.1212 38.6135C46.82 38.6135 49.8289 40.061 49.8289 41.8352Z" fill="#909090"/>
</g>
<g style="mix-blend-mode:multiply" opacity="0.75">
<path d="M43.102 44.9636C46.7061 44.9636 49.6277 43.563 49.6277 41.8352C49.6277 40.1075 46.7061 38.7069 43.102 38.7069C39.498 38.7069 36.5764 40.1075 36.5764 41.8352C36.5764 43.563 39.498 44.9636 43.102 44.9636Z" fill="#8D8D8D"/>
</g>
<g style="mix-blend-mode:multiply" opacity="0.76">
<path d="M49.4456 41.8352C49.4456 43.5161 46.5709 44.8795 43.102 44.8795C39.6332 44.8795 36.7584 43.5161 36.7584 41.8352C36.7584 40.1543 39.6332 38.8003 43.102 38.8003C46.5709 38.8003 49.4456 40.1637 49.4456 41.8352Z" fill="#8A8A8A"/>
</g>
<g style="mix-blend-mode:multiply" opacity="0.78">
<path d="M49.254 41.8352C49.254 43.4695 46.4943 44.7862 43.1021 44.7862C39.7099 44.7862 36.9501 43.4695 36.9501 41.8352C36.9501 40.201 39.7003 38.9124 43.1212 38.9124C46.5422 38.9124 49.254 40.2104 49.254 41.8352Z" fill="#878787"/>
</g>
<g style="mix-blend-mode:multiply" opacity="0.8">
<path d="M49.0623 41.8353C49.0623 43.4135 46.3888 44.7022 43.102 44.7022C39.8152 44.7022 37.1321 43.4135 37.1321 41.8353C37.1321 40.2571 39.8057 38.9778 43.102 38.9778C46.3984 38.9778 49.0623 40.2571 49.0623 41.8353Z" fill="#848484"/>
</g>
<g style="mix-blend-mode:multiply" opacity="0.82">
<path d="M48.8707 41.8353C48.8707 43.3668 46.2834 44.6368 43.1212 44.6368C39.959 44.6368 37.3717 43.3948 37.3717 41.8353C37.3717 40.2758 39.959 39.0338 43.1212 39.0338C46.2834 39.0338 48.8707 40.3132 48.8707 41.8353Z" fill="#818181"/>
</g>
<g style="mix-blend-mode:multiply" opacity="0.84">
<path d="M48.679 41.8353C48.679 43.32 46.178 44.5154 43.1212 44.5154C40.0644 44.5154 37.5442 43.32 37.5442 41.8353C37.5442 40.3505 40.0356 39.1552 43.1212 39.1552C46.2068 39.1552 48.679 40.3598 48.679 41.8353Z" fill="#7E7E7E"/>
</g>
<g style="mix-blend-mode:multiply" opacity="0.86">
<path d="M48.4874 41.8353C48.4874 43.264 46.0726 44.4313 43.0924 44.4313C40.1123 44.4313 37.6975 43.264 37.6975 41.8353C37.6975 40.4065 40.1123 39.2485 43.0924 39.2485C46.0726 39.2485 48.4874 40.4065 48.4874 41.8353Z" fill="#7B7B7B"/>
</g>
<g style="mix-blend-mode:multiply" opacity="0.88">
<path d="M48.3054 41.8352C48.3054 43.2173 45.9672 44.3379 43.0925 44.3379C40.2178 44.3379 37.8892 43.2173 37.8892 41.8352C37.8892 40.4532 40.2465 39.3419 43.1212 39.3419C45.996 39.3419 48.3054 40.4625 48.3054 41.8352Z" fill="#787878"/>
</g>
<g style="mix-blend-mode:multiply" opacity="0.9">
<path d="M48.1137 41.8352C48.1137 43.1706 45.8618 44.2445 43.0924 44.2445C40.3231 44.2445 38.0712 43.1706 38.0712 41.8352C38.0712 40.4999 40.3231 39.4353 43.0924 39.4353C45.8618 39.4353 48.1137 40.5092 48.1137 41.8352Z" fill="#757575"/>
</g>
<g style="mix-blend-mode:multiply" opacity="0.92">
<path d="M47.9124 41.8353C47.9124 43.1147 45.7468 44.1512 43.1212 44.1512C40.4956 44.1512 38.33 43.1147 38.33 41.8353C38.33 40.556 40.486 39.5194 43.1212 39.5194C45.7564 39.5194 47.9124 40.556 47.9124 41.8353Z" fill="#727272"/>
</g>
<g style="mix-blend-mode:multiply" opacity="0.94">
<path d="M43.0925 44.0578C45.6592 44.0578 47.74 43.0628 47.74 41.8353C47.74 40.6078 45.6592 39.6128 43.0925 39.6128C40.5257 39.6128 38.4449 40.6078 38.4449 41.8353C38.4449 43.0628 40.5257 44.0578 43.0925 44.0578Z" fill="#6F6F6F"/>
</g>
<g style="mix-blend-mode:multiply" opacity="0.96">
<path d="M47.5387 41.8353C47.5387 43.0213 45.5456 43.9738 43.0829 43.9738C40.6202 43.9738 38.6366 43.04 38.6366 41.8353C38.6366 40.6307 40.6298 39.7062 43.1212 39.7062C45.6126 39.7062 47.5387 40.6587 47.5387 41.8353Z" fill="#6C6C6C"/>
</g>
<g style="mix-blend-mode:multiply" opacity="0.98">
<path d="M47.3566 41.8353C47.3566 42.9652 45.4401 43.8803 43.0829 43.8803C40.7256 43.8803 38.8187 42.9465 38.8187 41.8353C38.8187 40.724 40.7352 39.7902 43.0829 39.7902C45.4306 39.7902 47.3566 40.7053 47.3566 41.8353Z" fill="#696969"/>
</g>
<g style="mix-blend-mode:multiply">
<path d="M47.165 41.8353C47.165 42.9185 45.3348 43.7963 43.0829 43.7963C40.831 43.7963 39.0103 42.9185 39.0103 41.8353C39.0103 40.752 40.831 39.8462 43.1212 39.8462C45.4114 39.8462 47.165 40.78 47.165 41.8353Z" fill="#666666"/>
</g>
</g>
<path d="M37.0746 38.9871L46.2642 38.7256L37.0746 38.9871Z" fill="#21BFA2"/>
<path d="M37.0746 38.9871C36.9945 38.9878 36.9157 39.007 36.8446 39.0431C36.9157 39.007 36.9945 38.9878 37.0746 38.9871Z" fill="#21BFA2"/>
<path d="M36.7488 39.1271C36.7735 39.0922 36.8063 39.0634 36.8446 39.0431C36.8063 39.0634 36.7735 39.0922 36.7488 39.1271Z" fill="#21BFA2"/>
<path d="M36.7466 39.1272C36.7355 39.1633 36.7355 39.2032 36.7466 39.2393C36.7355 39.2032 36.7355 39.1633 36.7466 39.1272Z" fill="#21BFA2"/>
<path d="M48.2956 39.0057C48.2956 39.0057 48.2956 39.0057 48.2956 39.0711C48.2782 39.1568 48.2457 39.2389 48.1998 39.3139C48.1196 39.4351 48.0192 39.5424 47.9028 39.6314L46.9445 40.3598L47.9028 40.5559L48.2286 40.6213C48.2765 40.5251 48.3026 40.42 48.3052 40.3131V38.9124C48.3052 38.9124 48.2956 38.9871 48.2956 39.0057Z" fill="#198F7A"/>
<path d="M44.4818 40.6493L44.5393 40.5933L44.4818 40.6493Z" fill="#A6E5DA"/>
<path d="M44.4723 40.6866L44.4799 40.6493L44.4723 40.6866Z" fill="#7AD9C7"/>
<path d="M44.4818 40.6493L44.5393 40.5932L46.5804 39.0711L46.6475 39.0151C46.6568 38.9961 46.6617 38.9754 46.6617 38.9544C46.6617 38.9333 46.6568 38.9126 46.6475 38.8937C46.6256 38.8485 46.5884 38.8122 46.5421 38.7909C46.4567 38.7463 46.361 38.7238 46.2642 38.7256L37.0746 38.987C36.9945 38.9878 36.9157 39.007 36.8446 39.0431C36.8063 39.0634 36.7735 39.0922 36.7488 39.1271L44.4818 40.6493Z" fill="#A6E5DA"/>
<path d="M50.9692 41.2189C50.8652 41.1603 50.7518 41.1193 50.6338 41.0975L48.219 40.6213L47.9124 40.5559L46.9541 40.3598L47.9124 39.6314C48.0288 39.5424 48.1292 39.4351 48.2094 39.3139C48.2554 39.2389 48.2878 39.1568 48.3053 39.0711C48.3053 39.0711 48.3053 39.0711 48.3053 39.0058C48.3127 38.8576 48.2793 38.7101 48.2085 38.5788C48.1378 38.4474 48.0322 38.3369 47.9028 38.2587L47.7207 38.1373C47.2482 37.8978 46.7198 37.7819 46.1875 37.8011L36.9979 38.0626C36.6594 38.0439 36.3211 38.1025 36.01 38.2338C35.6988 38.3652 35.4235 38.5655 35.206 38.819C35.1464 38.9096 35.1092 39.0124 35.0976 39.1194C35.0859 39.2264 35.1001 39.3346 35.1389 39.4353V39.4914C35.1778 39.5706 35.2296 39.6431 35.2922 39.7061L35.3497 39.7715C35.442 39.8611 35.5449 39.9394 35.6564 40.005H35.7522L42.6803 43.4321C43.2542 43.6927 43.8948 43.7805 44.5202 43.6843C44.7916 43.6659 45.0558 43.5915 45.2954 43.4659C45.535 43.3403 45.7444 43.1664 45.9096 42.9559C45.9793 42.8495 46.0189 42.7271 46.0246 42.601V41.6672L49.8289 42.4609C50.0298 42.5151 50.242 42.5151 50.4428 42.4608C50.6437 42.4065 50.8256 42.3 50.9692 42.1528L51.2183 41.7419C51.2309 41.6928 51.2309 41.6415 51.2183 41.5925C51.2138 41.5145 51.1885 41.4389 51.1448 41.3734C51.1011 41.3079 51.0405 41.2546 50.9692 41.2189ZM44.5393 40.5933L44.4818 40.6493V40.7147L44.4244 42.5823V42.6477C44.4022 42.6848 44.3687 42.7142 44.3285 42.7318C44.2549 42.7701 44.1724 42.7894 44.089 42.7878C44.0002 42.7913 43.9118 42.7753 43.8302 42.7411L36.9021 39.3046C36.8606 39.2802 36.8273 39.2445 36.8063 39.2019C36.7923 39.1658 36.7923 39.1259 36.8063 39.0898C36.831 39.0549 36.8638 39.0261 36.9021 39.0058C36.9732 38.9697 37.052 38.9505 37.1321 38.9497L46.3217 38.6883C46.4185 38.6865 46.5142 38.709 46.5996 38.7536C46.6459 38.7749 46.6832 38.8112 46.705 38.8564C46.7143 38.8753 46.7192 38.896 46.7192 38.9171C46.7192 38.9381 46.7143 38.9588 46.705 38.9778L46.6379 39.0338L44.5393 40.5933Z" fill="#21BFA2"/>
<path d="M36.7488 39.1272C36.7348 39.1633 36.7348 39.2031 36.7488 39.2393C36.7698 39.2819 36.8031 39.3176 36.8446 39.342L43.7727 42.7785C43.8543 42.8127 43.9427 42.8286 44.0314 42.8252C44.1149 42.8267 44.1974 42.8074 44.271 42.7691C44.3112 42.7516 44.3447 42.7222 44.3668 42.6851V42.6197L44.4243 40.7521V40.6867L36.7488 39.1272Z" fill="#7AD9C7"/>
<path d="M51.2375 41.5925C51.2501 41.6416 51.2501 41.6929 51.2375 41.7419L50.9884 42.1528C50.8431 42.3034 50.6578 42.4119 50.4532 42.4663C50.2486 42.5206 50.0325 42.5188 49.8289 42.461L46.0725 41.7139V42.6477C46.0668 42.7738 46.0272 42.8962 45.9576 43.0026C45.7923 43.2132 45.5829 43.387 45.3433 43.5126C45.1037 43.6382 44.8395 43.7126 44.5681 43.731C43.9427 43.8272 43.3021 43.7394 42.7283 43.4789L35.8001 40.0517H35.7043C35.5928 39.9862 35.4899 39.9078 35.3977 39.8182L35.3402 39.7529C35.2775 39.6898 35.2257 39.6173 35.1868 39.5381V39.4821C35.1723 39.4017 35.1723 39.3196 35.1868 39.2393V40.612C35.1987 40.7867 35.2607 40.9546 35.3657 41.0966C35.4707 41.2386 35.6146 41.3489 35.781 41.4151L35.8768 41.4711L42.7953 44.8983C43.3751 45.1506 44.0171 45.2349 44.6448 45.1411C44.9161 45.1227 45.1804 45.0483 45.42 44.9227C45.6595 44.7971 45.8689 44.6232 46.0342 44.4127C46.0994 44.3077 46.1388 44.1895 46.1492 44.0672V43.1333L49.8672 43.8711C50.068 43.9263 50.2805 43.9267 50.4816 43.8724C50.6827 43.8181 50.8646 43.711 51.0075 43.5629L51.2662 43.152C51.279 43.0967 51.279 43.0393 51.2662 42.9839V41.5832L51.2375 41.5925Z" fill="#198F7A"/>
<path d="M36.9787 2.38088V1.10153C36.9767 0.854235 36.9084 0.611747 36.7806 0.398084C36.6529 0.184421 36.47 0.00699696 36.2502 -0.116611C36.0304 -0.240219 35.7813 -0.305722 35.5276 -0.306631C35.2738 -0.30754 35.0242 -0.243823 34.8035 -0.121793L10.119 13.7736C9.52982 14.1051 9.04176 14.5834 8.70496 15.1594C8.36816 15.7354 8.19474 16.3884 8.20252 17.0514V18.5922V46.6071L8.78705 47.0087L37.0266 30.3678L36.9787 2.38088Z" fill="#198F7A"/>
<path d="M8.80633 46.9713L37.6017 30.7693V2.75439L8.75842 18.9844L8.80633 46.9713Z" fill="#D3F2EC"/>
<path d="M37.5633 2.78244V1.50309C37.5652 1.25332 37.499 1.00754 37.3714 0.790897C37.2438 0.574253 37.0595 0.39452 36.8372 0.270083C36.615 0.145646 36.3628 0.0809716 36.1065 0.0826744C35.8502 0.0843772 35.599 0.152397 35.3785 0.279775L10.6941 14.1752C10.1063 14.5059 9.61915 14.9827 9.28243 15.5569C8.94571 16.1312 8.77148 16.7822 8.77756 17.4436V18.9844L37.5633 2.78244Z" fill="#21BFA2"/>
<path d="M36.2218 8.63751L11.2403 22.7757V21.8886L36.2218 7.75037V8.63751Z" fill="#21BFA2"/>
<path d="M36.2218 6.90997L11.2403 21.0482V20.161L36.2218 6.02283V6.90997Z" fill="#21BFA2"/>
<path d="M32.9159 17.2755L15.4183 27.1181V36.4564L32.9446 26.5951L32.9159 17.2755ZM19.6058 28.5842L19.4812 28.883C19.2428 29.4335 19.0505 30.0019 18.9063 30.5826C18.8069 31.0338 18.7555 31.4938 18.753 31.9553V32.1234C18.7361 32.3609 18.6634 32.5914 18.5405 32.7971C18.4175 33.0027 18.2476 33.178 18.0439 33.3094C17.6414 33.5335 17.3156 33.3561 17.3156 32.9078V32.6464C17.3143 32.2653 17.3626 31.8857 17.4593 31.5164C17.57 31.1126 17.7242 30.7214 17.9193 30.3492C18.0247 30.1437 18.2259 29.8075 18.523 29.35C18.8201 28.8924 19.05 28.5095 19.1938 28.2294L18.8871 28.5282C18.7902 28.6067 18.6878 28.6785 18.5805 28.743C18.4096 28.8371 18.2299 28.9153 18.0439 28.9764C17.9111 29.0131 17.7827 29.0632 17.6606 29.1258C17.4762 29.2268 17.3314 29.3844 17.2485 29.5741C17.1642 29.7851 17.1251 30.0108 17.1335 30.2371V30.5079L16.3478 30.9468V28.7243L17.1431 28.276V28.7616C17.2312 28.5334 17.354 28.3194 17.5073 28.1266C17.6523 27.9486 17.8312 27.7996 18.0343 27.6877C18.2731 27.554 18.537 27.4682 18.8105 27.4356C18.9931 27.4238 19.1734 27.3893 19.3471 27.3329C19.4155 27.2924 19.4742 27.2383 19.5196 27.1741C19.5577 27.1087 19.5775 27.0346 19.5771 26.9593V26.9033L20.1808 26.5671V26.7165C20.086 27.3636 19.8922 27.9932 19.6058 28.5842ZM20.9569 32.0487V25.3158L21.4744 25.017V31.7499L20.9569 32.0487ZM25.5853 25.2224C25.5374 25.3438 25.4895 25.4465 25.4607 25.5119C25.2277 26.0675 25.0356 26.6386 24.8858 27.2208C24.7807 27.6868 24.7324 28.1632 24.742 28.6402V28.8083C24.7266 29.0534 24.6528 29.2916 24.5264 29.5039C24.4 29.7163 24.2244 29.897 24.0138 30.0316C23.6113 30.2558 23.2855 30.0316 23.2855 29.6208V29.3686C23.2811 28.988 23.3262 28.6083 23.4196 28.2387C23.5303 27.8349 23.6845 27.4436 23.8796 27.0714C23.9818 26.866 24.183 26.5298 24.4833 26.0629C24.7899 25.5959 25.0103 25.2224 25.1541 24.9516C25.0617 25.0575 24.959 25.1545 24.8474 25.2411C24.7522 25.3218 24.6496 25.3937 24.5408 25.4559C24.3733 25.5501 24.1967 25.6283 24.0138 25.6893L23.6305 25.8387C23.4584 25.9277 23.3205 26.0686 23.2376 26.2403C23.1525 26.4511 23.1133 26.6769 23.1226 26.9033V27.1648L22.3272 27.613V25.3532L23.1226 24.9143V25.3905C23.2129 25.1633 23.3355 24.9495 23.4867 24.7555C23.6343 24.5799 23.8128 24.4313 24.0138 24.3166C24.2532 24.1859 24.5171 24.1033 24.7899 24.0738C24.9734 24.0617 25.1541 24.024 25.3266 23.9617C25.3991 23.9269 25.4592 23.8716 25.499 23.803C25.5368 23.7408 25.5567 23.6698 25.5565 23.5976V23.5415L26.1698 23.2053V23.3454C26.0747 23.9966 25.8776 24.6296 25.5853 25.2224ZM26.9364 28.6402V21.9073L27.4634 21.6178V28.3508L26.9364 28.6402ZM31.6222 21.8419C31.5743 21.9727 31.5264 22.0754 31.4977 22.1408C31.2635 22.6928 31.0714 23.2609 30.9227 23.8403C30.8218 24.2912 30.7736 24.7517 30.779 25.2131V25.3905C30.7651 25.6347 30.6919 25.8721 30.5652 26.0832C30.4386 26.2943 30.2622 26.473 30.0507 26.6045C29.6578 26.8286 29.332 26.6512 29.332 26.2029V25.9508C29.3277 25.5671 29.3727 25.1843 29.4662 24.8115C29.5769 24.4077 29.731 24.0165 29.9261 23.6442C30.0316 23.4481 30.2328 23.1026 30.5394 22.6357C30.8461 22.1688 31.0569 21.8046 31.2006 21.5244C31.1057 21.6309 31.0033 21.7308 30.894 21.8233C30.7988 21.9039 30.6961 21.9758 30.5873 22.0381C30.4198 22.1323 30.2433 22.2104 30.0603 22.2715C29.9269 22.3064 29.7982 22.3565 29.677 22.4209C29.5073 22.5129 29.3703 22.6529 29.2841 22.8225C29.1987 23.03 29.1595 23.2528 29.1691 23.4762V23.747L28.3738 24.1859V21.982L29.1691 21.5338V22.0194C29.2572 21.7911 29.38 21.5771 29.5333 21.3844C29.6806 21.206 29.859 21.0543 30.0603 20.9361C30.3016 20.8097 30.5647 20.7274 30.8365 20.6933C31.0193 20.6827 31.1998 20.6482 31.3731 20.5906C31.4436 20.553 31.503 20.4983 31.5456 20.4319C31.5878 20.3681 31.608 20.2928 31.6031 20.2171V20.1704L32.2164 19.8249V19.9649C32.1196 20.6169 31.9191 21.2502 31.6222 21.8419Z" fill="#F9F132"/>
<path d="M32.9542 28.3693L34.5449 27.4355V25.6612V16.3229V14.6327L32.9542 15.5665L15.4087 25.3437L13.818 26.2776V26.6231V39.1551L15.4087 38.2213L32.9542 28.3693ZM15.4183 27.118L32.9159 17.2754V26.6137L15.447 36.4377L15.4183 27.118Z" fill="#E8630B"/>
<path d="M20.1904 26.5671L19.5867 26.9033V26.9593C19.5871 27.0346 19.5673 27.1087 19.5292 27.1741C19.4838 27.2383 19.425 27.2924 19.3567 27.3329C19.183 27.3893 19.0027 27.4238 18.8201 27.4356C18.5466 27.4682 18.2827 27.554 18.0439 27.6877C17.8408 27.7996 17.6619 27.9486 17.5168 28.1266C17.3636 28.3194 17.2408 28.5334 17.1527 28.7616V28.276L16.3574 28.7243V30.9281L17.1527 30.5079V30.2371C17.1382 30.012 17.1708 29.7865 17.2485 29.5741C17.3337 29.4093 17.4671 29.2728 17.6318 29.1819C17.7539 29.1192 17.8824 29.0691 18.0151 29.0325C18.2012 28.9713 18.3809 28.8932 18.5517 28.799C18.659 28.7345 18.7615 28.6628 18.8584 28.5842L19.165 28.2667C19.0213 28.5469 18.7913 28.9111 18.4943 29.3873C18.1972 29.8636 17.996 30.1811 17.8906 30.3865C17.6955 30.7587 17.5413 31.15 17.4306 31.5538C17.3339 31.923 17.2856 32.3027 17.2869 32.6837V32.9452C17.2869 33.3934 17.6127 33.5709 18.0151 33.3468C18.2256 33.2127 18.4005 33.032 18.5254 32.8193C18.6503 32.6067 18.7218 32.3682 18.7338 32.1234V31.9553C18.7364 31.4938 18.7878 31.0338 18.8871 30.5826C19.0313 30.0019 19.2236 29.4335 19.4621 28.883L19.5867 28.5842C19.8797 27.9942 20.0799 27.3646 20.1808 26.7166V26.5671H20.1904Z" fill="#F2460B"/>
<path d="M20.9377 25.3158L20.9569 32.0487L21.4744 31.7499L21.4552 25.017L20.9377 25.3158Z" fill="white"/>
<path d="M26.1794 23.2053L25.5661 23.5415V23.5975C25.5662 23.6698 25.5464 23.7408 25.5086 23.803C25.4688 23.8716 25.4087 23.9269 25.3361 23.9617C25.1637 24.024 24.983 24.0617 24.7995 24.0738C24.5267 24.1033 24.2628 24.1858 24.0233 24.3166C23.8223 24.4313 23.6439 24.5799 23.4963 24.7555C23.345 24.9495 23.2224 25.1633 23.1321 25.3905V24.9049L22.3368 25.3438V27.557L23.1321 27.1087V26.8473C23.1229 26.6209 23.1621 26.3951 23.2471 26.1842C23.3301 26.0125 23.4679 25.8716 23.64 25.7827L24.0233 25.6333C24.2063 25.5722 24.3828 25.494 24.5503 25.3998C24.6592 25.3376 24.7618 25.2657 24.857 25.185C24.9686 25.0984 25.0713 25.0015 25.1636 24.8956C25.0199 25.1664 24.7995 25.5399 24.4928 26.0068C24.1862 26.4737 23.9946 26.8099 23.8892 27.0154C23.694 27.3876 23.5399 27.7788 23.4292 28.1826C23.3357 28.5523 23.2906 28.9319 23.295 29.3126V29.5741C23.295 30.0223 23.6208 30.2091 24.0233 29.9849C24.234 29.8503 24.4095 29.6696 24.5359 29.4572C24.6624 29.2449 24.7362 29.0067 24.7516 28.7616V28.6402C24.7483 28.1625 24.803 27.686 24.9145 27.2208C25.0643 26.6386 25.2565 26.0675 25.4894 25.5119C25.4894 25.4465 25.5661 25.3438 25.614 25.2224C25.912 24.6336 26.1156 24.0037 26.2177 23.3547V23.2147L26.1794 23.2053Z" fill="#F2460B"/>
<path d="M26.9172 21.9446L26.9364 28.6776L27.4634 28.3881L27.4443 21.6552L26.9172 21.9446Z" fill="white"/>
<path d="M32.178 19.8248L31.5647 20.1703V20.2357C31.5696 20.3115 31.5495 20.3867 31.5073 20.4505C31.4647 20.5169 31.4053 20.5716 31.3348 20.6092C31.1614 20.6668 30.9809 20.7013 30.7981 20.712C30.5264 20.746 30.2633 20.8283 30.022 20.9548C29.8207 21.0729 29.6423 21.2246 29.4949 21.403C29.3416 21.5957 29.2189 21.8098 29.1308 22.038V21.5524L28.3354 22.0007V24.2045L29.1308 23.7656V23.4948C29.1212 23.2714 29.1604 23.0486 29.2458 22.8411C29.332 22.6716 29.469 22.5315 29.6387 22.4396C29.7599 22.3751 29.8886 22.325 30.022 22.2901C30.205 22.2291 30.3815 22.1509 30.549 22.0567C30.6578 21.9945 30.7605 21.9226 30.8556 21.8419C30.9649 21.7494 31.0674 21.6496 31.1623 21.5431C31.0185 21.8232 30.7981 22.1874 30.5011 22.6543C30.204 23.1213 29.9932 23.4668 29.8878 23.6629C29.6927 24.0351 29.5385 24.4264 29.4279 24.8302C29.3344 25.203 29.2893 25.5857 29.2937 25.9694V26.2216C29.2937 26.6698 29.6195 26.8472 30.0124 26.6231C30.2239 26.4916 30.4003 26.3129 30.5269 26.1018C30.6536 25.8907 30.7268 25.6533 30.7407 25.4091V25.2317C30.7353 24.7703 30.7835 24.3098 30.8844 23.859C31.033 23.2795 31.2252 22.7114 31.4593 22.1594C31.4593 22.094 31.536 21.9913 31.5839 21.8606C31.8832 21.2722 32.0868 20.6422 32.1876 19.9929V19.8528L32.178 19.8248Z" fill="#F2460B"/>
<path d="M34.5449 29.2565L13.8659 40.892V42.6756L34.5545 31.0308L34.5449 29.2565Z" fill="#198F7A"/>
<path d="M34.497 11.0375L13.8084 22.6824L13.818 24.4566L34.497 12.8211V11.0375Z" fill="#198F7A"/>
</g>
<defs>
<linearGradient id="paint0_linear_1_4118" x1="3.27713" y1="49.7822" x2="69.9999" y2="49.7822" gradientUnits="userSpaceOnUse">
<stop stop-color="#4C4C4C"/>
<stop offset="0.05" stop-color="#747474"/>
<stop offset="0.11" stop-color="#A5A5A5"/>
<stop offset="0.18" stop-color="#CCCCCC"/>
<stop offset="0.23" stop-color="#E8E8E8"/>
<stop offset="0.28" stop-color="#F9F9F9"/>
<stop offset="0.32" stop-color="white"/>
<stop offset="0.36" stop-color="#F4F4F4"/>
<stop offset="0.44" stop-color="#D7D7D7"/>
<stop offset="0.53" stop-color="#A8A8A8"/>
<stop offset="0.64" stop-color="#676767"/>
<stop offset="0.69" stop-color="#4C4C4C"/>
<stop offset="0.73" stop-color="#616161"/>
<stop offset="0.82" stop-color="#979797"/>
<stop offset="0.94" stop-color="#E8E8E8"/>
<stop offset="0.97" stop-color="#E6E6E6"/>
<stop offset="0.98" stop-color="#D4D4D4"/>
<stop offset="0.99" stop-color="#919191"/>
<stop offset="1" stop-color="#4C4C4C"/>
</linearGradient>
<clipPath id="clip0_1_4118">
<rect width="70" height="70" fill="white" transform="translate(0 0.691406)"/>
</clipPath>
</defs>
</svg>
