<svg width="167" height="20" viewBox="0 0 167 20" fill="none" xmlns="http://www.w3.org/2000/svg">
<path d="M10.7861 12.8887H6.36963C6.41357 14.1807 6.75635 15.1519 7.39795 15.8022C8.04834 16.4526 9.05469 16.7778 10.417 16.7778C11.3398 16.7778 12.1748 16.6416 12.9219 16.3691L13.3965 19.5596C12.3066 19.8145 11.1816 19.9419 10.0215 19.9419C7.70996 19.9419 5.87744 19.3223 4.52393 18.083C3.1792 16.835 2.47168 15.1035 2.40137 12.8887H0.17334V10.8848H2.40137V9.25H0.17334V7.24609H2.42773C2.57715 5.03125 3.34619 3.31299 4.73486 2.09131C6.13232 0.86084 7.98242 0.245605 10.2852 0.245605C11.208 0.245605 12.2451 0.381836 13.3965 0.654297L12.9219 3.85791C12.0957 3.57666 11.2827 3.43604 10.4829 3.43604C7.99561 3.43604 6.6333 4.70605 6.396 7.24609H10.7861V9.25H6.36963V10.8848H10.7861V12.8887ZM25.064 19.6914H21.2539V5.00488L16.7056 6.41553V3.31738L24.6553 0.469727H25.064V19.6914ZM44.2329 11.7549C44.2329 14.4092 43.6836 16.4395 42.585 17.8457C41.4863 19.252 39.8779 19.9551 37.7598 19.9551C35.668 19.9551 34.0684 19.2651 32.9609 17.8853C31.8535 16.5054 31.2866 14.5278 31.2603 11.9526V8.41943C31.2603 5.73877 31.814 3.7041 32.9214 2.31543C34.0376 0.926758 35.6416 0.232422 37.7334 0.232422C39.8252 0.232422 41.4248 0.922363 42.5322 2.30225C43.6396 3.67334 44.2065 5.64648 44.2329 8.22168V11.7549ZM40.4229 7.87891C40.4229 6.28809 40.2031 5.13232 39.7637 4.41162C39.333 3.68213 38.6562 3.31738 37.7334 3.31738C36.8369 3.31738 36.1733 3.66455 35.7427 4.35889C35.3208 5.04443 35.0967 6.12109 35.0703 7.58887V12.2559C35.0703 13.8203 35.2812 14.9849 35.7031 15.7495C36.1338 16.5054 36.8193 16.8833 37.7598 16.8833C38.6914 16.8833 39.3638 16.5186 39.7769 15.7891C40.1899 15.0596 40.4053 13.9434 40.4229 12.4404V7.87891ZM59.7368 11.7549C59.7368 14.4092 59.1875 16.4395 58.0889 17.8457C56.9902 19.252 55.3818 19.9551 53.2637 19.9551C51.1719 19.9551 49.5723 19.2651 48.4648 17.8853C47.3574 16.5054 46.7905 14.5278 46.7642 11.9526V8.41943C46.7642 5.73877 47.3179 3.7041 48.4253 2.31543C49.5415 0.926758 51.1455 0.232422 53.2373 0.232422C55.3291 0.232422 56.9287 0.922363 58.0361 2.30225C59.1436 3.67334 59.7104 5.64648 59.7368 8.22168V11.7549ZM55.9268 7.87891C55.9268 6.28809 55.707 5.13232 55.2676 4.41162C54.8369 3.68213 54.1602 3.31738 53.2373 3.31738C52.3408 3.31738 51.6772 3.66455 51.2466 4.35889C50.8247 5.04443 50.6006 6.12109 50.5742 7.58887V12.2559C50.5742 13.8203 50.7852 14.9849 51.207 15.7495C51.6377 16.5054 52.3232 16.8833 53.2637 16.8833C54.1953 16.8833 54.8677 16.5186 55.2808 15.7891C55.6938 15.0596 55.9092 13.9434 55.9268 12.4404V7.87891ZM81.9644 11.7549C81.9644 14.4092 81.415 16.4395 80.3164 17.8457C79.2178 19.252 77.6094 19.9551 75.4912 19.9551C73.3994 19.9551 71.7998 19.2651 70.6924 17.8853C69.585 16.5054 69.0181 14.5278 68.9917 11.9526V8.41943C68.9917 5.73877 69.5454 3.7041 70.6528 2.31543C71.769 0.926758 73.373 0.232422 75.4648 0.232422C77.5566 0.232422 79.1562 0.922363 80.2637 2.30225C81.3711 3.67334 81.938 5.64648 81.9644 8.22168V11.7549ZM78.1543 7.87891C78.1543 6.28809 77.9346 5.13232 77.4951 4.41162C77.0645 3.68213 76.3877 3.31738 75.4648 3.31738C74.5684 3.31738 73.9048 3.66455 73.4741 4.35889C73.0522 5.04443 72.8281 6.12109 72.8018 7.58887V12.2559C72.8018 13.8203 73.0127 14.9849 73.4346 15.7495C73.8652 16.5054 74.5508 16.8833 75.4912 16.8833C76.4229 16.8833 77.0952 16.5186 77.5083 15.7891C77.9214 15.0596 78.1367 13.9434 78.1543 12.4404V7.87891ZM97.4683 11.7549C97.4683 14.4092 96.9189 16.4395 95.8203 17.8457C94.7217 19.252 93.1133 19.9551 90.9951 19.9551C88.9033 19.9551 87.3037 19.2651 86.1963 17.8853C85.0889 16.5054 84.522 14.5278 84.4956 11.9526V8.41943C84.4956 5.73877 85.0493 3.7041 86.1567 2.31543C87.2729 0.926758 88.877 0.232422 90.9688 0.232422C93.0605 0.232422 94.6602 0.922363 95.7676 2.30225C96.875 3.67334 97.4419 5.64648 97.4683 8.22168V11.7549ZM93.6582 7.87891C93.6582 6.28809 93.4385 5.13232 92.999 4.41162C92.5684 3.68213 91.8916 3.31738 90.9688 3.31738C90.0723 3.31738 89.4087 3.66455 88.978 4.35889C88.5562 5.04443 88.332 6.12109 88.3057 7.58887V12.2559C88.3057 13.8203 88.5166 14.9849 88.9385 15.7495C89.3691 16.5054 90.0547 16.8833 90.9951 16.8833C91.9268 16.8833 92.5991 16.5186 93.0122 15.7891C93.4253 15.0596 93.6406 13.9434 93.6582 12.4404V7.87891ZM112.972 11.7549C112.972 14.4092 112.423 16.4395 111.324 17.8457C110.226 19.252 108.617 19.9551 106.499 19.9551C104.407 19.9551 102.808 19.2651 101.7 17.8853C100.593 16.5054 100.026 14.5278 99.9995 11.9526V8.41943C99.9995 5.73877 100.553 3.7041 101.661 2.31543C102.777 0.926758 104.381 0.232422 106.473 0.232422C108.564 0.232422 110.164 0.922363 111.271 2.30225C112.379 3.67334 112.946 5.64648 112.972 8.22168V11.7549ZM109.162 7.87891C109.162 6.28809 108.942 5.13232 108.503 4.41162C108.072 3.68213 107.396 3.31738 106.473 3.31738C105.576 3.31738 104.913 3.66455 104.482 4.35889C104.06 5.04443 103.836 6.12109 103.81 7.58887V12.2559C103.81 13.8203 104.021 14.9849 104.442 15.7495C104.873 16.5054 105.559 16.8833 106.499 16.8833C107.431 16.8833 108.103 16.5186 108.516 15.7891C108.929 15.0596 109.145 13.9434 109.162 12.4404V7.87891ZM135.2 11.7549C135.2 14.4092 134.65 16.4395 133.552 17.8457C132.453 19.252 130.845 19.9551 128.727 19.9551C126.635 19.9551 125.035 19.2651 123.928 17.8853C122.82 16.5054 122.253 14.5278 122.227 11.9526V8.41943C122.227 5.73877 122.781 3.7041 123.888 2.31543C125.004 0.926758 126.608 0.232422 128.7 0.232422C130.792 0.232422 132.392 0.922363 133.499 2.30225C134.606 3.67334 135.173 5.64648 135.2 8.22168V11.7549ZM131.39 7.87891C131.39 6.28809 131.17 5.13232 130.73 4.41162C130.3 3.68213 129.623 3.31738 128.7 3.31738C127.804 3.31738 127.14 3.66455 126.709 4.35889C126.288 5.04443 126.063 6.12109 126.037 7.58887V12.2559C126.037 13.8203 126.248 14.9849 126.67 15.7495C127.101 16.5054 127.786 16.8833 128.727 16.8833C129.658 16.8833 130.331 16.5186 130.744 15.7891C131.157 15.0596 131.372 13.9434 131.39 12.4404V7.87891ZM150.704 11.7549C150.704 14.4092 150.154 16.4395 149.056 17.8457C147.957 19.252 146.349 19.9551 144.23 19.9551C142.139 19.9551 140.539 19.2651 139.432 17.8853C138.324 16.5054 137.757 14.5278 137.731 11.9526V8.41943C137.731 5.73877 138.285 3.7041 139.392 2.31543C140.508 0.926758 142.112 0.232422 144.204 0.232422C146.296 0.232422 147.896 0.922363 149.003 2.30225C150.11 3.67334 150.677 5.64648 150.704 8.22168V11.7549ZM146.894 7.87891C146.894 6.28809 146.674 5.13232 146.234 4.41162C145.804 3.68213 145.127 3.31738 144.204 3.31738C143.308 3.31738 142.644 3.66455 142.213 4.35889C141.792 5.04443 141.567 6.12109 141.541 7.58887V12.2559C141.541 13.8203 141.752 14.9849 142.174 15.7495C142.604 16.5054 143.29 16.8833 144.23 16.8833C145.162 16.8833 145.834 16.5186 146.248 15.7891C146.661 15.0596 146.876 13.9434 146.894 12.4404V7.87891ZM166.208 11.7549C166.208 14.4092 165.658 16.4395 164.56 17.8457C163.461 19.252 161.853 19.9551 159.734 19.9551C157.643 19.9551 156.043 19.2651 154.936 17.8853C153.828 16.5054 153.261 14.5278 153.235 11.9526V8.41943C153.235 5.73877 153.789 3.7041 154.896 2.31543C156.012 0.926758 157.616 0.232422 159.708 0.232422C161.8 0.232422 163.399 0.922363 164.507 2.30225C165.614 3.67334 166.181 5.64648 166.208 8.22168V11.7549ZM162.397 7.87891C162.397 6.28809 162.178 5.13232 161.738 4.41162C161.308 3.68213 160.631 3.31738 159.708 3.31738C158.812 3.31738 158.148 3.66455 157.717 4.35889C157.295 5.04443 157.071 6.12109 157.045 7.58887V12.2559C157.045 13.8203 157.256 14.9849 157.678 15.7495C158.108 16.5054 158.794 16.8833 159.734 16.8833C160.666 16.8833 161.338 16.5186 161.751 15.7891C162.165 15.0596 162.38 13.9434 162.397 12.4404V7.87891Z" fill="#0061A3"/>
</svg>
