<svg width="44" height="27" viewBox="0 0 44 27" fill="none" xmlns="http://www.w3.org/2000/svg">
<g clip-path="url(#clip0_1_7212)">
<rect y="0.348022" width="44" height="26.4" rx="4" fill="#862165"/>
<path fill-rule="evenodd" clip-rule="evenodd" d="M27.6356 11.2577C28.2211 11.2577 28.6953 10.7837 28.6953 10.1989C28.6953 9.6139 28.2211 9.13937 27.6356 9.13937C27.0513 9.13937 26.5771 9.6139 26.5771 10.1989C26.5771 10.7837 27.0513 11.2577 27.6356 11.2577ZM19.5204 11.8293C19.4725 11.9496 19.1285 12.9216 18.2961 13.9291V9.62141L16.0785 10.0596V17.8681H18.2961V15.4545C18.9385 16.4176 19.2556 17.8681 19.2556 17.8681H21.9118C21.6491 16.7758 20.4998 14.7617 20.4998 14.7617C21.5313 13.4539 21.9843 12.0605 22.0563 11.8293H19.5204ZM25.3503 11.7479C23.3642 11.8118 22.3557 12.7029 22.3557 14.4744V17.8681H24.5229V15.1005C24.5229 14.04 24.6617 13.5851 25.9203 13.5418V11.7791C25.7085 11.734 25.3503 11.7479 25.3503 11.7479ZM12.3593 12.6893C12.0877 12.6716 11.4588 12.6309 11.4588 12.0647C11.4588 11.3816 12.3642 11.3816 12.7038 11.3816C13.3008 11.3816 14.0741 11.5578 14.6264 11.7232C14.6264 11.7232 14.9345 11.8318 15.1967 11.943L15.221 11.9496V11.9248V10.0786L15.1876 10.0687C14.5358 9.84078 13.7779 9.62144 12.373 9.62144C9.9504 9.62144 9.0921 11.0326 9.0921 12.2416C9.0921 12.9385 9.39071 14.5788 12.1653 14.768C12.4003 14.7824 13.0245 14.8184 13.0245 15.4034C13.0245 15.8865 12.5135 16.1712 11.6541 16.1712C10.7123 16.1712 9.79837 15.9312 9.24352 15.7033V17.6302C10.0744 17.8479 11.0108 17.9568 12.1085 17.9568C14.4773 17.9568 15.5381 16.6215 15.5381 15.2982C15.5381 13.7978 14.351 12.8227 12.3593 12.6893ZM26.5615 17.8681H28.7109V11.8363H26.5615V17.8681ZM32.7582 10.0058V17.8681H34.9081V9.62141L32.7582 10.0058ZM29.6215 10.0058L31.7691 9.62141V17.8681H29.6215V10.0058Z" fill="white"/>
</g>
<defs>
<clipPath id="clip0_1_7212">
<rect width="44" height="26.4" fill="white" transform="translate(0 0.348022)"/>
</clipPath>
</defs>
</svg>
