<svg width="13" height="13" viewBox="0 0 13 13" fill="none" xmlns="http://www.w3.org/2000/svg">
<path fill-rule="evenodd" clip-rule="evenodd" d="M12.1588 5.5865L9.10676 7.90032L10.2104 11.4528C10.2104 11.4528 10.8482 12.9455 9.54918 11.9812C8.35905 11.0977 6.65818 9.76347 6.65818 9.76347C6.65818 9.76347 4.87466 11.1269 3.69552 12.0273C2.50921 12.9336 3.1155 11.4062 3.1155 11.4062L4.21342 7.89587L1.23165 5.63652C1.23165 5.63652 0.150927 4.87432 1.41655 4.87432C2.87327 4.87432 5.15033 4.87531 5.15033 4.87531L6.33999 1.02174C6.33999 1.02174 6.43267 0.691406 6.66678 0.691406C6.9157 0.691406 6.99883 1.04601 6.99883 1.04601L8.17463 4.87828C8.17463 4.87828 10.4288 4.87432 11.8864 4.87432C13.0842 4.87432 12.1588 5.5865 12.1588 5.5865Z" fill="#F7D300"/>
</svg>
