<svg width="84" height="19" viewBox="0 0 84 19" fill="none" xmlns="http://www.w3.org/2000/svg">
<path d="M8.79297 5.69141H10.793V9.69141H13.793V11.6914H8.79297V5.69141Z" fill="white"/>
<path fill-rule="evenodd" clip-rule="evenodd" d="M0.792969 9.69141C0.792969 4.72084 4.82241 0.691406 9.79297 0.691406C14.7635 0.691406 18.793 4.72084 18.793 9.69141C18.793 14.662 14.7635 18.6914 9.79297 18.6914C4.82241 18.6914 0.792969 14.662 0.792969 9.69141ZM2.79297 9.69141C2.79297 5.82541 5.92698 2.69141 9.79297 2.69141C13.659 2.69141 16.793 5.82541 16.793 9.69141C16.793 13.5574 13.659 16.6914 9.79297 16.6914C5.92698 16.6914 2.79297 13.5574 2.79297 9.69141Z" fill="white"/>
<path d="M29.5342 15.6914H27.4072V5.41699L24.2695 6.48926V4.6875L29.2617 2.85059H29.5342V15.6914ZM35.4053 13.4414C35.8037 13.4414 36.1113 13.5557 36.3281 13.7842C36.5449 14.0068 36.6533 14.2881 36.6533 14.6279C36.6533 14.9619 36.5449 15.2402 36.3281 15.4629C36.1113 15.6797 35.8037 15.7881 35.4053 15.7881C35.0244 15.7881 34.7227 15.6797 34.5 15.4629C34.2773 15.2461 34.166 14.9678 34.166 14.6279C34.166 14.2881 34.2744 14.0068 34.4912 13.7842C34.708 13.5557 35.0127 13.4414 35.4053 13.4414ZM35.4053 5.97949C35.8037 5.97949 36.1113 6.09375 36.3281 6.32227C36.5449 6.54492 36.6533 6.82617 36.6533 7.16602C36.6533 7.5 36.5449 7.77832 36.3281 8.00098C36.1113 8.21777 35.8037 8.32617 35.4053 8.32617C35.0244 8.32617 34.7227 8.21777 34.5 8.00098C34.2773 7.78418 34.166 7.50586 34.166 7.16602C34.166 6.82617 34.2744 6.54492 34.4912 6.32227C34.708 6.09375 35.0127 5.97949 35.4053 5.97949ZM47.3672 15.6914H38.7627V14.2236L43.0254 9.57422C43.6406 8.88867 44.0771 8.31738 44.335 7.86035C44.5986 7.39746 44.7305 6.93457 44.7305 6.47168C44.7305 5.8623 44.5576 5.37012 44.2119 4.99512C43.8721 4.62012 43.4121 4.43262 42.832 4.43262C42.1406 4.43262 41.6045 4.64355 41.2236 5.06543C40.8428 5.4873 40.6523 6.06445 40.6523 6.79688H38.5166C38.5166 6.01758 38.6924 5.31738 39.0439 4.69629C39.4014 4.06934 39.9082 3.58301 40.5645 3.2373C41.2266 2.8916 41.9883 2.71875 42.8496 2.71875C44.0918 2.71875 45.0703 3.03223 45.7852 3.65918C46.5059 4.28027 46.8662 5.1416 46.8662 6.24316C46.8662 6.88184 46.6846 7.55273 46.3213 8.25586C45.9639 8.95312 45.375 9.74707 44.5547 10.6377L41.4258 13.9863H47.3672V15.6914ZM57.5977 15.6914H48.9932V14.2236L53.2559 9.57422C53.8711 8.88867 54.3076 8.31738 54.5654 7.86035C54.8291 7.39746 54.9609 6.93457 54.9609 6.47168C54.9609 5.8623 54.7881 5.37012 54.4424 4.99512C54.1025 4.62012 53.6426 4.43262 53.0625 4.43262C52.3711 4.43262 51.835 4.64355 51.4541 5.06543C51.0732 5.4873 50.8828 6.06445 50.8828 6.79688H48.7471C48.7471 6.01758 48.9229 5.31738 49.2744 4.69629C49.6318 4.06934 50.1387 3.58301 50.7949 3.2373C51.457 2.8916 52.2188 2.71875 53.0801 2.71875C54.3223 2.71875 55.3008 3.03223 56.0156 3.65918C56.7363 4.28027 57.0967 5.1416 57.0967 6.24316C57.0967 6.88184 56.915 7.55273 56.5518 8.25586C56.1943 8.95312 55.6055 9.74707 54.7852 10.6377L51.6562 13.9863H57.5977V15.6914ZM60.6475 13.4414C61.0459 13.4414 61.3535 13.5557 61.5703 13.7842C61.7871 14.0068 61.8955 14.2881 61.8955 14.6279C61.8955 14.9619 61.7871 15.2402 61.5703 15.4629C61.3535 15.6797 61.0459 15.7881 60.6475 15.7881C60.2666 15.7881 59.9648 15.6797 59.7422 15.4629C59.5195 15.2461 59.4082 14.9678 59.4082 14.6279C59.4082 14.2881 59.5166 14.0068 59.7334 13.7842C59.9502 13.5557 60.2549 13.4414 60.6475 13.4414ZM60.6475 5.97949C61.0459 5.97949 61.3535 6.09375 61.5703 6.32227C61.7871 6.54492 61.8955 6.82617 61.8955 7.16602C61.8955 7.5 61.7871 7.77832 61.5703 8.00098C61.3535 8.21777 61.0459 8.32617 60.6475 8.32617C60.2666 8.32617 59.9648 8.21777 59.7422 8.00098C59.5195 7.78418 59.4082 7.50586 59.4082 7.16602C59.4082 6.82617 59.5166 6.54492 59.7334 6.32227C59.9502 6.09375 60.2549 5.97949 60.6475 5.97949ZM72.3457 10.3037C72.3457 12.1436 72 13.5322 71.3086 14.4697C70.623 15.4014 69.5771 15.8672 68.1709 15.8672C66.7881 15.8672 65.7451 15.4131 65.042 14.5049C64.3447 13.5908 63.9873 12.2402 63.9697 10.4531V8.23828C63.9697 6.39844 64.3125 5.01855 64.998 4.09863C65.6895 3.17871 66.7412 2.71875 68.1533 2.71875C69.5537 2.71875 70.5967 3.16699 71.2822 4.06348C71.9736 4.95996 72.3281 6.30176 72.3457 8.08887V10.3037ZM70.21 7.91309C70.21 6.71191 70.0459 5.83301 69.7178 5.27637C69.3896 4.71387 68.8682 4.43262 68.1533 4.43262C67.4561 4.43262 66.9434 4.69922 66.6152 5.23242C66.2871 5.75977 66.1143 6.58594 66.0967 7.71094V10.6113C66.0967 11.8066 66.2637 12.6973 66.5977 13.2832C66.9316 13.8691 67.4561 14.1621 68.1709 14.1621C68.8564 14.1621 69.3633 13.8926 69.6914 13.3535C70.0195 12.8086 70.1924 11.959 70.21 10.8047V7.91309ZM80.0186 15.6914H77.8916V5.41699L74.7539 6.48926V4.6875L79.7461 2.85059H80.0186V15.6914Z" fill="white"/>
</svg>
