<svg width="24" height="25" viewBox="0 0 24 25" fill="none" xmlns="http://www.w3.org/2000/svg">
<g clip-path="url(#clip0_1_7278)">
<circle cx="12" cy="12.948" r="12" fill="#1DA1F3"/>
<path d="M17.097 10.7001C17.097 10.8139 17.097 10.9276 17.097 11.0251C17.097 14.3889 14.5295 18.2726 9.84948 18.2726C8.40323 18.2726 7.07073 17.8501 5.93323 17.1351C6.12823 17.1514 6.33948 17.1676 6.53448 17.1676C7.72073 17.1676 8.82573 16.7614 9.70323 16.0789C8.58198 16.0626 7.63948 15.3151 7.33073 14.3076C7.49323 14.3401 7.63948 14.3564 7.81823 14.3564C8.04573 14.3564 8.27323 14.3239 8.48448 14.2589C7.31448 14.0314 6.43698 13.0076 6.43698 11.7726C6.43698 11.7564 6.43698 11.7564 6.43698 11.7401C6.77823 11.9351 7.16823 12.0489 7.59073 12.0651C6.90823 11.6101 6.45323 10.8301 6.45323 9.9364C6.45323 9.46515 6.58323 9.0264 6.79448 8.65265C8.04573 10.1964 9.93073 11.2039 12.0432 11.3176C11.9945 11.1389 11.9782 10.9276 11.9782 10.7326C11.9782 9.3189 13.1157 8.1814 14.5295 8.1814C15.2607 8.1814 15.927 8.49015 16.382 8.97765C16.967 8.8639 17.5032 8.65265 18.007 8.36015C17.812 8.9614 17.4057 9.4489 16.8857 9.7739C17.4057 9.7089 17.8932 9.5789 18.3482 9.36765C18.0232 9.88765 17.6007 10.3426 17.097 10.7001Z" fill="#FAFBFC"/>
</g>
<defs>
<clipPath id="clip0_1_7278">
<rect width="24" height="24" fill="white" transform="translate(0 0.947998)"/>
</clipPath>
</defs>
</svg>
