<svg width="21" height="15" viewBox="0 0 21 15" fill="none" xmlns="http://www.w3.org/2000/svg">
<g clip-path="url(#clip0_1_6374)">
<path d="M0.82666 0.54126H23.8287V14.5413H0.82666V0.54126Z" fill="white"/>
<path d="M0.82666 0.54126H23.8287V1.48751H0.82666V0.54126ZM0.82666 2.43376H23.8287V3.38001H0.82666V2.43376ZM0.82666 4.32618H23.8287V5.27243H0.82666V4.32618ZM0.82666 6.21868H23.8287V7.16492H0.82666V6.21868ZM0.82666 8.11109H23.8287V9.05734H0.82666V8.11109ZM0.82666 10.0036H23.8287V10.9498H0.82666V10.0036ZM0.82666 11.896H23.8287V12.8423H0.82666V11.896Z" fill="#B22234"/>
<path d="M0.858521 13.621H23.8606V14.5672H0.858521V13.621ZM0.858521 15.5135H23.8606V16.4597H0.858521V15.5135ZM0.858521 17.4059H23.8606V18.3521H0.858521V17.4059ZM0.858521 19.2984H23.8606V20.2446H0.858521V19.2984ZM0.858521 21.1908H23.8606V22.1371H0.858521V21.1908ZM0.858521 23.0833H23.8606V24.0296H0.858521V23.0833ZM0.858521 24.9757H23.8606V25.922H0.858521V24.9757Z" fill="#B22234"/>
<path d="M0.82666 0.54126H10.0275V7.16485H0.82666V0.54126Z" fill="#3C3B6E"/>
<path d="M1.25891 1.07903L1.47812 1.24084L1.39439 1.50268L1.61353 1.34087L1.83274 1.50268L1.74901 1.24084L1.96814 1.07903H1.69725L1.61353 0.817261L1.5298 1.07903H1.25891ZM2.78433 1.07903L3.00346 1.24084L2.91974 1.50268L3.13895 1.34087L3.35816 1.50268L3.27443 1.24084L3.49356 1.07903H3.22267L3.13895 0.817261L3.05522 1.07903H2.78433ZM4.30975 1.07903L4.52888 1.24084L4.44516 1.50268L4.66437 1.34087L4.8835 1.50268L4.79977 1.24084L5.01898 1.07903H4.74809L4.66437 0.817261L4.58064 1.07903H4.30975ZM5.83517 1.07903L6.0543 1.24084L5.97058 1.50268L6.18979 1.34087L6.40892 1.50268L6.32519 1.24084L6.5444 1.07903H6.27344L6.18979 0.817261L6.10606 1.07903H5.83517ZM7.36051 1.07903L7.57972 1.24084L7.496 1.50268L7.71513 1.34087L7.93434 1.50268L7.85061 1.24084L8.06975 1.07903H7.79886L7.71513 0.817261L7.6314 1.07903H7.36051ZM8.88593 1.07903L9.10507 1.24084L9.02134 1.50268L9.24055 1.34087L9.45968 1.50268L9.37595 1.24084L9.59516 1.07903H9.32428L9.24055 0.817261L9.15682 1.07903H8.88593ZM2.02158 1.74333L2.24079 1.90514L2.15706 2.16691L2.37627 2.0051L2.59541 2.16691L2.51168 1.90514L2.73089 1.74333H2.45993L2.37627 1.48149L2.29255 1.74333H2.02158ZM3.547 1.74333L3.76621 1.90514L3.68249 2.16691L3.90162 2.0051L4.12083 2.16691L4.0371 1.90514L4.25623 1.74333H3.98535L3.90162 1.48149L3.81789 1.74333H3.547ZM5.07242 1.74333L5.29163 1.90514L5.2079 2.16691L5.42704 2.0051L5.64625 2.16691L5.56252 1.90514L5.78165 1.74333H5.51077L5.42704 1.48149L5.34331 1.74333H5.07242ZM6.59784 1.74333L6.81698 1.90514L6.73325 2.16691L6.95246 2.0051L7.17159 2.16691L7.08786 1.90514L7.30707 1.74333H7.03619L6.95246 1.48149L6.86873 1.74333H6.59784ZM8.12319 1.74333L8.3424 1.90514L8.25867 2.16691L8.4778 2.0051L8.69701 2.16691L8.61328 1.90514L8.83242 1.74333H8.56153L8.4778 1.48149L8.39415 1.74333H8.12319ZM1.25891 2.40756L1.47812 2.56937L1.39439 2.83121L1.61353 2.6694L1.83274 2.83121L1.74901 2.56937L1.96814 2.40756H1.69725L1.61353 2.1458L1.5298 2.40756H1.25891ZM2.78433 2.40756L3.00346 2.56937L2.91974 2.83121L3.13895 2.6694L3.35816 2.83121L3.27443 2.56937L3.49356 2.40756H3.22267L3.13895 2.1458L3.05522 2.40756H2.78433ZM4.30975 2.40756L4.52888 2.56937L4.44516 2.83121L4.66437 2.6694L4.8835 2.83121L4.79977 2.56937L5.01898 2.40756H4.74809L4.66437 2.1458L4.58064 2.40756H4.30975ZM5.83517 2.40756L6.0543 2.56937L5.97058 2.83121L6.18979 2.6694L6.40892 2.83121L6.32519 2.56937L6.5444 2.40756H6.27344L6.18979 2.1458L6.10606 2.40756H5.83517ZM7.36051 2.40756L7.57972 2.56937L7.496 2.83121L7.71513 2.6694L7.93434 2.83121L7.85061 2.56937L8.06975 2.40756H7.79886L7.71513 2.1458L7.6314 2.40756H7.36051ZM8.88593 2.40756L9.10507 2.56937L9.02134 2.83121L9.24055 2.6694L9.45968 2.83121L9.37595 2.56937L9.59516 2.40756H9.32428L9.24055 2.1458L9.15682 2.40756H8.88593ZM2.04044 3.07405L2.25958 3.23586L2.17593 3.49762L2.39506 3.33581L2.61427 3.49762L2.53054 3.23578L2.74967 3.07405H2.47879L2.39506 2.8122L2.31133 3.07405H2.04044ZM3.56586 3.07405L3.785 3.23586L3.70127 3.49762L3.92048 3.33581L4.13961 3.49762L4.05589 3.23578L4.27509 3.07405H4.00421L3.92048 2.8122L3.83675 3.07405H3.56586ZM5.09128 3.07405L5.31042 3.23586L5.22669 3.49762L5.4459 3.33581L5.66503 3.49762L5.58131 3.23578L5.80051 3.07405H5.52955L5.4459 2.8122L5.36217 3.07405H5.09128ZM6.61663 3.07405L6.83584 3.23586L6.75211 3.49762L6.97124 3.33581L7.19045 3.49762L7.10672 3.23578L7.32586 3.07405H7.05497L6.97124 2.8122L6.88752 3.07405H6.61663ZM8.14205 3.07405L8.36118 3.23586L8.27745 3.49762L8.49666 3.33581L8.7158 3.49762L8.63207 3.23578L8.85128 3.07405H8.58039L8.49666 2.8122L8.41294 3.07405H8.14205ZM1.28207 3.73274L1.50128 3.89448L1.41755 4.15632L1.63668 3.99451L1.85589 4.15632L1.77216 3.89448L1.9913 3.73274H1.72041L1.63668 3.4709L1.55295 3.73274H1.28207ZM2.80749 3.73274L3.02662 3.89448L2.94289 4.15632L3.1621 3.99451L3.38123 4.15632L3.29758 3.89448L3.51672 3.73274H3.24583L3.1621 3.4709L3.07837 3.73274H2.80749ZM4.33291 3.73274L4.55204 3.89448L4.46831 4.15632L4.68752 3.99451L4.90665 4.15632L4.82293 3.89448L5.04214 3.73274H4.77125L4.68752 3.4709L4.60379 3.73274H4.33291ZM5.85825 3.73274L6.07746 3.89448L5.99373 4.15632L6.21286 3.99451L6.43208 4.15632L6.34835 3.89448L6.56756 3.73274H6.29659L6.21286 3.4709L6.12921 3.73274H5.85825ZM7.38367 3.73274L7.6028 3.89448L7.51915 4.15632L7.73829 3.99451L7.95749 4.15632L7.87377 3.89448L8.0929 3.73274H7.82201L7.73829 3.4709L7.65456 3.73274H7.38367ZM8.90909 3.73274L9.12822 3.89448L9.0445 4.15632L9.26371 3.99451L9.48284 4.15632L9.39911 3.89448L9.61832 3.73274H9.34743L9.26371 3.4709L9.17998 3.73274H8.90909ZM1.2964 5.04017L1.51554 5.20198L1.43181 5.46382L1.65102 5.30201L1.87015 5.46382L1.78643 5.20198L2.00563 5.04017H1.73475L1.65102 4.7784L1.56729 5.04017H1.2964ZM2.82175 5.04017L3.04096 5.20198L2.95723 5.46382L3.17636 5.30201L3.39557 5.46382L3.31184 5.20198L3.53098 5.04017H3.26009L3.17636 4.7784L3.09264 5.04017H2.82175ZM4.34717 5.04017L4.5663 5.20198L4.48265 5.46382L4.70178 5.30201L4.92099 5.46382L4.83727 5.20198L5.0564 5.04017H4.78551L4.70178 4.7784L4.61806 5.04017H4.34717ZM5.87259 5.04017L6.09172 5.20198L6.00799 5.46382L6.2272 5.30201L6.44634 5.46382L6.36269 5.20198L6.58182 5.04017H6.31093L6.2272 4.7784L6.14348 5.04017H5.87259ZM7.39793 5.04017L7.61714 5.20198L7.53341 5.46382L7.75255 5.30201L7.97176 5.46382L7.88803 5.20198L8.10724 5.04017H7.83627L7.75255 4.7784L7.6689 5.04017H7.39793ZM8.92335 5.04017L9.14248 5.20198L9.05883 5.46382L9.27797 5.30201L9.49718 5.46382L9.41345 5.20198L9.63258 5.04017H9.36169L9.27797 4.7784L9.19424 5.04017H8.92335ZM1.27777 6.36301L1.49691 6.52483L1.41318 6.78667L1.63239 6.62486L1.85152 6.78667L1.76779 6.52483L1.987 6.36301H1.71604L1.63239 6.10125L1.54866 6.36301H1.27777ZM2.80312 6.36301L3.02233 6.52483L2.9386 6.78667L3.15773 6.62486L3.37694 6.78667L3.29321 6.52483L3.51235 6.36301H3.24146L3.15773 6.10125L3.074 6.36301H2.80312ZM4.32854 6.36301L4.54767 6.52483L4.46402 6.78667L4.68315 6.62486L4.90236 6.78667L4.81863 6.52483L5.03777 6.36301H4.76688L4.68315 6.10125L4.59942 6.36301H4.32854ZM5.85396 6.36301L6.07309 6.52483L5.98936 6.78667L6.20857 6.62486L6.4277 6.78667L6.34405 6.52483L6.56319 6.36301H6.2923L6.20857 6.10125L6.12484 6.36301H5.85396ZM7.3793 6.36301L7.59851 6.52483L7.51478 6.78667L7.73391 6.62486L7.95312 6.78667L7.8694 6.52483L8.08861 6.36301H7.81764L7.73391 6.10125L7.65026 6.36301H7.3793ZM8.90472 6.36301L9.12385 6.52483L9.0402 6.78667L9.25933 6.62486L9.47854 6.78667L9.39482 6.52483L9.61395 6.36301H9.34306L9.25933 6.10125L9.17561 6.36301H8.90472ZM2.04497 4.37991L2.2641 4.54172L2.18045 4.80349L2.39958 4.64168L2.61879 4.80349L2.53507 4.54172L2.7542 4.37991H2.48331L2.39958 4.11807L2.31586 4.37991H2.04497ZM3.57039 4.37991L3.78952 4.54172L3.70579 4.80349L3.925 4.64168L4.14414 4.80349L4.06049 4.54172L4.27962 4.37991H4.00873L3.925 4.11807L3.84128 4.37991H3.57039ZM5.09581 4.37991L5.31494 4.54172L5.23121 4.80349L5.45042 4.64168L5.66956 4.80349L5.58583 4.54172L5.80504 4.37991H5.53415L5.45042 4.11807L5.3667 4.37991H5.09581ZM6.62115 4.37991L6.84036 4.54172L6.75663 4.80349L6.97577 4.64168L7.19498 4.80349L7.11125 4.54172L7.33038 4.37991H7.05949L6.97577 4.11807L6.89204 4.37991H6.62115ZM8.14657 4.37991L8.36571 4.54172L8.28198 4.80349L8.50119 4.64168L8.72032 4.80349L8.63667 4.54172L8.8558 4.37991H8.58491L8.50119 4.11807L8.41746 4.37991H8.14657ZM2.04044 5.70066L2.25965 5.86247L2.17593 6.12431L2.39506 5.9625L2.61427 6.12431L2.53054 5.86247L2.74967 5.70066H2.47879L2.39506 5.43889L2.31133 5.70066H2.04044ZM3.56586 5.70066L3.785 5.86247L3.70127 6.12431L3.92048 5.9625L4.13969 6.12431L4.05596 5.86247L4.27509 5.70066H4.00421L3.92048 5.43889L3.83675 5.70066H3.56586ZM5.09128 5.70066L5.31042 5.86247L5.22669 6.12431L5.4459 5.9625L5.66503 6.12431L5.58131 5.86247L5.80051 5.70066H5.52963L5.4459 5.43889L5.36217 5.70066H5.09128ZM6.61663 5.70066L6.83584 5.86247L6.75211 6.12431L6.97124 5.9625L7.19045 6.12431L7.10672 5.86247L7.32586 5.70066H7.05497L6.97124 5.43889L6.88752 5.70066H6.61663ZM8.14205 5.70066L8.36118 5.86247L8.27745 6.12431L8.49666 5.9625L8.7158 6.12431L8.63215 5.86247L8.85128 5.70066H8.58039L8.49666 5.43889L8.41294 5.70066H8.14205Z" fill="white"/>
</g>
<defs>
<clipPath id="clip0_1_6374">
<rect x="0.825195" y="0.492676" width="20" height="14" rx="2" fill="white"/>
</clipPath>
</defs>
</svg>
