<svg width="44" height="28" viewBox="0 0 44 28" fill="none" xmlns="http://www.w3.org/2000/svg">
<g clip-path="url(#clip0_1_7034)">
<rect y="0.947998" width="44" height="26.4" rx="4" fill="#26337A"/>
<path fill-rule="evenodd" clip-rule="evenodd" d="M18.2556 18.3485L19.6084 9.95593H21.771L20.4182 18.3485H18.2556Z" fill="#FFFFFE"/>
<path fill-rule="evenodd" clip-rule="evenodd" d="M28.2625 10.1619C27.8349 9.9935 27.1624 9.80981 26.3247 9.80981C24.1866 9.80981 22.6816 10.9487 22.6691 12.5796C22.6555 13.7859 23.7431 14.4587 24.563 14.8597C25.4057 15.2706 25.6888 15.5337 25.6855 15.9011C25.6796 16.4632 25.0128 16.7208 24.3911 16.7208C23.5253 16.7208 23.0653 16.594 22.3541 16.2807L22.0759 16.1471L21.7735 18.0257C22.2778 18.2594 23.2126 18.4623 24.1828 18.473C26.455 18.473 27.9315 17.3478 27.9488 15.6063C27.9566 14.6497 27.3803 13.9246 26.1323 13.326C25.3766 12.9368 24.9128 12.679 24.9181 12.2851C24.9186 11.9363 25.3099 11.5629 26.157 11.5629C26.8643 11.5515 27.3764 11.7148 27.7754 11.8854L27.9696 11.9813L28.2625 10.1619Z" fill="#FFFFFE"/>
<path fill-rule="evenodd" clip-rule="evenodd" d="M31.142 15.3731C31.3212 14.8907 32.0035 13.0272 32.0035 13.0272C31.9909 13.0494 32.1817 12.5411 32.2909 12.2266L32.4369 12.9504C32.4369 12.9504 32.8518 14.9536 32.9373 15.3731C32.6006 15.3731 31.5643 15.3731 31.142 15.3731ZM33.8099 9.9646H32.1387C31.6203 9.9646 31.2323 10.1131 31.0052 10.6603L27.7937 18.3516H30.0651C30.0651 18.3516 30.4356 17.3169 30.5198 17.0899C30.7675 17.0899 32.9746 17.0942 33.2896 17.0942C33.3544 17.3871 33.5529 18.3516 33.5529 18.3516H35.5601L33.8099 9.9646Z" fill="#FFFFFE"/>
<path fill-rule="evenodd" clip-rule="evenodd" d="M16.4414 9.96301L14.3247 15.6847L14.098 14.5217C13.7035 13.1816 12.4757 11.7291 11.1023 11.0013L13.0387 18.3412L15.3274 18.3399L18.733 9.96301H16.4414Z" fill="#FFFFFE"/>
<path fill-rule="evenodd" clip-rule="evenodd" d="M12.3599 9.9574H8.87251L8.84381 10.1313C11.5574 10.8265 13.3528 12.5046 14.098 14.5217L13.3402 10.6655C13.2095 10.1336 12.8295 9.97599 12.3599 9.9574Z" fill="#EC982D"/>
</g>
<defs>
<clipPath id="clip0_1_7034">
<rect width="44" height="26.4" fill="white" transform="translate(0 0.947998)"/>
</clipPath>
</defs>
</svg>
