<svg width="31" height="31" viewBox="0 0 31 31" fill="none" xmlns="http://www.w3.org/2000/svg">
<g clip-path="url(#clip0_1_7282)">
<circle cx="15.7329" cy="15.9343" r="15" fill="#25D366"/>
<path d="M19.7955 17.7219C19.5517 17.6407 18.4955 17.0719 18.2517 16.9907C18.008 16.9094 17.9267 16.9094 17.7642 17.0719C17.5407 17.3858 17.2964 17.6844 17.033 17.9657C16.8705 18.1282 16.7892 18.1282 16.5455 18.0469C15.8663 17.8183 15.2528 17.4279 14.758 16.9094C14.2543 16.4799 13.8401 15.9553 13.5392 15.3657C13.3767 15.1219 13.5392 15.0407 13.6205 14.8782C13.7481 14.7594 13.8577 14.6225 13.9455 14.4719C14.0267 14.3094 14.108 14.2282 14.1892 14.0657C14.2705 13.9032 14.1892 13.8219 14.1892 13.6594C14.1892 13.4969 13.7017 12.4407 13.458 12.0344C13.2142 11.6282 13.133 11.6282 12.9705 11.6282H12.5642C12.3514 11.6377 12.1492 11.7243 11.9955 11.8719C11.7284 12.1024 11.5166 12.39 11.376 12.7136C11.2353 13.0371 11.1693 13.3881 11.183 13.7407C11.2575 14.5713 11.5675 15.3634 12.0767 16.0238C12.9997 17.486 14.3298 18.6467 15.9036 19.3632C16.4724 19.6069 16.8786 19.6882 17.2036 19.8507C17.6498 19.9938 18.125 20.0217 18.5849 19.9319C19.2049 19.7664 19.7497 19.3936 20.1286 18.8757C20.2313 18.5328 20.286 18.1773 20.2911 17.8194C20.1251 17.8208 19.9602 17.7933 19.8036 17.7382L19.7955 17.7219ZM15.733 23.2469C14.3832 23.2631 13.0565 22.8969 11.9061 22.1907L11.6624 22.0282L8.8105 22.7594L9.54987 19.9969L9.38737 19.7532C8.64465 18.555 8.25073 17.1735 8.24987 15.7638C8.24827 14.2815 8.68646 12.832 9.50899 11.5988C10.3315 10.3656 11.5014 9.40421 12.8706 8.83621C14.2398 8.26821 15.7467 8.11917 17.2006 8.40797C18.6545 8.69676 19.9901 9.4104 21.0382 10.4586C22.0864 11.5067 22.8 12.8423 23.0888 14.2962C23.3776 15.7501 23.2286 17.257 22.6606 18.6262C22.0926 19.9954 21.1311 21.1653 19.898 21.9878C18.6648 22.8103 17.2153 23.2485 15.733 23.2469ZM22.0786 9.49941C20.3726 7.85493 18.1024 6.92479 15.733 6.89941C13.3626 6.89941 11.0893 7.84104 9.41323 9.51715C7.73712 11.1933 6.7955 13.4665 6.7955 15.8369C6.7951 17.4112 7.2159 18.9569 8.01425 20.3138L6.698 24.9694L11.4999 23.7507C12.8221 24.4707 14.3089 24.8347 15.8142 24.8069C16.9879 24.8069 18.1501 24.5757 19.2345 24.1266C20.3188 23.6774 21.3041 23.0191 22.134 22.1892C22.9639 21.3593 23.6223 20.374 24.0714 19.2896C24.5206 18.2053 24.7517 17.0431 24.7517 15.8694C24.6942 13.4893 23.7326 11.2204 22.0624 9.52379" fill="#FAFBFC"/>
</g>
<defs>
<clipPath id="clip0_1_7282">
<rect width="30" height="30" fill="white" transform="translate(0.73291 0.934326)"/>
</clipPath>
</defs>
</svg>
